<?xml version="1.0" encoding="UTF-8"?>
<svg width="22px" height="18px" viewBox="0 0 22 18" version="1.1" xmlns="http://www.w3.org/2000/svg" xmlns:xlink="http://www.w3.org/1999/xlink">
    <!-- Generator: Sketch 64 (93537) - https://sketch.com -->
    <title>Gmail</title>
    <desc>Created with Sketch.</desc>
    <g id="Icons" stroke="none" stroke-width="1" fill="none" fill-rule="evenodd">
        <g id="Solid" transform="translate(-357.000000, -1193.000000)" fill="#000000">
            <g id="Solid-/-Brands-/Gmail" transform="translate(356.000000, 1190.000000)">
                <g id="Gmail" transform="translate(1.000000, 3.000000)">
                    <path d="M5.71169,0.97081 C9.2302,0.65621 12.7698,0.65621 16.2883,0.97081 L17.8057,1.10648 C19.318,1.2417 20.54,2.39708 20.7596,3.89951 C21.2541,7.2818 21.2541,10.7181 20.7596,14.1004 C20.54,15.6029 19.318,16.7582 17.8057,16.8935 L16.2883,17.0291 C12.7698,17.3437 9.2302,17.3437 5.71169,17.0291 L4.19435,16.8935 C2.68198,16.7582 1.46003,15.6029 1.24038,14.1004 C0.74588,10.7181 0.74588,7.2818 1.24038,3.89951 C1.46003,2.39708 2.68198,1.2417 4.19435,1.10648 L5.71169,0.97081 Z M4.85557,3.83962 C4.62315,3.71446 4.34204,3.72072 4.11541,3.85608 C3.88878,3.99145 3.75,4.23599 3.75,4.49997 L3.75,14 C3.75,14.4142 4.08579,14.75 4.5,14.75 C4.91421,14.75 5.25,14.4142 5.25,14 L5.25,5.75563 L10.6444,8.6603 C10.8664,8.7799 11.1336,8.7799 11.3556,8.6603 L16.75,5.75563 L16.75,14 C16.75,14.4142 17.0858,14.75 17.5,14.75 C17.9142,14.75 18.25,14.4142 18.25,14 L18.25,4.49997 C18.25,4.23599 18.1112,3.99145 17.8846,3.85608 C17.658,3.72072 17.3769,3.71446 17.1444,3.83962 L11,7.1482 L4.85557,3.83962 Z" id="Shape"></path>
                </g>
            </g>
        </g>
    </g>
</svg>