<?xml version="1.0" encoding="UTF-8"?>
<svg width="20px" height="20px" viewBox="0 0 20 20" version="1.1" xmlns="http://www.w3.org/2000/svg" xmlns:xlink="http://www.w3.org/1999/xlink">
    <!-- Generator: Sketch 64 (93537) - https://sketch.com -->
    <title>Instagram</title>
    <desc>Created with Sketch.</desc>
    <g id="Icons" stroke="none" stroke-width="1" fill="none" fill-rule="evenodd">
        <g id="Solid" transform="translate(-120.000000, -1124.000000)" fill="#000000">
            <g id="Solid-/-Brands-/Instagram" transform="translate(118.000000, 1122.000000)">
                <g id="Instagram" transform="translate(2.000000, 2.000000)">
                    <path d="M10,6.75005 C8.2051,6.75005 6.75,8.2051 6.75,10 C6.75,11.795 8.2051,13.25 10,13.25 C11.7949,13.25 13.25,11.795 13.25,10 C13.25,8.2051 11.7949,6.75005 10,6.75005 Z" id="Path" fill-rule="nonzero"></path>
                    <path d="M4.76954,1.08151 C8.2177,0.69614 11.7824,0.69614 15.2305,1.08151 C17.1289,1.29369 18.6601,2.78947 18.8829,4.69452 C19.2952,8.2195 19.2952,11.7806 18.8829,15.3056 C18.6601,17.2106 17.1289,18.7064 15.2305,18.9186 C11.7824,19.304 8.2177,19.304 4.76954,18.9186 C2.87114,18.7064 1.33995,17.2106 1.11713,15.3056 C0.70485,11.7806 0.70485,8.2195 1.11713,4.69452 C1.33995,2.78947 2.87114,1.29369 4.76954,1.08151 Z M15,4.00005 C14.4477,4.00005 14,4.44776 14,5.00005 C14,5.55233 14.4477,6.00005 15,6.00005 C15.5523,6.00005 16,5.55233 16,5.00005 C16,4.44776 15.5523,4.00005 15,4.00005 Z M5.25,10 C5.25,7.37669 7.37665,5.25005 10,5.25005 C12.6234,5.25005 14.75,7.37669 14.75,10 C14.75,12.6234 12.6234,14.75 10,14.75 C7.37665,14.75 5.25,12.6234 5.25,10 Z" id="Shape"></path>
                </g>
            </g>
        </g>
    </g>
</svg>