<?xml version="1.0" encoding="UTF-8"?>
<svg viewBox="0 0 567 712" version="1.1" xmlns="http://www.w3.org/2000/svg" xmlns:xlink="http://www.w3.org/1999/xlink">
    <title>mapa2</title>
    <defs>
        <filter id="filter-1">
            <feColorMatrix in="SourceGraphic" type="matrix" values="0 0 0 0 0.589781 0 0 0 0 0.153531 0 0 0 0 0.235697 0 0 0 1.000000 0"></feColorMatrix>
        </filter>
        <filter id="filter-2">
            <feColorMatrix in="SourceGraphic" type="matrix" values="0 0 0 0 0.589781 0 0 0 0 0.153531 0 0 0 0 0.235697 0 0 0 1.000000 0"></feColorMatrix>
        </filter>
        <filter id="filter-3">
            <feColorMatrix in="SourceGraphic" type="matrix" values="0 0 0 0 0.589781 0 0 0 0 0.153531 0 0 0 0 0.235697 0 0 0 1.000000 0"></feColorMatrix>
        </filter>
        <filter id="filter-4">
            <feColorMatrix in="SourceGraphic" type="matrix" values="0 0 0 0 0.589781 0 0 0 0 0.153531 0 0 0 0 0.235697 0 0 0 1.000000 0"></feColorMatrix>
        </filter>
        <filter id="filter-5">
            <feColorMatrix in="SourceGraphic" type="matrix" values="0 0 0 0 0.589781 0 0 0 0 0.153531 0 0 0 0 0.235697 0 0 0 1.000000 0"></feColorMatrix>
        </filter>
    </defs>
    <g id="mapa2" stroke="none" stroke-width="1" fill="none" fill-rule="evenodd">
        <rect fill="#FFFFFF" x="0" y="0" width="567" height="712"></rect>
        <path d="M400.9071,415.5397 L400.6486,413.9447 L399.3374,411.1859 L398.8479,409.6954 L398.9205,408.1191 L399.3869,406.721 L399.5838,405.2426 L398.8479,403.4804 L398.8479,403.4617 L400.7839,405.3537 L402.6352,409.7383 L403.9948,411.7667 L404.3259,412.6456 L405.724,416.4175 L411.0799,424.9447 L413.6297,438.192 L413.6297,438.2052 L413.5307,441.2335 L411.301,443.0826 L409.1802,441.4062 L408.5301,440.7209 L408.2243,440.4052 L408.1264,439.6517 L408.0164,438.9037 L408.0406,438.588 L408.6654,429.0246 L408.2243,425.7235 L406.5688,424.3133 L405.9451,422.9592 L400.9071,415.5397 Z M278.0261,213.3201 L278.0668,215.7148 L279.8565,216.9809 L279.8433,216.993 L278.2384,218.4879 L276.8161,220.1819 L276.8282,220.1874 L279.1943,222.0552 L281.7441,221.8572 L283.8275,219.9025 L285.3708,217.1855 L286.3762,214.672 L286.4015,214.6852 L291.8432,221.2797 L296.6733,229.599 L298.6467,231.6582 L301.4044,232.4645 L303.6099,234.2509 L306.8461,242.1203 L307.6667,242.9827 L308.5379,243.9067 L308.55,243.9133 L312.2515,245.5996 L314.1028,249.5629 L316.2225,257.5302 L316.6031,256.0672 L317.0926,255.4963 L317.9132,255.6822 L317.9264,255.6877 L319.385,256.4874 L318.9439,257.9515 L323.1349,262.5385 L324.533,264.8144 L324.5209,267.56 L323.4176,268.6633 L321.849,269.3882 L320.4146,271.0558 L320.4388,271.0437 L321.53,270.7643 L322.6575,270.4739 L322.9402,270.3188 L323.5023,270.0152 L323.5155,270.0273 L326.7759,277.1421 L327.2544,280.8491 L323.5155,281.4563 L323.5023,281.4563 L324.2756,279.0022 L323.2713,277.0376 L321.6037,276.7516 L320.4146,279.374 L320.8194,281.4068 L321.8853,282.85 L322.4738,284.3933 L321.3584,286.7418 L320.4762,286.0664 L318.8328,284.7838 L316.2225,283.1668 L313.588,282.5596 L311.0745,283.6255 L309.1253,286.2534 L309.8117,287.6284 L312.1404,287.2687 L315.2787,284.6727 L317.4358,286.9717 L319.385,289.7294 L321.7379,292.0284 L325.0478,292.9821 L331.9734,292.8457 L334.3142,291.3585 L332.7698,287.789 L336.7287,285.974 L338.2984,285.49 L339.9638,285.6088 L339.977,285.6209 L341.803,286.6736 L343.4706,288.4589 L344.7213,290.5401 L345.7861,296.6374 L348.1401,304.4804 L348.2127,306.5253 L348.2875,308.5746 L346.3746,307.2315 L344.377,303.1923 L342.6236,302.3376 L342.5631,303.4398 L343.2869,308.3832 L343.3474,308.7605 L344.1691,310.6569 L345.1745,311.1332 L346.0941,311.5677 L348.1522,311.5677 L349.7703,312.2981 L350.7262,318.1204 L351.8779,322.1585 L352.0748,322.8273 L352.3927,325.2979 L352.3927,325.31 L355.9963,337.5211 L357.1865,344.4489 L354.4519,348.2307 L354.4519,348.2494 L352.9317,341.9783 L352.7117,341.0928 L350.4193,334.7414 L349.316,334.7414 L349.1323,339.5638 L349.316,341.0807 L349.2071,341.0312 L349.096,341.4646 L349.096,342.2324 L349.316,343.1487 L349.8187,343.7427 L351.0936,344.1332 L351.1057,344.1398 L351.3642,344.6161 L352.5896,347.8039 L355.2373,349.7476 L355.2494,349.7476 L357.7739,349.5375 L358.6561,346.2694 L359.5757,346.2694 L360.5327,348.014 L360.789,348.4848 L362.0276,353.9749 L363.2893,356.0858 L364.969,357.9305 L366.047,359.7257 L367.9115,364.0212 L368.6463,363.2776 L369.6143,362.5472 L370.0554,361.8487 L370.7176,363.2655 L370.0554,364.0212 L370.3876,364.5646 L370.6802,364.9243 L370.7297,365.0178 L370.9013,365.3203 L370.9992,366.0012 L371.0113,365.9891 L371.7593,365.3698 L373.3037,364.6273 L374.088,364.0212 L374.088,364.0333 L374.4433,364.8869 L374.8734,365.9264 L374.5544,367.1584 L374.0264,368.3838 L374.0517,369.3298 L374.088,370.2461 L375.1429,372.2877 L377.0052,373.7177 L378.2196,374.6516 L379.3229,376.4776 L378.6233,376.5205 L378.268,376.7625 L377.8137,377.0716 L377.5332,377.2509 L377.2505,377.4236 L376.8083,379.0824 L376.3683,380.7401 L378.1338,385.9255 L379.0897,387.0266 L381.2468,389.5137 L381.271,389.5137 L384.4577,388.9318 L385.4873,388.9318 L386.529,392.1053 L387.7181,394.0655 L388.0855,394.6727 L394.5821,401.4762 L396.6776,404.7971 L397.0461,407.7352 L393.712,408.7428 L393.6999,408.7494 L392.1555,407.6978 L388.4529,402.9799 L386.5169,401.3024 L384.0166,400.3806 L383.9924,400.3806 L383.7339,400.4059 L381.9574,400.561 L380.3877,402.1681 L379.3229,405.5396 L381.1236,406.3624 L382.8638,406.6099 L384.3598,406.0533 L385.4873,404.5012 L387.2638,405.1689 L388.8951,405.9851 L389.4583,406.6528 L389.8378,407.1159 L389.6057,408.7494 L391.6044,410.6238 L393.6009,412.4971 L395.1706,414.3033 L396.8129,417.0489 L396.7997,417.0544 L396.0286,417.9509 L395.8317,418.8232 L396.0902,419.8671 L396.8129,421.3026 L397.7446,420.1586 L397.1803,418.0928 L397.1803,418.0807 L398.9579,418.7121 L402.4515,421.3026 L403.2853,422.5148 L406.054,429.5933 L405.8824,429.8958 L405.0255,433.7425 L405.1476,434.1616 L405.1729,434.2243 L405.8824,435.695 L406.054,436.289 L405.4666,437.3329 L404.3875,438.1678 L403.7385,439.0951 L404.5107,440.4426 L405.2455,441.4128 L405.5029,442.174 L405.5403,442.2719 L405.9814,443.1387 L407.0847,444.1199 L405.4666,445.2892 L405.6129,445.87 L405.7603,446.4563 L406.9736,446.7104 L408.188,445.1528 L409.1186,445.1528 L409.1307,445.1583 L410.2835,451.2842 L410.2472,453.5403 L411.301,453.5403 L411.301,453.4842 L411.4231,451.3579 L411.7905,449.2569 L412.4285,447.4639 L413.3602,446.1912 L413.3602,445.1583 L413.2744,444.9185 L412.9433,443.9659 L413.2128,443.4907 L414.0466,443.8427 L415.3952,445.1528 L415.8594,446.3518 L416.2037,449.5715 L418.5192,453.262 L422.2823,466.1837 L421.5728,501.882 L421.9402,504.2844 L423.4846,509.6502 L423.7299,512.8116 L422.8708,518.8451 L415.9342,542.9263 L415.5415,545.4079 L415.3952,548.6925 L414.8793,551.4315 L412.7101,555.6599 L412.2327,557.5475 L411.3736,560.1391 L408.4575,564.7118 L407.0847,566.859 L408.1132,570.5484 L406.4588,574.9286 L396.88,590.1119 L395.5413,589.6653 L391.8838,588.518 L389.3769,585.6536 L387.4464,585.3874 L385.7194,585.2741 L381.2204,579.7235 L385.143,524.0756 L384.3961,521.0759 L382.5899,518.481 L382.5745,515.5484 L381.5306,512.6301 L382.2324,509.6348 L382.5283,506.7847 L378.0766,504.0985 L372.7053,502.7103 L371.9276,502.0195 L370.9926,501.4629 L369.8728,501.4629 L368.6584,500.9294 L367.4913,498.8471 L366.8841,496.4931 L364.9371,492.9489 L366.6971,488.2387 L369.8409,484.5075 L372.2851,482.577 L369.0159,478.0428 L368.5803,474.778 L366.4793,471.0996 L363.1474,468.1989 L362.5413,465.2729 L362.758,461.6473 L360.9683,453.6492 L361.2642,451.6087 L360.2676,451.4327 L359.3183,450.8552 L361.5436,447.3935 L358.5868,446.5883 L354.8193,448.6101 L352.9988,449.2459 L351.3323,449.9917 L350.7713,451.4118 L349.745,453.0376 L347.6583,453.5788 L346.1183,453.6954 L346.1491,455.682 L346.9741,457.4717 L347.1457,459.257 L346.4604,460.7519 L345.4165,462.0158 L344.7169,463.0817 L341.6655,464.7768 L337.9299,464.6085 L337.9453,470.4396 L338.7395,476.1046 L335.9378,478.1572 L332.8864,479.2187 L331.5631,476.7514 L330.3795,473.8133 L329.8515,471.0908 L328.4963,468.3518 L327.4535,466.5907 L326.8309,465.2399 L324.9785,464.8879 L323.6717,465.2058 L321.4134,462.9728 L319.748,459.4176 L318.7679,452.7351 L318.1607,450.8431 L317.7097,448.9709 L318.1299,447.6047 L318.9692,446.0394 L320.5576,438.6562 L319.9812,431.0607 L313.2877,429.6043 L305.8946,433.7568 L302.6881,436.7246 L300.8654,437.4275 L299.3562,437.7773 L296.6161,438.742 L292.9124,432.5446 L291.7134,428.9014 L291.5099,426.4242 L290.5298,424.2605 L288.2572,422.8591 L287.837,422.4587 L289.2846,415.2658 L288.9579,412.3409 L287.8678,408.9155 L287.9778,406.3756 L290.8103,406.3668 L296.4291,405.8256 L299.1846,405.3372 L304.6637,407.4503 L309.1165,411.9306 L316.4007,414.1977 L319.9504,416.2316 L322.8929,416.5847 L323.2504,415.0183 L323.9511,413.2396 L324.9169,412.2265 L325.7419,410.5963 L325.2744,407.007 L325.9597,403.5871 L323.8257,391.827 L325.1501,380.1241 L326.2864,375.7076 L329.6645,373.4251 L333.9765,372.8234 L339.4402,373.5461 L340.8262,373.4405 L339.5799,367.7744 L337.0587,362.2799 L335.9532,356.6798 L337.1665,332.6877 L336.3734,324.7534 L334.0392,324.7688 L332.1549,324.7655 L330.7854,326.2439 L329.7888,328.06 L328.6525,328.9136 L327.6097,329.8222 L326.6604,333.8009 L325.897,335.2562 L323.7652,340.2524 L319.9812,341.1137 L319.2497,340.8662 L318.659,340.4416 L320.4014,339.3405 L321.211,337.4463 L320.6819,334.5566 L320.7446,332.5942 L320.5114,330.6593 L319.4367,329.138 L317.5381,329.2832 L314.8761,327.9148 L312.4484,326.0393 L309.9415,324.6159 L307.2487,324.6115 L295.8384,321.8164 L289.487,322.4412 L287.6038,320.5459 L286.9801,317.3757 L284.6778,315.5585 L282.2336,314.6147 L280.4736,312.0033 L278.2175,312.6644 L281.4856,300.9692 L281.8288,299.0541 L282.4514,297.216 L284.3038,295.3834 L286.4521,293.9908 L287.6973,291.7435 L286.6853,289.4027 L284.9418,288.053 L283.5866,286.3337 L281.4713,281.277 L277.4849,275.3304 L276.8623,271.6982 L275.2596,270.1307 L273.9825,268.6754 L273.8582,265.5646 L276.1935,260.0932 L275.0418,256.9164 L272.2555,250.7894 L272.162,244.2422 L274.7151,240.4659 L276.474,236.5114 L275.0418,235.4202 L273.8274,233.7823 L271.5075,231.2303 L264.9548,226.6367 L261.1092,224.4543 L256.6883,224.3564 L252.439,226.101 L253.1078,223.4346 L254.3541,221.2632 L260.2688,218.4978 L267.2428,217.5925 L270.1226,216.7565 L272.7373,215.2044 L275.6325,214.3772 L278.0151,213.3256 L278.0261,213.3201 L278.0261,213.3201 Z" id="Fill-1" fill="#FFFFFE"></path>
        <path d="M400.9071,415.5397 L400.6486,413.9447 L399.3374,411.1859 L398.8479,409.6954 L398.9205,408.1191 L399.3869,406.721 L399.5838,405.2426 L398.8479,403.4804 L398.8479,403.4617 L400.7839,405.3537 L402.6352,409.7383 L403.9948,411.7667 L404.3259,412.6456 L405.724,416.4175 L411.0799,424.9447 L413.6297,438.192 L413.6297,438.2052 L413.5307,441.2335 L411.301,443.0826 L409.1802,441.4062 L408.5301,440.7209 L408.2243,440.4052 L408.1264,439.6517 L408.0164,438.9037 L408.0406,438.588 L408.6654,429.0246 L408.2243,425.7235 L406.5688,424.3133 L405.9451,422.9592 L400.9071,415.5397 Z M278.0261,213.3201 L278.0668,215.7148 L279.8565,216.9809 L279.8433,216.993 L278.2384,218.4879 L276.8161,220.1819 L276.8282,220.1874 L279.1943,222.0552 L281.7441,221.8572 L283.8275,219.9025 L285.3708,217.1855 L286.3762,214.672 L286.4015,214.6852 L291.8432,221.2797 L296.6733,229.599 L298.6467,231.6582 L301.4044,232.4645 L303.6099,234.2509 L306.8461,242.1203 L307.6667,242.9827 L308.5379,243.9067 L308.55,243.9133 L312.2515,245.5996 L314.1028,249.5629 L316.2225,257.5302 L316.6031,256.0672 L317.0926,255.4963 L317.9132,255.6822 L317.9264,255.6877 L319.385,256.4874 L318.9439,257.9515 L323.1349,262.5385 L324.533,264.8144 L324.5209,267.56 L323.4176,268.6633 L321.849,269.3882 L320.4146,271.0558 L320.4388,271.0437 L321.53,270.7643 L322.6575,270.4739 L322.9402,270.3188 L323.5023,270.0152 L323.5155,270.0273 L326.7759,277.1421 L327.2544,280.8491 L323.5155,281.4563 L323.5023,281.4563 L324.2756,279.0022 L323.2713,277.0376 L321.6037,276.7516 L320.4146,279.374 L320.8194,281.4068 L321.8853,282.85 L322.4738,284.3933 L321.3584,286.7418 L320.4762,286.0664 L318.8328,284.7838 L316.2225,283.1668 L313.588,282.5596 L311.0745,283.6255 L309.1253,286.2534 L309.8117,287.6284 L312.1404,287.2687 L315.2787,284.6727 L317.4358,286.9717 L319.385,289.7294 L321.7379,292.0284 L325.0478,292.9821 L331.9734,292.8457 L334.3142,291.3585 L332.7698,287.789 L336.7287,285.974 L338.2984,285.49 L339.9638,285.6088 L339.977,285.6209 L341.803,286.6736 L343.4706,288.4589 L344.7213,290.5401 L345.7861,296.6374 L348.1401,304.4804 L348.2127,306.5253 L348.2875,308.5746 L346.3746,307.2315 L344.377,303.1923 L342.6236,302.3376 L342.5631,303.4398 L343.2869,308.3832 L343.3474,308.7605 L344.1691,310.6569 L345.1745,311.1332 L346.0941,311.5677 L348.1522,311.5677 L349.7703,312.2981 L350.7262,318.1204 L351.8779,322.1585 L352.0748,322.8273 L352.3927,325.2979 L352.3927,325.31 L355.9963,337.5211 L357.1865,344.4489 L354.4519,348.2307 L354.4519,348.2494 L352.9317,341.9783 L352.7117,341.0928 L350.4193,334.7414 L349.316,334.7414 L349.1323,339.5638 L349.316,341.0807 L349.2071,341.0312 L349.096,341.4646 L349.096,342.2324 L349.316,343.1487 L349.8187,343.7427 L351.0936,344.1332 L351.1057,344.1398 L351.3642,344.6161 L352.5896,347.8039 L355.2373,349.7476 L355.2494,349.7476 L357.7739,349.5375 L358.6561,346.2694 L359.5757,346.2694 L360.5327,348.014 L360.789,348.4848 L362.0276,353.9749 L363.2893,356.0858 L364.969,357.9305 L366.047,359.7257 L367.9115,364.0212 L368.6463,363.2776 L369.6143,362.5472 L370.0554,361.8487 L370.7176,363.2655 L370.0554,364.0212 L370.3876,364.5646 L370.6802,364.9243 L370.7297,365.0178 L370.9013,365.3203 L370.9992,366.0012 L371.0113,365.9891 L371.7593,365.3698 L373.3037,364.6273 L374.088,364.0212 L374.088,364.0333 L374.4433,364.8869 L374.8734,365.9264 L374.5544,367.1584 L374.0264,368.3838 L374.0517,369.3298 L374.088,370.2461 L375.1429,372.2877 L377.0052,373.7177 L378.2196,374.6516 L379.3229,376.4776 L378.6233,376.5205 L378.268,376.7625 L377.8137,377.0716 L377.5332,377.2509 L377.2505,377.4236 L376.8083,379.0824 L376.3683,380.7401 L378.1338,385.9255 L379.0897,387.0266 L381.2468,389.5137 L381.271,389.5137 L384.4577,388.9318 L385.4873,388.9318 L386.529,392.1053 L387.7181,394.0655 L388.0855,394.6727 L394.5821,401.4762 L396.6776,404.7971 L397.0461,407.7352 L393.712,408.7428 L393.6999,408.7494 L392.1555,407.6978 L388.4529,402.9799 L386.5169,401.3024 L384.0166,400.3806 L383.9924,400.3806 L383.7339,400.4059 L381.9574,400.561 L380.3877,402.1681 L379.3229,405.5396 L381.1236,406.3624 L382.8638,406.6099 L384.3598,406.0533 L385.4873,404.5012 L387.2638,405.1689 L388.8951,405.9851 L389.4583,406.6528 L389.8378,407.1159 L389.6057,408.7494 L391.6044,410.6238 L393.6009,412.4971 L395.1706,414.3033 L396.8129,417.0489 L396.7997,417.0544 L396.0286,417.9509 L395.8317,418.8232 L396.0902,419.8671 L396.8129,421.3026 L397.7446,420.1586 L397.1803,418.0928 L397.1803,418.0807 L398.9579,418.7121 L402.4515,421.3026 L403.2853,422.5148 L406.054,429.5933 L405.8824,429.8958 L405.0255,433.7425 L405.1476,434.1616 L405.1729,434.2243 L405.8824,435.695 L406.054,436.289 L405.4666,437.3329 L404.3875,438.1678 L403.7385,439.0951 L404.5107,440.4426 L405.2455,441.4128 L405.5029,442.174 L405.5403,442.2719 L405.9814,443.1387 L407.0847,444.1199 L405.4666,445.2892 L405.6129,445.87 L405.7603,446.4563 L406.9736,446.7104 L408.188,445.1528 L409.1186,445.1528 L409.1307,445.1583 L410.2835,451.2842 L410.2472,453.5403 L411.301,453.5403 L411.301,453.4842 L411.4231,451.3579 L411.7905,449.2569 L412.4285,447.4639 L413.3602,446.1912 L413.3602,445.1583 L413.2744,444.9185 L412.9433,443.9659 L413.2128,443.4907 L414.0466,443.8427 L415.3952,445.1528 L415.8594,446.3518 L416.2037,449.5715 L418.5192,453.262 L422.2823,466.1837 L421.5728,501.882 L421.9402,504.2844 L423.4846,509.6502 L423.7299,512.8116 L422.8708,518.8451 L415.9342,542.9263 L415.5415,545.4079 L415.3952,548.6925 L414.8793,551.4315 L412.7101,555.6599 L412.2327,557.5475 L411.3736,560.1391 L408.4575,564.7118 L407.0847,566.859 L408.1132,570.5484 L406.4588,574.9286 L396.88,590.1119 L395.5413,589.6653 L391.8838,588.518 L389.3769,585.6536 L387.4464,585.3874 L385.7194,585.2741 L381.2204,579.7235 L385.143,524.0756 L384.3961,521.0759 L382.5899,518.481 L382.5745,515.5484 L381.5306,512.6301 L382.2324,509.6348 L382.5283,506.7847 L378.0766,504.0985 L372.7053,502.7103 L371.9276,502.0195 L370.9926,501.4629 L369.8728,501.4629 L368.6584,500.9294 L367.4913,498.8471 L366.8841,496.4931 L364.9371,492.9489 L366.6971,488.2387 L369.8409,484.5075 L372.2851,482.577 L369.0159,478.0428 L368.5803,474.778 L366.4793,471.0996 L363.1474,468.1989 L362.5413,465.2729 L362.758,461.6473 L360.9683,453.6492 L361.2642,451.6087 L360.2676,451.4327 L359.3183,450.8552 L361.5436,447.3935 L358.5868,446.5883 L354.8193,448.6101 L352.9988,449.2459 L351.3323,449.9917 L350.7713,451.4118 L349.745,453.0376 L347.6583,453.5788 L346.1183,453.6954 L346.1491,455.682 L346.9741,457.4717 L347.1457,459.257 L346.4604,460.7519 L345.4165,462.0158 L344.7169,463.0817 L341.6655,464.7768 L337.9299,464.6085 L337.9453,470.4396 L338.7395,476.1046 L335.9378,478.1572 L332.8864,479.2187 L331.5631,476.7514 L330.3795,473.8133 L329.8515,471.0908 L328.4963,468.3518 L327.4535,466.5907 L326.8309,465.2399 L324.9785,464.8879 L323.6717,465.2058 L321.4134,462.9728 L319.748,459.4176 L318.7679,452.7351 L318.1607,450.8431 L317.7097,448.9709 L318.1299,447.6047 L318.9692,446.0394 L320.5576,438.6562 L319.9812,431.0607 L313.2877,429.6043 L305.8946,433.7568 L302.6881,436.7246 L300.8654,437.4275 L299.3562,437.7773 L296.6161,438.742 L292.9124,432.5446 L291.7134,428.9014 L291.5099,426.4242 L290.5298,424.2605 L288.2572,422.8591 L287.837,422.4587 L289.2846,415.2658 L288.9579,412.3409 L287.8678,408.9155 L287.9778,406.3756 L290.8103,406.3668 L296.4291,405.8256 L299.1846,405.3372 L304.6637,407.4503 L309.1165,411.9306 L316.4007,414.1977 L319.9504,416.2316 L322.8929,416.5847 L323.2504,415.0183 L323.9511,413.2396 L324.9169,412.2265 L325.7419,410.5963 L325.2744,407.007 L325.9597,403.5871 L323.8257,391.827 L325.1501,380.1241 L326.2864,375.7076 L329.6645,373.4251 L333.9765,372.8234 L339.4402,373.5461 L340.8262,373.4405 L339.5799,367.7744 L337.0587,362.2799 L335.9532,356.6798 L337.1665,332.6877 L336.3734,324.7534 L334.0392,324.7688 L332.1549,324.7655 L330.7854,326.2439 L329.7888,328.06 L328.6525,328.9136 L327.6097,329.8222 L326.6604,333.8009 L325.897,335.2562 L323.7652,340.2524 L319.9812,341.1137 L319.2497,340.8662 L318.659,340.4416 L320.4014,339.3405 L321.211,337.4463 L320.6819,334.5566 L320.7446,332.5942 L320.5114,330.6593 L319.4367,329.138 L317.5381,329.2832 L314.8761,327.9148 L312.4484,326.0393 L309.9415,324.6159 L307.2487,324.6115 L295.8384,321.8164 L289.487,322.4412 L287.6038,320.5459 L286.9801,317.3757 L284.6778,315.5585 L282.2336,314.6147 L280.4736,312.0033 L278.2175,312.6644 L281.4856,300.9692 L281.8288,299.0541 L282.4514,297.216 L284.3038,295.3834 L286.4521,293.9908 L287.6973,291.7435 L286.6853,289.4027 L284.9418,288.053 L283.5866,286.3337 L281.4713,281.277 L277.4849,275.3304 L276.8623,271.6982 L275.2596,270.1307 L273.9825,268.6754 L273.8582,265.5646 L276.1935,260.0932 L275.0418,256.9164 L272.2555,250.7894 L272.162,244.2422 L274.7151,240.4659 L276.474,236.5114 L275.0418,235.4202 L273.8274,233.7823 L271.5075,231.2303 L264.9548,226.6367 L261.1092,224.4543 L256.6883,224.3564 L252.439,226.101 L253.1078,223.4346 L254.3541,221.2632 L260.2688,218.4978 L267.2428,217.5925 L270.1226,216.7565 L272.7373,215.2044 L275.6325,214.3772 L278.0151,213.3256 L278.0261,213.3201 Z" id="Stroke-2" stroke="#0C0E0F" stroke-width="0.55" fill="#FCFDFC" stroke-linecap="round" stroke-linejoin="round"></path>
        <path d="M95.9629,200.0959 L94.2843,199.4315 L93.5363,197.9674 L94.0137,196.5022 L95.9629,195.8323 L102.6927,195.8323 L105.6704,196.6023 L108.7471,197.3965 L115.17,199.8539 L121.2992,203.4289 L126.4461,208.4306 L126.434,208.424 L123.97,207.9092 L119.6316,205.7499 L117.0818,205.3033 L120.9923,209.7704 L124.069,213.2948 L125.4165,215.7148 L121.814,215.2561 L119.46,213.4312 L117.8419,211.4457 L116.6286,210.503 L115.0721,209.7088 L108.8703,204.1615 L105.7936,202.7832 L102.7169,201.406 L100.4619,200.7911 L99.2596,200.4622 L95.9629,200.0959 Z M123.3331,117.3836 L121.0044,115.6874 L118.6757,112.1872 L115.0237,104.87 L116.6902,102.252 L117.0697,98.9014 L118.0135,96.1833 L121.2992,95.4738 L123.0394,96.0029 L123.0636,96.0095 L123.2099,97.2965 L122.6225,99.0928 L122.2177,101.1707 L122.2793,103.2662 L122.4993,104.9382 L122.5125,105.0372 L122.6467,105.3738 L123.1615,106.586 L123.8479,107.3758 L124.3869,107.9973 L125.0249,108.159 L127.9421,107.9973 L128.4327,108.4505 L128.6527,110.7451 L129.0201,111.6966 L130.7361,112.7845 L133.0648,113.7855 L135.014,114.8976 L135.1735,115.2463 L135.6883,116.3397 L134.6466,117.421 L132.6611,117.4331 L130.5282,116.7687 L129.0201,115.8172 L127.9542,115.5565 L125.246,117.1603 L123.3452,117.3836 L123.3331,117.3836 Z M98.4764,135.3015 L97.2741,136.4565 L96.0487,137.6126 L92.2493,137.837 L88.7194,136.6622 L87.175,134.7361 L87.175,128.4782 L87.6161,126.8744 L88.6094,127.0801 L89.639,128.366 L90.2638,129.9885 L92.862,130.8091 L95.9629,131.0445 L96.7351,131.611 L98.4764,135.3015 Z M233.3023,142.2392 L251.1377,156.7537 L251.2972,157.0265 L252.351,158.803 L254.0428,160.9139 L257.2779,163.9697 L259.3371,166.6471 L257.5111,167.6096 L257.499,167.6151 L256.4694,167.1498 L256.3473,167.0937 L256.322,167.0882 L254.7413,165.0378 L253.8712,164.5912 L253.858,164.5791 L251.1377,164.1314 L249.9486,164.4922 L250.5371,165.7088 L250.7329,166.0938 L258.5539,173.4088 L261.6053,175.0918 L261.6174,175.0973 L260.4041,173.2042 L259.6682,171.4783 L260.0488,170.1924 L262.1322,169.7018 L263.1123,170.3662 L264.7062,175.0973 L266.1648,178.0101 L271.8892,189.482 L270.7364,189.0607 L267.5497,187.8749 L265.5521,187.8375 L264.7062,190.01 L265.8832,190.5622 L268.334,190.9659 L270.5164,192.3442 L270.5406,192.5301 L270.8596,195.8323 L271.8892,195.8323 L272.3919,194.9567 L272.8451,194.5783 L273.3588,194.3308 L274.0463,193.8457 L274.0463,193.8578 L274.8185,196.8872 L274.9043,197.2656 L277.0361,202.1496 L279.8928,206.5309 L282.7979,208.4306 L283.019,208.611 L283.3611,208.9025 L283.3501,209.9695 L282.6505,211.042 L281.2535,211.5458 L280.8487,211.0981 L279.1943,208.4306 L277.3925,207.4747 L273.262,206.4077 L270.8596,205.3033 L271.9629,206.8422 L272.5756,207.698 L278.0173,212.8108 L278.0261,213.3201 L278.0151,213.3256 L275.6325,214.3772 L272.7373,215.2044 L270.1226,216.7565 L267.2428,217.5925 L260.2688,218.4978 L254.3541,221.2632 L253.1078,223.4346 L252.439,226.101 L248.2986,226.8886 L244.3441,228.0194 L239.9694,231.0884 L228.7626,231.4778 L229.042,234.8218 L232.9657,236.1847 L235.7355,239.7762 L236.9972,243.7219 L233.4167,246.5654 L231.2992,249.1603 L229.4787,251.9631 L226.1941,255.8142 L222.3804,259.255 L218.3643,262.3295 L213.5694,262.3647 L211.0163,260.5387 L208.23,259.0537 L203.6386,261.1679 L197.7074,268.8954 L194.9057,275.4602 L192.2283,276.6284 L189.9238,280.7963 L188.4608,280.7094 L186.8889,280.2694 L183.7132,278.5688 L182.1094,275.3425 L181.5495,273.2756 L180.5837,271.399 L178.3584,270.3793 L176.0704,269.5917 L174.5282,265.3017 L174.4666,260.3528 L159.819,264.2072 L152.4248,264.1841 L145.7159,261.4429 L146.9138,270.3716 L146.6025,284.4879 L145.1549,284.3185 L143.9097,283.7014 L139.8936,281.4343 L136.0326,279.7931 L131.5809,279.3795 L127.6121,277.8615 L125.8851,276.8583 L126.4461,276.25 L126.6914,275.5009 L128.1874,270.8391 L128.3953,270.6411 L128.5053,270.5355 L128.8364,269.1715 L130.2345,266.1223 L131.5699,251.2921 L127.9421,241.8299 L128.2358,240.1865 L128.5053,229.3944 L128.5053,229.2514 L128.1379,225.6412 L127.6968,223.8669 L126.9125,222.5271 L126.2998,221.0014 L127.6968,220.2435 L129.7186,219.8651 L131.0551,219.4559 L139.7946,211.5458 L144.3541,209.293 L146.2538,207.6243 L147.2592,203.9129 L149.061,200.0959 L150.0906,194.7895 L154.9317,182.2132 L155.1033,181.518 L155.5576,179.6799 L156.4882,175.9608 L156.4882,167.0937 L156.8193,165.7957 L156.5256,164.9201 L154.7601,164.5791 L150.6054,162.4055 L148.9873,160.8897 L147.9698,158.0198 L147.7982,157.4984 L147.0755,153.9201 L147.0018,151.8895 L148.8036,149.9821 L152.1377,148.3112 L155.8392,147.1254 L158.8785,146.6711 L160.2392,145.9693 L163.548,141.5583 L163.9286,141.2723 L164.505,140.8257 L165.6072,140.1668 L166.969,139.6575 L168.6971,139.3836 L167.2627,136.7249 L166.4047,135.5556 L165.5346,134.3874 L163.3159,132.1885 L160.3866,129.9885 L149.2447,123.4127 L147.0018,120.6099 L151.855,120.765 L156.4519,122.6174 L165.5225,127.9128 L174.1762,130.1007 L176.4554,131.567 L180.0216,134.6987 L180.9049,136.352 L179.0657,137.2958 L179.4705,138.3397 L180.0095,139.3836 L179.0657,140.4143 L179.0778,140.4209 L182.2282,142.5527 L189.6686,140.7256 L203.2745,135.3015 L206.9386,135.6557 L214.9675,137.8799 L224.4418,142.1666 L231.5874,143.546 L231.6116,143.546 L221.3651,136.4884 L217.8352,134.8472 L214.6969,134.1641 L214.2316,133.9463 L213.7773,133.7296 L211.057,131.6539 L210.0274,131.0445 L208.9978,130.8828 L207.7603,130.9455 L205.8969,131.0445 L204.7199,131.4988 L204.5483,131.7595 L204.2183,132.3128 L203.6287,132.6175 L201.6311,131.1325 L200.8347,130.995 L195.9441,131.1259 L194.5471,130.7156 L183.8342,121.3931 L179.2384,118.4033 L179.2252,118.4033 L177.5818,117.6762 L169.8367,114.2695 L167.0416,112.647 L165.1672,112.6228 L165.5225,116.3397 L166.5642,117.4331 L168.1823,118.6706 L169.1382,120.1809 L168.1823,122.1323 L167.0416,122.481 L165.9394,121.8837 L164.934,121.0389 L162.041,119.5286 L156.4145,114.5995 L153.1794,113.2069 L153.1915,113.219 L154.8338,115.034 L157.8005,117.608 L159.4428,119.4725 L155.7897,118.7641 L152.1861,117.2538 L144.9426,113.2069 L139.1698,108.6441 L135.7378,107.4253 L135.3946,107.2141 L134.0944,106.3682 L132.8811,105.8776 L132.6974,106.9589 L131.043,105.8215 L130.4182,104.3475 L130.1234,102.5886 L129.536,100.5987 L128.5427,98.9014 L127.9542,98.1303 L126.4098,96.103 L125.4165,94.343 L128.6769,92.7007 L134.6103,87.1842 L137.2822,85.9907 L137.2943,85.9907 L149.061,87.0357 L155.2012,86.3449 L157.4452,86.6056 L158.3274,88.6461 L158.18,91.8493 L158.6211,92.9625 L159.9081,93.3849 L161.1588,93.5653 L164.7624,94.4981 L165.5225,94.9084 L166.1968,96.2526 L167.8138,96.1954 L169.0887,95.8038 L169.5793,95.6553 L170.3141,95.5486 L170.8289,95.4738 L170.8421,95.4804 L172.0059,96.1646 L172.5086,96.4572 L176.7249,101.0706 L190.0118,115.5939 L194.6934,118.5529 L205.5526,123.5865 L205.8969,123.7361 L205.8969,122.6053 L200.4299,119.8267 L187.1925,108.9422 L176.3454,96.3637 L170.8289,93.3915 L162.1884,91.3323 L159.9081,89.6911 L159.6144,87.3712 L162.7769,85.9907 L163.8065,85.8158 L166.9437,85.2878 L173.1829,84.9765 L176.1859,85.543 L178.2693,87.0159 L179.6542,92.0165 L181.0391,94.1065 L200.761,117.3836 L203.6661,119.5286 L209.55,122.9034 L233.3023,142.2392 L233.3023,142.2392 Z" id="Fill-3" fill="#EBEDED" opacity="0.128742036"></path>
        <path d="M95.9629,200.0959 L94.2843,199.4315 L93.5363,197.9674 L94.0137,196.5022 L95.9629,195.8323 L102.6927,195.8323 L105.6704,196.6023 L108.7471,197.3965 L115.17,199.8539 L121.2992,203.4289 L126.4461,208.4306 L126.434,208.424 L123.97,207.9092 L119.6316,205.7499 L117.0818,205.3033 L120.9923,209.7704 L124.069,213.2948 L125.4165,215.7148 L121.814,215.2561 L119.46,213.4312 L117.8419,211.4457 L116.6286,210.503 L115.0721,209.7088 L108.8703,204.1615 L105.7936,202.7832 L102.7169,201.406 L100.4619,200.7911 L99.2596,200.4622 L95.9629,200.0959 Z M123.3331,117.3836 L121.0044,115.6874 L118.6757,112.1872 L115.0237,104.87 L116.6902,102.252 L117.0697,98.9014 L118.0135,96.1833 L121.2992,95.4738 L123.0394,96.0029 L123.0636,96.0095 L123.2099,97.2965 L122.6225,99.0928 L122.2177,101.1707 L122.2793,103.2662 L122.4993,104.9382 L122.5125,105.0372 L122.6467,105.3738 L123.1615,106.586 L123.8479,107.3758 L124.3869,107.9973 L125.0249,108.159 L127.9421,107.9973 L128.4327,108.4505 L128.6527,110.7451 L129.0201,111.6966 L130.7361,112.7845 L133.0648,113.7855 L135.014,114.8976 L135.1735,115.2463 L135.6883,116.3397 L134.6466,117.421 L132.6611,117.4331 L130.5282,116.7687 L129.0201,115.8172 L127.9542,115.5565 L125.246,117.1603 L123.3452,117.3836 L123.3331,117.3836 Z M98.4764,135.3015 L97.2741,136.4565 L96.0487,137.6126 L92.2493,137.837 L88.7194,136.6622 L87.175,134.7361 L87.175,128.4782 L87.6161,126.8744 L88.6094,127.0801 L89.639,128.366 L90.2638,129.9885 L92.862,130.8091 L95.9629,131.0445 L96.7351,131.611 L98.4764,135.3015 Z M233.3023,142.2392 L251.1377,156.7537 L251.2972,157.0265 L252.351,158.803 L254.0428,160.9139 L257.2779,163.9697 L259.3371,166.6471 L257.5111,167.6096 L257.499,167.6151 L256.4694,167.1498 L256.3473,167.0937 L256.322,167.0882 L254.7413,165.0378 L253.8712,164.5912 L253.858,164.5791 L251.1377,164.1314 L249.9486,164.4922 L250.5371,165.7088 L250.7329,166.0938 L258.5539,173.4088 L261.6053,175.0918 L261.6174,175.0973 L260.4041,173.2042 L259.6682,171.4783 L260.0488,170.1924 L262.1322,169.7018 L263.1123,170.3662 L264.7062,175.0973 L266.1648,178.0101 L271.8892,189.482 L270.7364,189.0607 L267.5497,187.8749 L265.5521,187.8375 L264.7062,190.01 L265.8832,190.5622 L268.334,190.9659 L270.5164,192.3442 L270.5406,192.5301 L270.8596,195.8323 L271.8892,195.8323 L272.3919,194.9567 L272.8451,194.5783 L273.3588,194.3308 L274.0463,193.8457 L274.0463,193.8578 L274.8185,196.8872 L274.9043,197.2656 L277.0361,202.1496 L279.8928,206.5309 L282.7979,208.4306 L283.019,208.611 L283.3611,208.9025 L283.3501,209.9695 L282.6505,211.042 L281.2535,211.5458 L280.8487,211.0981 L279.1943,208.4306 L277.3925,207.4747 L273.262,206.4077 L270.8596,205.3033 L271.9629,206.8422 L272.5756,207.698 L278.0173,212.8108 L278.0261,213.3201 L278.0151,213.3256 L275.6325,214.3772 L272.7373,215.2044 L270.1226,216.7565 L267.2428,217.5925 L260.2688,218.4978 L254.3541,221.2632 L253.1078,223.4346 L252.439,226.101 L248.2986,226.8886 L244.3441,228.0194 L239.9694,231.0884 L228.7626,231.4778 L229.042,234.8218 L232.9657,236.1847 L235.7355,239.7762 L236.9972,243.7219 L233.4167,246.5654 L231.2992,249.1603 L229.4787,251.9631 L226.1941,255.8142 L222.3804,259.255 L218.3643,262.3295 L213.5694,262.3647 L211.0163,260.5387 L208.23,259.0537 L203.6386,261.1679 L197.7074,268.8954 L194.9057,275.4602 L192.2283,276.6284 L189.9238,280.7963 L188.4608,280.7094 L186.8889,280.2694 L183.7132,278.5688 L182.1094,275.3425 L181.5495,273.2756 L180.5837,271.399 L178.3584,270.3793 L176.0704,269.5917 L174.5282,265.3017 L174.4666,260.3528 L159.819,264.2072 L152.4248,264.1841 L145.7159,261.4429 L146.9138,270.3716 L146.6025,284.4879 L145.1549,284.3185 L143.9097,283.7014 L139.8936,281.4343 L136.0326,279.7931 L131.5809,279.3795 L127.6121,277.8615 L125.8851,276.8583 L126.4461,276.25 L126.6914,275.5009 L128.1874,270.8391 L128.3953,270.6411 L128.5053,270.5355 L128.8364,269.1715 L130.2345,266.1223 L131.5699,251.2921 L127.9421,241.8299 L128.2358,240.1865 L128.5053,229.3944 L128.5053,229.2514 L128.1379,225.6412 L127.6968,223.8669 L126.9125,222.5271 L126.2998,221.0014 L127.6968,220.2435 L129.7186,219.8651 L131.0551,219.4559 L139.7946,211.5458 L144.3541,209.293 L146.2538,207.6243 L147.2592,203.9129 L149.061,200.0959 L150.0906,194.7895 L154.9317,182.2132 L155.1033,181.518 L155.5576,179.6799 L156.4882,175.9608 L156.4882,167.0937 L156.8193,165.7957 L156.5256,164.9201 L154.7601,164.5791 L150.6054,162.4055 L148.9873,160.8897 L147.9698,158.0198 L147.7982,157.4984 L147.0755,153.9201 L147.0018,151.8895 L148.8036,149.9821 L152.1377,148.3112 L155.8392,147.1254 L158.8785,146.6711 L160.2392,145.9693 L163.548,141.5583 L163.9286,141.2723 L164.505,140.8257 L165.6072,140.1668 L166.969,139.6575 L168.6971,139.3836 L167.2627,136.7249 L166.4047,135.5556 L165.5346,134.3874 L163.3159,132.1885 L160.3866,129.9885 L149.2447,123.4127 L147.0018,120.6099 L151.855,120.765 L156.4519,122.6174 L165.5225,127.9128 L174.1762,130.1007 L176.4554,131.567 L180.0216,134.6987 L180.9049,136.352 L179.0657,137.2958 L179.4705,138.3397 L180.0095,139.3836 L179.0657,140.4143 L179.0778,140.4209 L182.2282,142.5527 L189.6686,140.7256 L203.2745,135.3015 L206.9386,135.6557 L214.9675,137.8799 L224.4418,142.1666 L231.5874,143.546 L231.6116,143.546 L221.3651,136.4884 L217.8352,134.8472 L214.6969,134.1641 L214.2316,133.9463 L213.7773,133.7296 L211.057,131.6539 L210.0274,131.0445 L208.9978,130.8828 L207.7603,130.9455 L205.8969,131.0445 L204.7199,131.4988 L204.5483,131.7595 L204.2183,132.3128 L203.6287,132.6175 L201.6311,131.1325 L200.8347,130.995 L195.9441,131.1259 L194.5471,130.7156 L183.8342,121.3931 L179.2384,118.4033 L179.2252,118.4033 L177.5818,117.6762 L169.8367,114.2695 L167.0416,112.647 L165.1672,112.6228 L165.5225,116.3397 L166.5642,117.4331 L168.1823,118.6706 L169.1382,120.1809 L168.1823,122.1323 L167.0416,122.481 L165.9394,121.8837 L164.934,121.0389 L162.041,119.5286 L156.4145,114.5995 L153.1794,113.2069 L153.1915,113.219 L154.8338,115.034 L157.8005,117.608 L159.4428,119.4725 L155.7897,118.7641 L152.1861,117.2538 L144.9426,113.2069 L139.1698,108.6441 L135.7378,107.4253 L135.3946,107.2141 L134.0944,106.3682 L132.8811,105.8776 L132.6974,106.9589 L131.043,105.8215 L130.4182,104.3475 L130.1234,102.5886 L129.536,100.5987 L128.5427,98.9014 L127.9542,98.1303 L126.4098,96.103 L125.4165,94.343 L128.6769,92.7007 L134.6103,87.1842 L137.2822,85.9907 L137.2943,85.9907 L149.061,87.0357 L155.2012,86.3449 L157.4452,86.6056 L158.3274,88.6461 L158.18,91.8493 L158.6211,92.9625 L159.9081,93.3849 L161.1588,93.5653 L164.7624,94.4981 L165.5225,94.9084 L166.1968,96.2526 L167.8138,96.1954 L169.0887,95.8038 L169.5793,95.6553 L170.3141,95.5486 L170.8289,95.4738 L170.8421,95.4804 L172.0059,96.1646 L172.5086,96.4572 L176.7249,101.0706 L190.0118,115.5939 L194.6934,118.5529 L205.5526,123.5865 L205.8969,123.7361 L205.8969,122.6053 L200.4299,119.8267 L187.1925,108.9422 L176.3454,96.3637 L170.8289,93.3915 L162.1884,91.3323 L159.9081,89.6911 L159.6144,87.3712 L162.7769,85.9907 L163.8065,85.8158 L166.9437,85.2878 L173.1829,84.9765 L176.1859,85.543 L178.2693,87.0159 L179.6542,92.0165 L181.0391,94.1065 L200.761,117.3836 L203.6661,119.5286 L209.55,122.9034 L233.3023,142.2392 Z" id="Stroke-4" stroke="#0C0E0F" stroke-width="0.55" stroke-linecap="round" stroke-linejoin="round"></path>
        <polyline id="Fill-6" fill="#FFFFFE" points="113.0976 473.942 106.59 426.279 105.6704 424.3133 106.2963 423.6456 106.7616 423.5774 107.8407 424.3133 108.086 421.6865 108.8329 418.6373 109.2014 415.7124 108.3555 413.4244 107.2148 411.3289 106.7737 408.5448 106.7858 402.9425 103.3175 385.9002 102.9127 383.9323 101.123 380.189 99.6039 372.3251 97.1399 366.1189 93.3526 348.9677 93.3526 344.0958 93.9653 344.3741 94.0027 344.417 94.0511 344.461 94.0511 344.6161 94.3822 345.1364 94.9212 342.3072 94.1248 333.3169 93.3526 330.5922 95.8287 328.9576 98.1695 325.9293 99.8613 322.4808 100.5356 319.5812 101.222 317.687 105.6704 310.6569 105.622 310.7746 103.3791 316.0821 100.5356 321.1421 101.1604 322.3752 101.3199 322.6777 102.4353 323.7931 103.8939 324.375 105.6704 324.3629 104.2118 328.4989 102.6927 331.5338 102.0305 332.0596 101.332 332.1344 100.7798 332.5612 100.5356 334.1771 100.6698 337.7741 100.5356 338.895 97.9858 347.0493 98.2795 351.5802 101.6631 355.6095 98.6469 361.9224 103.4528 365.4193 110.4389 365.9704 113.9941 363.4514 113.3187 360.741 112.1791 358.618 111.738 357.8062 111.199 357.1385 109.8625 355.4555 108.3555 354.4897 107.9144 352.843 112.9876 343.1487 112.7918 341.3909 112.1428 340.0907 111.3948 339.0006 110.9295 337.8621 110.8063 336.0284 110.9779 332.8703 110.9295 331.5701 110.9295 331.5338 110.8437 331.2852 110.4389 330.2028 110.1936 329.9795 109.8999 329.7012 109.6051 329.0819 109.8999 327.3791 110.6105 325.9359 112.5839 323.3476 112.9876 321.6624 113.3077 318.479 114.7168 312.1056 116.1512 297.238 117.0697 295.5473 118.063 294.7102 118.8231 293.7004 119.141 291.4762 119.141 285.1369 120.0111 282.0261 122.0582 280.0241 124.4859 278.3697 125.8851 276.8583 127.6121 277.8615 131.5809 279.3795 136.0326 279.7931 139.8936 281.4343 143.9097 283.7014 144.7655 289.989 142.0265 295.8157 137.3251 299.6712 137.1227 300.7415 136.4374 302.1066 133.8997 303.2792 132.2497 307.0511 134.4607 311.3191 138.2117 326.6641 139.1456 329.3657 142.2751 329.3503 144.8128 328.1942 147.5056 330.2193 150.5559 330.1093 152.7823 331.8946 154.4642 334.0726 157.7169 335.8854 171.6022 342.2731 174.5755 343.02 177.4553 344.1805 179.7125 345.8074 182.4988 346.2199 187.495 348.1504 192.0259 351.8376 194.4844 354.3214 197.2091 356.0121 200.0427 355.9175 202.3153 357.7886 202.3615 359.6905 202.0964 361.6078 202.5331 364.855 202.3307 367.6215 202.6112 370.2659 204.7122 371.1492 207.1399 371.3263 208.3862 373.4207 208.7756 375.9672 210.1913 379.4916 210.9382 383.0864 210.3629 388.3664 214.192 392.0503 213.4913 394.533 213.8807 397.1961 215.2194 397.9496 216.3557 398.2686 217.4304 400.6325 218.9242 403.146 219.9516 405.7541 219.9989 408.3732 220.5434 408.7549 221.3057 409.8461 221.7424 414.9237 222.5828 419.6284 225.3372 422.33 225.2756 424.112 224.84 425.9061 224.8708 427.2877 224.3263 428.5912 222.1934 430.5415 221.8194 433.7491 223.3297 436.7961 224.2482 438.3152 225.0105 439.9168 225.4307 441.8154 225.1194 443.6524 224.279 444.7986 224.202 446.3694 222.3958 447.2054 220.6215 447.6641 221.8359 449.5913 222.7379 451.656 221.1187 452.4326 218.955 452.0564 216.7451 453.2884 216.9783 454.9835 216.7605 456.5609 214.1766 456.3651 211.8413 454.692 209.6776 454.6964 209.1947 457.7346 208.5567 458.5618 208.043 459.4539 208.1673 460.4461 208.417 461.1523 205.7088 461.9487 202.5947 461.6077 201.2098 458.6795 199.0153 456.4036 195.4194 455.9141 192.1029 457.2396 191.5738 460.1205 191.7454 463.2357 191.2471 465.0287 190.157 466.4961 188.5543 466.5621 181.1909 468.2077 177.6577 469.8588 174.3577 472.2326 171.2436 475.0145 168.1779 476.7987 165.5467 474.8682 161.7957 470.5892 160.9234 469.3374 160.5032 468.0416 159.1337 466.5357 154.946 467.2848 151.2577 469.8984 146.8984 471.1964 142.7415 468.2583 139.1313 468.4112 133.3871 472.919 130.1795 474.1785 127.5494 473.1588 125.3384 474.536 123.5641 474.3193 122.397 473.0136 119.4853 473.3865 116.6836 474.1235 113.0976 473.942"></polyline>
        <polygon id="Stroke-7" stroke="#0C0E0F" stroke-width="0.55" stroke-linecap="round" stroke-linejoin="round" points="113.0976 473.942 106.59 426.279 105.6704 424.3133 106.2963 423.6456 106.7616 423.5774 107.8407 424.3133 108.086 421.6865 108.8329 418.6373 109.2014 415.7124 108.3555 413.4244 107.2148 411.3289 106.7737 408.5448 106.7858 402.9425 103.3175 385.9002 102.9127 383.9323 101.123 380.189 99.6039 372.3251 97.1399 366.1189 93.3526 348.9677 93.3526 344.0958 93.9653 344.3741 94.0027 344.417 94.0511 344.461 94.0511 344.6161 94.3822 345.1364 94.9212 342.3072 94.1248 333.3169 93.3526 330.5922 95.8287 328.9576 98.1695 325.9293 99.8613 322.4808 100.5356 319.5812 101.222 317.687 105.6704 310.6569 105.622 310.7746 103.3791 316.0821 100.5356 321.1421 101.1604 322.3752 101.3199 322.6777 102.4353 323.7931 103.8939 324.375 105.6704 324.3629 104.2118 328.4989 102.6927 331.5338 102.0305 332.0596 101.332 332.1344 100.7798 332.5612 100.5356 334.1771 100.6698 337.7741 100.5356 338.895 97.9858 347.0493 98.2795 351.5802 101.6631 355.6095 98.6469 361.9224 103.4528 365.4193 110.4389 365.9704 113.9941 363.4514 113.3187 360.741 112.1791 358.618 111.738 357.8062 111.199 357.1385 109.8625 355.4555 108.3555 354.4897 107.9144 352.843 112.9876 343.1487 112.7918 341.3909 112.1428 340.0907 111.3948 339.0006 110.9295 337.8621 110.8063 336.0284 110.9779 332.8703 110.9295 331.5701 110.9295 331.5338 110.8437 331.2852 110.4389 330.2028 110.1936 329.9795 109.8999 329.7012 109.6051 329.0819 109.8999 327.3791 110.6105 325.9359 112.5839 323.3476 112.9876 321.6624 113.3077 318.479 114.7168 312.1056 116.1512 297.238 117.0697 295.5473 118.063 294.7102 118.8231 293.7004 119.141 291.4762 119.141 285.1369 120.0111 282.0261 122.0582 280.0241 124.4859 278.3697 125.8851 276.8583 127.6121 277.8615 131.5809 279.3795 136.0326 279.7931 139.8936 281.4343 143.9097 283.7014 144.7655 289.989 142.0265 295.8157 137.3251 299.6712 137.1227 300.7415 136.4374 302.1066 133.8997 303.2792 132.2497 307.0511 134.4607 311.3191 138.2117 326.6641 139.1456 329.3657 142.2751 329.3503 144.8128 328.1942 147.5056 330.2193 150.5559 330.1093 152.7823 331.8946 154.4642 334.0726 157.7169 335.8854 171.6022 342.2731 174.5755 343.02 177.4553 344.1805 179.7125 345.8074 182.4988 346.2199 187.495 348.1504 192.0259 351.8376 194.4844 354.3214 197.2091 356.0121 200.0427 355.9175 202.3153 357.7886 202.3615 359.6905 202.0964 361.6078 202.5331 364.855 202.3307 367.6215 202.6112 370.2659 204.7122 371.1492 207.1399 371.3263 208.3862 373.4207 208.7756 375.9672 210.1913 379.4916 210.9382 383.0864 210.3629 388.3664 214.192 392.0503 213.4913 394.533 213.8807 397.1961 215.2194 397.9496 216.3557 398.2686 217.4304 400.6325 218.9242 403.146 219.9516 405.7541 219.9989 408.3732 220.5434 408.7549 221.3057 409.8461 221.7424 414.9237 222.5828 419.6284 225.3372 422.33 225.2756 424.112 224.84 425.9061 224.8708 427.2877 224.3263 428.5912 222.1934 430.5415 221.8194 433.7491 223.3297 436.7961 224.2482 438.3152 225.0105 439.9168 225.4307 441.8154 225.1194 443.6524 224.279 444.7986 224.202 446.3694 222.3958 447.2054 220.6215 447.6641 221.8359 449.5913 222.7379 451.656 221.1187 452.4326 218.955 452.0564 216.7451 453.2884 216.9783 454.9835 216.7605 456.5609 214.1766 456.3651 211.8413 454.692 209.6776 454.6964 209.1947 457.7346 208.5567 458.5618 208.043 459.4539 208.1673 460.4461 208.417 461.1523 205.7088 461.9487 202.5947 461.6077 201.2098 458.6795 199.0153 456.4036 195.4194 455.9141 192.1029 457.2396 191.5738 460.1205 191.7454 463.2357 191.2471 465.0287 190.157 466.4961 188.5543 466.5621 181.1909 468.2077 177.6577 469.8588 174.3577 472.2326 171.2436 475.0145 168.1779 476.7987 165.5467 474.8682 161.7957 470.5892 160.9234 469.3374 160.5032 468.0416 159.1337 466.5357 154.946 467.2848 151.2577 469.8984 146.8984 471.1964 142.7415 468.2583 139.1313 468.4112 133.3871 472.919 130.1795 474.1785 127.5494 473.1588 125.3384 474.536 123.5641 474.3193 122.397 473.0136 119.4853 473.3865 116.6836 474.1235"></polygon>
        <polyline id="Fill-8" fill="#FFFFFE" points="116.3228 521.154 117.8177 517.5548 118.2104 515.8256 118.173 514.0656 118.173 514.0348 110.9658 488.4059 111.9591 484.6439 111.9096 486.9594 112.4739 488.418 113.2824 489.5422 113.9941 490.8699 115.4395 495.953 116.1512 497.1762 117.0818 497.1762 117.3029 495.7242 117.7319 495.1137 118.1114 495.0147 118.1235 495.0147 118.2104 495.095 118.173 490.4563 118.173 490.4255 117.8419 488.3927 117.0818 486.7196 116.3712 486.2301 114.3857 485.7989 113.5035 485.206 113.4045 484.9948 112.8655 483.9025 113.1108 482.6969 113.6872 481.5738 113.9941 480.498 113.0976 473.942 116.6836 474.1235 119.4853 473.3865 122.397 473.0136 123.5641 474.3193 125.3384 474.536 127.5494 473.1588 130.1795 474.1785 133.3871 472.919 139.1313 468.4112 142.7415 468.2583 146.8984 471.1964 151.2577 469.8984 154.946 467.2848 159.1337 466.5357 160.5032 468.0416 160.9234 469.3374 161.7957 470.5892 165.5467 474.8682 168.1779 476.7987 168.4265 478.815 166.9481 479.992 166.5433 485.2104 164.582 487.0562 162.2005 488.2926 161.5614 492.5914 163.3984 496.3963 167.0724 495.5218 170.2481 496.4502 169.1118 499.0275 166.9327 500.5367 165.0176 504.9576 164.2388 509.3752 166.4806 516.5791 166.5125 517.9629 166.0604 519.2103 169.3296 519.4292 171.9289 520.7547 172.3964 523.5146 170.3878 525.3967 170.5902 526.863 170.6683 528.3414 168.7378 530.7042 167.1032 533.2991 166.4652 535.4122 165.6875 537.2107 169.3912 541.1498 166.0758 544.1253 166.5741 547.2482 169.2053 554.209 168.9875 556.6301 169.9522 559.4835 171.4152 562.5162 176.0077 566.9789 176.8954 571.3987 178.5608 572.9618 180.6618 573.7758 184.0245 576.8514 186.2036 581.0237 183.931 581.8971 184.7241 584.4711 191.0909 593.4361 196.5403 602.9148 191.169 604.1446 185.9077 607.3995 183.1214 608.6282 183.1214 611.8743 184.2577 615.171 183.9618 618.2103 181.6111 616.3271 179.2923 614.0875 174.8406 610.661 170.2635 611.0526 166.1539 613.3626 159.632 612.1218 157.1251 610.4366 154.6974 608.2993 151.7087 606.9925 148.9532 606.4315 143.4268 603.863 142.6634 602.5661 141.559 601.5046 140.0333 602.1118 139.0532 602.7894 138.1809 601.9787 137.3724 600.8391 136.3252 600.6081 135.6883 598.0066 135.3693 597.7525 134.7203 597.3587 134.046 596.7669 133.6291 595.9331 133.8007 595.0454 134.5366 594.8298 135.3077 594.9156 135.3209 594.9156 135.6883 594.8969 134.5366 586.9461 134.4376 586.3114 131.3004 578.2418 118.3941 545.0867 116.347 533.6302 116.1512 532.495 116.1512 521.5797 116.3228 521.154"></polyline>
        <polygon id="Stroke-9" stroke="#0C0E0F" stroke-width="0.55" stroke-linecap="round" stroke-linejoin="round" points="116.3228 521.154 117.8177 517.5548 118.2104 515.8256 118.173 514.0656 118.173 514.0348 110.9658 488.4059 111.9591 484.6439 111.9096 486.9594 112.4739 488.418 113.2824 489.5422 113.9941 490.8699 115.4395 495.953 116.1512 497.1762 117.0818 497.1762 117.3029 495.7242 117.7319 495.1137 118.1114 495.0147 118.1235 495.0147 118.2104 495.095 118.173 490.4563 118.173 490.4255 117.8419 488.3927 117.0818 486.7196 116.3712 486.2301 114.3857 485.7989 113.5035 485.206 113.4045 484.9948 112.8655 483.9025 113.1108 482.6969 113.6872 481.5738 113.9941 480.498 113.0976 473.942 116.6836 474.1235 119.4853 473.3865 122.397 473.0136 123.5641 474.3193 125.3384 474.536 127.5494 473.1588 130.1795 474.1785 133.3871 472.919 139.1313 468.4112 142.7415 468.2583 146.8984 471.1964 151.2577 469.8984 154.946 467.2848 159.1337 466.5357 160.5032 468.0416 160.9234 469.3374 161.7957 470.5892 165.5467 474.8682 168.1779 476.7987 168.4265 478.815 166.9481 479.992 166.5433 485.2104 164.582 487.0562 162.2005 488.2926 161.5614 492.5914 163.3984 496.3963 167.0724 495.5218 170.2481 496.4502 169.1118 499.0275 166.9327 500.5367 165.0176 504.9576 164.2388 509.3752 166.4806 516.5791 166.5125 517.9629 166.0604 519.2103 169.3296 519.4292 171.9289 520.7547 172.3964 523.5146 170.3878 525.3967 170.5902 526.863 170.6683 528.3414 168.7378 530.7042 167.1032 533.2991 166.4652 535.4122 165.6875 537.2107 169.3912 541.1498 166.0758 544.1253 166.5741 547.2482 169.2053 554.209 168.9875 556.6301 169.9522 559.4835 171.4152 562.5162 176.0077 566.9789 176.8954 571.3987 178.5608 572.9618 180.6618 573.7758 184.0245 576.8514 186.2036 581.0237 183.931 581.8971 184.7241 584.4711 191.0909 593.4361 196.5403 602.9148 191.169 604.1446 185.9077 607.3995 183.1214 608.6282 183.1214 611.8743 184.2577 615.171 183.9618 618.2103 181.6111 616.3271 179.2923 614.0875 174.8406 610.661 170.2635 611.0526 166.1539 613.3626 159.632 612.1218 157.1251 610.4366 154.6974 608.2993 151.7087 606.9925 148.9532 606.4315 143.4268 603.863 142.6634 602.5661 141.559 601.5046 140.0333 602.1118 139.0532 602.7894 138.1809 601.9787 137.3724 600.8391 136.3252 600.6081 135.6883 598.0066 135.3693 597.7525 134.7203 597.3587 134.046 596.7669 133.6291 595.9331 133.8007 595.0454 134.5366 594.8298 135.3077 594.9156 135.3209 594.9156 135.6883 594.8969 134.5366 586.9461 134.4376 586.3114 131.3004 578.2418 118.3941 545.0867 116.347 533.6302 116.1512 532.495 116.1512 521.5797"></polygon>
        <polyline id="Fill-10" fill="#FFFFFE" points="197.0056 672.9056 196.042 672.7659 195.3193 672.4458 194.8166 671.7297 194.1797 671.0224 193.0027 670.6957 192.3042 670.941 191.752 671.4349 191.1635 671.8529 190.3792 671.8287 190.1097 671.6076 189.8644 671.3909 188.9085 670.0291 188.4432 669.7453 188.32 669.6727 188.32 669.6595 187.2541 669.2833 180.8191 666.9733 178.1835 666.431 176.308 666.0361 173.0355 663.4049 172.2996 663.0485 170.8542 662.3456 170.8289 662.3324 169.7267 663.461 166.9195 661.1928 154.6501 648.1699 153.6447 647.3801 153.6326 647.3746 153.5226 647.2338 153.1794 646.8202 152.9957 646.1789 153.0452 644.8974 152.6646 644.2308 152.1498 643.5598 150.7891 641.7778 143.8393 627.0807 143.5456 625.6749 143.5456 625.6628 143.6193 623.1471 143.6193 623.135 143.3608 622.3705 142.1112 619.7624 140.8363 612.6894 138.0665 607.7196 136.3252 600.6081 137.3724 600.8391 138.1809 601.9787 139.0532 602.7894 140.0333 602.1118 141.559 601.5046 142.6634 602.5661 143.4268 603.863 148.9532 606.4315 151.7087 606.9925 154.6974 608.2993 157.1251 610.4366 159.632 612.1218 166.1539 613.3626 170.2635 611.0526 174.8406 610.661 179.2923 614.0875 181.6111 616.3271 183.9618 618.2103 184.2577 615.171 183.1214 611.8743 183.1214 608.6282 185.9077 607.3995 191.169 604.1446 196.5403 602.9148 198.3762 604.8178 200.431 606.5569 202.9687 607.5909 205.2105 607.6448 209.8954 609.9559 212.3242 609.8778 213.6156 611.75 216.5581 611.3265 219.516 610.6412 220.5588 608.186 223.1273 608.1662 229.7427 607.2928 231.9229 611.31 230.9263 614.005 233.6345 614.4868 237.2458 613.8796 238.9277 615.963 238.8023 617.3842 240.7328 618.8208 239.9386 619.6315 239.9386 621.0758 248.5472 622.7236 259.6 626.7496 262.4952 627.1962 265.3585 626.5109 268.2383 626.2326 270.5274 628.0333 272.2863 630.0727 277.8116 631.1936 280.9719 632.2386 281.7353 629.5755 280.3339 625.72 277.563 622.6257 281.2678 620.1958 285.0661 618.1388 289.3154 616.7539 292.5846 614.2756 291.137 610.8799 291.8696 607.4424 293.7671 607.4567 295.8076 607.3005 297.0528 605.5427 297.0209 603.533 298.8733 604.8607 300.3066 603.2283 304.0884 603.192 307.8251 603.6749 310.3925 604.5989 311.5442 607.3632 313.0391 607.5711 314.6572 607.4996 316.0289 606.5217 317.9264 606.3138 320.7446 610.0065 323.048 613.9181 326.8155 615.4889 330.9405 613.2284 332.42 611.7379 334.7234 610.7743 339.1135 609.6193 348.0642 606.1378 349.7142 604.9509 350.0871 605.3865 351.4115 605.5768 355.4265 604.1061 359.6296 605.0697 361.5909 601.85 361.5909 600.53 361.4974 599.2892 362.1827 598.352 362.8361 597.2828 362.0573 595.2467 361.9957 592.6848 364.969 590.3121 368.5495 588.694 371.2885 586.0496 374.4796 583.6208 378.5276 582.8651 381.2204 579.7235 385.7194 585.2741 387.4464 585.3874 389.3769 585.6536 391.8838 588.518 395.5413 589.6653 396.88 590.1119 392.2776 597.4082 387.5465 602.1503 378.807 608.3609 375.9514 609.2178 372.1278 611.2715 344.1691 633.2825 338.58 636.3163 320.4278 642.7766 320.4146 642.7766 320.1693 640.5887 320.1561 640.4578 319.0781 639.6075 319.055 639.6141 318.8086 639.6746 317.9022 639.9221 317.3258 641.1365 317.0321 643.6885 316.2104 644.6499 314.886 645.0074 313.1337 645.784 309.8612 647.7629 306.5887 649.2061 290.9126 652.5765 283.3116 655.1901 274.9769 656.7059 271.1775 658.1733 268.8983 661.3897 264.8162 660.5889 262.3038 661.5558 260.8826 662.1113 255.0845 666.4057 249.2864 670.6957 248.9245 671.1159 246.6156 673.801 240.4501 673.4369 240.4369 673.4314 237.8629 673.801 235.8532 674.5644 233.7819 675.7469 230.1167 678.4958 229.0629 678.7422 228.008 678.9765 225.5088 678.0096 222.86 676.6412 221.3409 676.1792 220.286 675.8646 211.5718 676.8997 209.0836 676.4135 207.8208 675.1628 207.0123 673.5172 206.3743 672.5558 205.8969 671.8353 203.3471 673.3192 201.0679 673.493 197.0056 672.9056"></polyline>
        <polygon id="Stroke-11" stroke="#0C0E0F" stroke-width="0.55" stroke-linecap="round" stroke-linejoin="round" points="197.0056 672.9056 196.042 672.7659 195.3193 672.4458 194.8166 671.7297 194.1797 671.0224 193.0027 670.6957 192.3042 670.941 191.752 671.4349 191.1635 671.8529 190.3792 671.8287 190.1097 671.6076 189.8644 671.3909 188.9085 670.0291 188.4432 669.7453 188.32 669.6727 188.32 669.6595 187.2541 669.2833 180.8191 666.9733 178.1835 666.431 176.308 666.0361 173.0355 663.4049 172.2996 663.0485 170.8542 662.3456 170.8289 662.3324 169.7267 663.461 166.9195 661.1928 154.6501 648.1699 153.6447 647.3801 153.6326 647.3746 153.5226 647.2338 153.1794 646.8202 152.9957 646.1789 153.0452 644.8974 152.6646 644.2308 152.1498 643.5598 150.7891 641.7778 143.8393 627.0807 143.5456 625.6749 143.5456 625.6628 143.6193 623.1471 143.6193 623.135 143.3608 622.3705 142.1112 619.7624 140.8363 612.6894 138.0665 607.7196 136.3252 600.6081 137.3724 600.8391 138.1809 601.9787 139.0532 602.7894 140.0333 602.1118 141.559 601.5046 142.6634 602.5661 143.4268 603.863 148.9532 606.4315 151.7087 606.9925 154.6974 608.2993 157.1251 610.4366 159.632 612.1218 166.1539 613.3626 170.2635 611.0526 174.8406 610.661 179.2923 614.0875 181.6111 616.3271 183.9618 618.2103 184.2577 615.171 183.1214 611.8743 183.1214 608.6282 185.9077 607.3995 191.169 604.1446 196.5403 602.9148 198.3762 604.8178 200.431 606.5569 202.9687 607.5909 205.2105 607.6448 209.8954 609.9559 212.3242 609.8778 213.6156 611.75 216.5581 611.3265 219.516 610.6412 220.5588 608.186 223.1273 608.1662 229.7427 607.2928 231.9229 611.31 230.9263 614.005 233.6345 614.4868 237.2458 613.8796 238.9277 615.963 238.8023 617.3842 240.7328 618.8208 239.9386 619.6315 239.9386 621.0758 248.5472 622.7236 259.6 626.7496 262.4952 627.1962 265.3585 626.5109 268.2383 626.2326 270.5274 628.0333 272.2863 630.0727 277.8116 631.1936 280.9719 632.2386 281.7353 629.5755 280.3339 625.72 277.563 622.6257 281.2678 620.1958 285.0661 618.1388 289.3154 616.7539 292.5846 614.2756 291.137 610.8799 291.8696 607.4424 293.7671 607.4567 295.8076 607.3005 297.0528 605.5427 297.0209 603.533 298.8733 604.8607 300.3066 603.2283 304.0884 603.192 307.8251 603.6749 310.3925 604.5989 311.5442 607.3632 313.0391 607.5711 314.6572 607.4996 316.0289 606.5217 317.9264 606.3138 320.7446 610.0065 323.048 613.9181 326.8155 615.4889 330.9405 613.2284 332.42 611.7379 334.7234 610.7743 339.1135 609.6193 348.0642 606.1378 349.7142 604.9509 350.0871 605.3865 351.4115 605.5768 355.4265 604.1061 359.6296 605.0697 361.5909 601.85 361.5909 600.53 361.4974 599.2892 362.1827 598.352 362.8361 597.2828 362.0573 595.2467 361.9957 592.6848 364.969 590.3121 368.5495 588.694 371.2885 586.0496 374.4796 583.6208 378.5276 582.8651 381.2204 579.7235 385.7194 585.2741 387.4464 585.3874 389.3769 585.6536 391.8838 588.518 395.5413 589.6653 396.88 590.1119 392.2776 597.4082 387.5465 602.1503 378.807 608.3609 375.9514 609.2178 372.1278 611.2715 344.1691 633.2825 338.58 636.3163 320.4278 642.7766 320.4146 642.7766 320.1693 640.5887 320.1561 640.4578 319.0781 639.6075 319.055 639.6141 318.8086 639.6746 317.9022 639.9221 317.3258 641.1365 317.0321 643.6885 316.2104 644.6499 314.886 645.0074 313.1337 645.784 309.8612 647.7629 306.5887 649.2061 290.9126 652.5765 283.3116 655.1901 274.9769 656.7059 271.1775 658.1733 268.8983 661.3897 264.8162 660.5889 262.3038 661.5558 260.8826 662.1113 255.0845 666.4057 249.2864 670.6957 248.9245 671.1159 246.6156 673.801 240.4501 673.4369 240.4369 673.4314 237.8629 673.801 235.8532 674.5644 233.7819 675.7469 230.1167 678.4958 229.0629 678.7422 228.008 678.9765 225.5088 678.0096 222.86 676.6412 221.3409 676.1792 220.286 675.8646 211.5718 676.8997 209.0836 676.4135 207.8208 675.1628 207.0123 673.5172 206.3743 672.5558 205.8969 671.8353 203.3471 673.3192 201.0679 673.493"></polygon>
        <polyline id="Fill-12" fill="#C89497" points="278.7928 563.2367 276.3178 566.9899 274.7613 570.8971 272.0058 574.2114 270.5736 577.5763 269.0952 584.1455 266.2462 588.2012 263.9736 592.5055 264.4246 594.9992 265.375 597.3884 265.4993 606.7571 267.1801 609.9988 269.313 612.8456 272.1928 614.3999 274.9318 616.3304 276.3805 619.098 277.563 622.6257 280.3339 625.72 281.7353 629.5755 280.9719 632.2386 277.8116 631.1936 272.2863 630.0727 270.5274 628.0333 268.2383 626.2326 265.3585 626.5109 262.4952 627.1962 259.6 626.7496 248.5472 622.7236 239.9386 621.0758 239.9386 619.6315 240.7328 618.8208 238.8023 617.3842 238.9277 615.963 237.2458 613.8796 233.6345 614.4868 230.9263 614.005 231.9229 611.31 229.7427 607.2928 223.1273 608.1662 220.5588 608.186 219.516 610.6412 216.5581 611.3265 213.6156 611.75 212.3242 609.8778 209.8954 609.9559 205.2105 607.6448 202.9687 607.5909 200.431 606.5569 198.3762 604.8178 196.5403 602.9148 191.0909 593.4361 184.7241 584.4711 183.931 581.8971 186.2036 581.0237 184.0245 576.8514 180.6618 573.7758 178.5608 572.9618 176.8954 571.3987 176.0077 566.9789 171.4152 562.5162 169.9522 559.4835 168.9875 556.6301 169.2053 554.209 166.5741 547.2482 166.0758 544.1253 169.3912 541.1498 165.6875 537.2107 166.4652 535.4122 167.1032 533.2991 168.7378 530.7042 170.6683 528.3414 170.5902 526.863 170.3878 525.3967 172.3964 523.5146 171.9289 520.7547 169.3296 519.4292 166.0604 519.2103 166.5125 517.9629 166.4806 516.5791 164.2388 509.3752 165.0176 504.9576 166.9327 500.5367 169.1118 499.0275 170.2481 496.4502 167.0724 495.5218 163.3984 496.3963 161.5614 492.5914 162.2005 488.2926 164.582 487.0562 166.5433 485.2104 166.9481 479.992 168.4265 478.815 168.1779 476.7987 171.2436 475.0145 174.3577 472.2326 177.6577 469.8588 181.1909 468.2077 188.5543 466.5621 190.157 466.4961 191.2471 465.0287 191.7454 463.2357 191.5738 460.1205 192.1029 457.2396 195.4194 455.9141 199.0153 456.4036 201.2098 458.6795 202.5947 461.6077 204.4482 466.2651 210.9547 471.9807 210.705 474.9111 211.9821 475.8065 215.8112 477.9284 217.6317 480.1537 217.2742 482.8597 217.305 485.0839 219.4841 487.2575 221.2441 489.4652 220.3872 491.4617 219.2047 493.3284 217.5701 493.7167 215.9201 493.8113 213.554 496.3798 208.3389 497.2345 206.6108 498.8273 208.8988 504.302 209.9889 506.1918 208.8988 508.5249 208.8218 511.5323 209.0242 512.0229 209.5225 512.1604 208.1992 514.301 206.1136 516.1402 204.9608 516.5318 204.1358 517.6571 204.9762 518.8132 205.942 519.8021 204.8838 525.4352 206.1906 529.8264 210.5653 531.2454 214.0512 533.8403 215.204 537.8234 215.4526 539.8529 213.7256 541.3731 213.6156 543.8591 214.6441 544.98 213.4913 546.0613 212.9468 547.6167 216.0444 549.9839 219.7184 550.282 227.5328 552.0453 235.7982 553.1706 238.9739 552.6404 242.7095 552.3434 247.7068 552.5073 252.4082 551.8693 260.9387 547.4055 261.3435 552.9825 262.4633 552.4292 263.5688 551.9958 265.6236 554.2596 268.224 555.0637 267.8654 556.4816 267.3825 557.6575 266.8061 558.2493 262.7273 560.1094 262.0123 562.1004 263.5996 564.6084 265.9041 566.474 269.3438 567.1274 272.9716 565.6468 276.0373 563.3819 278.7928 563.2367"></polyline>
        <polygon id="Stroke-13" stroke="#0C0E0F" stroke-width="0.55" fill="#FFFFFE" stroke-linecap="round" stroke-linejoin="round" points="278.7928 563.2367 276.3178 566.9899 274.7613 570.8971 272.0058 574.2114 270.5736 577.5763 269.0952 584.1455 266.2462 588.2012 263.9736 592.5055 264.4246 594.9992 265.375 597.3884 265.4993 606.7571 267.1801 609.9988 269.313 612.8456 272.1928 614.3999 274.9318 616.3304 276.3805 619.098 277.563 622.6257 280.3339 625.72 281.7353 629.5755 280.9719 632.2386 277.8116 631.1936 272.2863 630.0727 270.5274 628.0333 268.2383 626.2326 265.3585 626.5109 262.4952 627.1962 259.6 626.7496 248.5472 622.7236 239.9386 621.0758 239.9386 619.6315 240.7328 618.8208 238.8023 617.3842 238.9277 615.963 237.2458 613.8796 233.6345 614.4868 230.9263 614.005 231.9229 611.31 229.7427 607.2928 223.1273 608.1662 220.5588 608.186 219.516 610.6412 216.5581 611.3265 213.6156 611.75 212.3242 609.8778 209.8954 609.9559 205.2105 607.6448 202.9687 607.5909 200.431 606.5569 198.3762 604.8178 196.5403 602.9148 191.0909 593.4361 184.7241 584.4711 183.931 581.8971 186.2036 581.0237 184.0245 576.8514 180.6618 573.7758 178.5608 572.9618 176.8954 571.3987 176.0077 566.9789 171.4152 562.5162 169.9522 559.4835 168.9875 556.6301 169.2053 554.209 166.5741 547.2482 166.0758 544.1253 169.3912 541.1498 165.6875 537.2107 166.4652 535.4122 167.1032 533.2991 168.7378 530.7042 170.6683 528.3414 170.5902 526.863 170.3878 525.3967 172.3964 523.5146 171.9289 520.7547 169.3296 519.4292 166.0604 519.2103 166.5125 517.9629 166.4806 516.5791 164.2388 509.3752 165.0176 504.9576 166.9327 500.5367 169.1118 499.0275 170.2481 496.4502 167.0724 495.5218 163.3984 496.3963 161.5614 492.5914 162.2005 488.2926 164.582 487.0562 166.5433 485.2104 166.9481 479.992 168.4265 478.815 168.1779 476.7987 171.2436 475.0145 174.3577 472.2326 177.6577 469.8588 181.1909 468.2077 188.5543 466.5621 190.157 466.4961 191.2471 465.0287 191.7454 463.2357 191.5738 460.1205 192.1029 457.2396 195.4194 455.9141 199.0153 456.4036 201.2098 458.6795 202.5947 461.6077 204.4482 466.2651 210.9547 471.9807 210.705 474.9111 211.9821 475.8065 215.8112 477.9284 217.6317 480.1537 217.2742 482.8597 217.305 485.0839 219.4841 487.2575 221.2441 489.4652 220.3872 491.4617 219.2047 493.3284 217.5701 493.7167 215.9201 493.8113 213.554 496.3798 208.3389 497.2345 206.6108 498.8273 208.8988 504.302 209.9889 506.1918 208.8988 508.5249 208.8218 511.5323 209.0242 512.0229 209.5225 512.1604 208.1992 514.301 206.1136 516.1402 204.9608 516.5318 204.1358 517.6571 204.9762 518.8132 205.942 519.8021 204.8838 525.4352 206.1906 529.8264 210.5653 531.2454 214.0512 533.8403 215.204 537.8234 215.4526 539.8529 213.7256 541.3731 213.6156 543.8591 214.6441 544.98 213.4913 546.0613 212.9468 547.6167 216.0444 549.9839 219.7184 550.282 227.5328 552.0453 235.7982 553.1706 238.9739 552.6404 242.7095 552.3434 247.7068 552.5073 252.4082 551.8693 260.9387 547.4055 261.3435 552.9825 262.4633 552.4292 263.5688 551.9958 265.6236 554.2596 268.224 555.0637 267.8654 556.4816 267.3825 557.6575 266.8061 558.2493 262.7273 560.1094 262.0123 562.1004 263.5996 564.6084 265.9041 566.474 269.3438 567.1274 272.9716 565.6468 276.0373 563.3819"></polygon>
        <polyline id="Fill-14" fill="#FFFFFE" points="277.563 622.6257 276.3805 619.098 274.9318 616.3304 272.1928 614.3999 269.313 612.8456 267.1801 609.9988 265.4993 606.7571 265.375 597.3884 264.4246 594.9992 263.9736 592.5055 266.2462 588.2012 269.0952 584.1455 270.5736 577.5763 272.0058 574.2114 274.7613 570.8971 276.3178 566.9899 278.7928 563.2367 276.0373 563.3819 272.9716 565.6468 269.3438 567.1274 265.9041 566.474 263.5996 564.6084 262.0123 562.1004 262.7273 560.1094 266.8061 558.2493 267.3825 557.6575 267.8654 556.4816 268.224 555.0637 265.6236 554.2596 263.5688 551.9958 262.4633 552.4292 261.3435 552.9825 260.9387 547.4055 263.7866 546.696 265.3277 544.5092 263.9428 543.8074 262.5568 542.9186 264.7678 539.3117 264.176 538.2898 263.4137 537.3603 262.5568 535.0327 261.5613 532.9152 256.751 530.493 256.5805 528.073 259.3041 527.9399 262.1212 528.1016 264.1452 525.7696 264.8767 522.7611 267.2582 520.5743 269.9818 519.2719 275.6798 518.0333 279.0271 513.0536 279.7113 510.0946 281.0973 507.4117 282.3106 506.2985 283.2918 505.0434 283.7901 503.9214 283.5723 502.8665 282.7473 500.1759 283.4788 498.7723 284.5051 497.5007 283.9606 496.7252 283.2764 495.909 282.9651 494.6308 283.2918 493.2459 282.1555 489.4619 282.2798 486.7284 284.1938 485.5624 287.4168 484.6527 291.4791 480.8709 291.7442 475.9484 288.4442 464.9583 287.1209 442.0277 286.3894 429.5999 287.837 422.4587 288.2572 422.8591 290.5298 424.2605 291.5099 426.4242 291.7134 428.9014 292.9124 432.5446 296.6161 438.742 299.3562 437.7773 300.8654 437.4275 302.6881 436.7246 305.8946 433.7568 313.2877 429.6043 319.9812 431.0607 320.5576 438.6562 318.9692 446.0394 318.1299 447.6047 317.7097 448.9709 318.1607 450.8431 318.7679 452.7351 319.748 459.4176 321.4134 462.9728 323.6717 465.2058 324.9785 464.8879 326.8309 465.2399 327.4535 466.5907 328.4963 468.3518 329.8515 471.0908 330.3795 473.8133 331.5631 476.7514 332.8864 479.2187 335.9378 478.1572 338.7395 476.1046 337.9453 470.4396 337.9299 464.6085 341.6655 464.7768 344.7169 463.0817 345.4165 462.0158 346.4604 460.7519 347.1457 459.257 346.9741 457.4717 346.1491 455.682 346.1183 453.6954 347.6583 453.5788 349.745 453.0376 350.7713 451.4118 351.3323 449.9917 352.9988 449.2459 354.8193 448.6101 358.5868 446.5883 361.5436 447.3935 359.3183 450.8552 360.2676 451.4327 361.2642 451.6087 360.9683 453.6492 362.758 461.6473 362.5413 465.2729 363.1474 468.1989 366.4793 471.0996 368.5803 474.778 369.0159 478.0428 372.2851 482.577 369.8409 484.5075 366.6971 488.2387 364.9371 492.9489 366.8841 496.4931 367.4913 498.8471 368.6584 500.9294 369.8728 501.4629 370.9926 501.4629 371.9276 502.0195 372.7053 502.7103 378.0766 504.0985 382.5283 506.7847 382.2324 509.6348 381.5306 512.6301 382.5745 515.5484 382.5899 518.481 384.3961 521.0759 385.143 524.0756 381.2204 579.7235 378.5276 582.8651 374.4796 583.6208 371.2885 586.0496 368.5495 588.694 364.969 590.3121 361.9957 592.6848 362.0573 595.2467 362.8361 597.2828 362.1827 598.352 361.4974 599.2892 361.5909 600.53 361.5909 601.85 359.6296 605.0697 355.4265 604.1061 351.4115 605.5768 350.0871 605.3865 349.7142 604.9509 348.0642 606.1378 339.1135 609.6193 334.7234 610.7743 332.42 611.7379 330.9405 613.2284 326.8155 615.4889 323.048 613.9181 320.7446 610.0065 317.9264 606.3138 316.0289 606.5217 314.6572 607.4996 313.0391 607.5711 311.5442 607.3632 310.3925 604.5989 307.8251 603.6749 304.0884 603.192 300.3066 603.2283 298.8733 604.8607 297.0209 603.533 297.0528 605.5427 295.8076 607.3005 293.7671 607.4567 291.8696 607.4424 291.137 610.8799 292.5846 614.2756 289.3154 616.7539 285.0661 618.1388 281.2678 620.1958 277.563 622.6257"></polyline>
        <polygon id="Stroke-15" stroke="#0C0E0F" stroke-width="0.55" stroke-linecap="round" stroke-linejoin="round" points="277.563 622.6257 276.3805 619.098 274.9318 616.3304 272.1928 614.3999 269.313 612.8456 267.1801 609.9988 265.4993 606.7571 265.375 597.3884 264.4246 594.9992 263.9736 592.5055 266.2462 588.2012 269.0952 584.1455 270.5736 577.5763 272.0058 574.2114 274.7613 570.8971 276.3178 566.9899 278.7928 563.2367 276.0373 563.3819 272.9716 565.6468 269.3438 567.1274 265.9041 566.474 263.5996 564.6084 262.0123 562.1004 262.7273 560.1094 266.8061 558.2493 267.3825 557.6575 267.8654 556.4816 268.224 555.0637 265.6236 554.2596 263.5688 551.9958 262.4633 552.4292 261.3435 552.9825 260.9387 547.4055 263.7866 546.696 265.3277 544.5092 263.9428 543.8074 262.5568 542.9186 264.7678 539.3117 264.176 538.2898 263.4137 537.3603 262.5568 535.0327 261.5613 532.9152 256.751 530.493 256.5805 528.073 259.3041 527.9399 262.1212 528.1016 264.1452 525.7696 264.8767 522.7611 267.2582 520.5743 269.9818 519.2719 275.6798 518.0333 279.0271 513.0536 279.7113 510.0946 281.0973 507.4117 282.3106 506.2985 283.2918 505.0434 283.7901 503.9214 283.5723 502.8665 282.7473 500.1759 283.4788 498.7723 284.5051 497.5007 283.9606 496.7252 283.2764 495.909 282.9651 494.6308 283.2918 493.2459 282.1555 489.4619 282.2798 486.7284 284.1938 485.5624 287.4168 484.6527 291.4791 480.8709 291.7442 475.9484 288.4442 464.9583 287.1209 442.0277 286.3894 429.5999 287.837 422.4587 288.2572 422.8591 290.5298 424.2605 291.5099 426.4242 291.7134 428.9014 292.9124 432.5446 296.6161 438.742 299.3562 437.7773 300.8654 437.4275 302.6881 436.7246 305.8946 433.7568 313.2877 429.6043 319.9812 431.0607 320.5576 438.6562 318.9692 446.0394 318.1299 447.6047 317.7097 448.9709 318.1607 450.8431 318.7679 452.7351 319.748 459.4176 321.4134 462.9728 323.6717 465.2058 324.9785 464.8879 326.8309 465.2399 327.4535 466.5907 328.4963 468.3518 329.8515 471.0908 330.3795 473.8133 331.5631 476.7514 332.8864 479.2187 335.9378 478.1572 338.7395 476.1046 337.9453 470.4396 337.9299 464.6085 341.6655 464.7768 344.7169 463.0817 345.4165 462.0158 346.4604 460.7519 347.1457 459.257 346.9741 457.4717 346.1491 455.682 346.1183 453.6954 347.6583 453.5788 349.745 453.0376 350.7713 451.4118 351.3323 449.9917 352.9988 449.2459 354.8193 448.6101 358.5868 446.5883 361.5436 447.3935 359.3183 450.8552 360.2676 451.4327 361.2642 451.6087 360.9683 453.6492 362.758 461.6473 362.5413 465.2729 363.1474 468.1989 366.4793 471.0996 368.5803 474.778 369.0159 478.0428 372.2851 482.577 369.8409 484.5075 366.6971 488.2387 364.9371 492.9489 366.8841 496.4931 367.4913 498.8471 368.6584 500.9294 369.8728 501.4629 370.9926 501.4629 371.9276 502.0195 372.7053 502.7103 378.0766 504.0985 382.5283 506.7847 382.2324 509.6348 381.5306 512.6301 382.5745 515.5484 382.5899 518.481 384.3961 521.0759 385.143 524.0756 381.2204 579.7235 378.5276 582.8651 374.4796 583.6208 371.2885 586.0496 368.5495 588.694 364.969 590.3121 361.9957 592.6848 362.0573 595.2467 362.8361 597.2828 362.1827 598.352 361.4974 599.2892 361.5909 600.53 361.5909 601.85 359.6296 605.0697 355.4265 604.1061 351.4115 605.5768 350.0871 605.3865 349.7142 604.9509 348.0642 606.1378 339.1135 609.6193 334.7234 610.7743 332.42 611.7379 330.9405 613.2284 326.8155 615.4889 323.048 613.9181 320.7446 610.0065 317.9264 606.3138 316.0289 606.5217 314.6572 607.4996 313.0391 607.5711 311.5442 607.3632 310.3925 604.5989 307.8251 603.6749 304.0884 603.192 300.3066 603.2283 298.8733 604.8607 297.0209 603.533 297.0528 605.5427 295.8076 607.3005 293.7671 607.4567 291.8696 607.4424 291.137 610.8799 292.5846 614.2756 289.3154 616.7539 285.0661 618.1388 281.2678 620.1958"></polygon>
        <polyline id="Fill-16" fill="#FFFFFE" points="252.9065 362.0489 254.2287 363.3337 256.3143 365.6998 256.2681 368.3717 257.0931 369.2671 258.3548 369.7357 259.3195 369.1142 259.3811 368.1473 261.2027 367.2794 262.9462 367.7821 265.3277 368.2694 267.5387 369.5971 263.0243 374.3403 261.5448 381.542 261.1246 385.0147 259.677 391.1593 259.1633 392.2472 258.8828 393.3472 254.5092 394.3251 253.4972 398.4996 255.5366 407.7374 255.2561 410.7019 256.751 412.8271 260.7198 413.6983 264.5027 412.1154 267.5068 409.3753 268.7993 411.1815 271.1038 412.6258 271.7561 409.9638 272.0993 407.2424 280.1788 407.7968 287.9778 406.3756 287.8678 408.9155 288.9579 412.3409 289.2846 415.2658 287.837 422.4587 286.3894 429.5999 287.1209 442.0277 288.4442 464.9583 291.7442 475.9484 291.4791 480.8709 287.4168 484.6527 284.1938 485.5624 282.2798 486.7284 282.1555 489.4619 283.2918 493.2459 282.9651 494.6308 283.2764 495.909 283.9606 496.7252 284.5051 497.5007 283.4788 498.7723 282.7473 500.1759 283.5723 502.8665 283.7901 503.9214 283.2918 505.0434 282.3106 506.2985 281.0973 507.4117 279.7113 510.0946 279.0271 513.0536 275.6798 518.0333 269.9818 519.2719 267.2582 520.5743 264.8767 522.7611 264.1452 525.7696 262.1212 528.1016 259.3041 527.9399 256.5805 528.073 256.751 530.493 261.5613 532.9152 262.5568 535.0327 263.4137 537.3603 264.176 538.2898 264.7678 539.3117 262.5568 542.9186 263.9428 543.8074 265.3277 544.5092 263.7866 546.696 260.9387 547.4055 252.4082 551.8693 247.7068 552.5073 242.7095 552.3434 238.9739 552.6404 235.7982 553.1706 227.5328 552.0453 219.7184 550.282 216.0444 549.9839 212.9468 547.6167 213.4913 546.0613 214.6441 544.98 213.6156 543.8591 213.7256 541.3731 215.4526 539.8529 215.204 537.8234 214.0512 533.8403 210.5653 531.2454 206.1906 529.8264 204.8838 525.4352 205.942 519.8021 204.9762 518.8132 204.1358 517.6571 204.9608 516.5318 206.1136 516.1402 208.1992 514.301 209.5225 512.1604 209.0242 512.0229 208.8218 511.5323 208.8988 508.5249 209.9889 506.1918 208.8988 504.302 206.6108 498.8273 208.3389 497.2345 213.554 496.3798 215.9201 493.8113 217.5701 493.7167 219.2047 493.3284 220.3872 491.4617 221.2441 489.4652 219.4841 487.2575 217.305 485.0839 217.2742 482.8597 217.6317 480.1537 215.8112 477.9284 211.9821 475.8065 210.705 474.9111 210.9547 471.9807 204.4482 466.2651 202.5947 461.6077 205.7088 461.9487 208.417 461.1523 208.1673 460.4461 208.043 459.4539 208.5567 458.5618 209.1947 457.7346 209.6776 454.6964 211.8413 454.692 214.1766 456.3651 216.7605 456.5609 216.9783 454.9835 216.7451 453.2884 218.955 452.0564 221.1187 452.4326 222.7379 451.656 221.8359 449.5913 220.6215 447.6641 222.3958 447.2054 224.202 446.3694 224.279 444.7986 225.1194 443.6524 225.4307 441.8154 225.0105 439.9168 224.2482 438.3152 223.3297 436.7961 221.8194 433.7491 222.1934 430.5415 224.3263 428.5912 224.8708 427.2877 224.84 425.9061 225.2756 424.112 225.3372 422.33 222.5828 419.6284 221.7424 414.9237 221.3057 409.8461 220.5434 408.7549 219.9989 408.3732 219.9516 405.7541 218.9242 403.146 217.4304 400.6325 216.3557 398.2686 215.2194 397.9496 213.8807 397.1961 213.4913 394.533 214.192 392.0503 217.3985 389.6743 222.4585 387.7999 225.1194 384.5703 227.5482 384.6649 229.3544 385.8628 231.5951 384.3041 232.716 382.4693 233.7588 381.7389 234.74 381.1614 234.6465 380.0845 234.3044 379.3772 236.2338 377.3818 237.6814 375.1774 237.6506 372.3482 238.491 369.9194 240.0013 369.9194 241.1376 370.2021 242.0088 369.5894 244.9359 366.5083 246.8972 364.7802 249.7616 363.3337 252.9065 362.0489"></polyline>
        <polygon id="Stroke-17" stroke="#0C0E0F" stroke-width="0.55" stroke-linecap="round" stroke-linejoin="round" points="252.9065 362.0489 254.2287 363.3337 256.3143 365.6998 256.2681 368.3717 257.0931 369.2671 258.3548 369.7357 259.3195 369.1142 259.3811 368.1473 261.2027 367.2794 262.9462 367.7821 265.3277 368.2694 267.5387 369.5971 263.0243 374.3403 261.5448 381.542 261.1246 385.0147 259.677 391.1593 259.1633 392.2472 258.8828 393.3472 254.5092 394.3251 253.4972 398.4996 255.5366 407.7374 255.2561 410.7019 256.751 412.8271 260.7198 413.6983 264.5027 412.1154 267.5068 409.3753 268.7993 411.1815 271.1038 412.6258 271.7561 409.9638 272.0993 407.2424 280.1788 407.7968 287.9778 406.3756 287.8678 408.9155 288.9579 412.3409 289.2846 415.2658 287.837 422.4587 286.3894 429.5999 287.1209 442.0277 288.4442 464.9583 291.7442 475.9484 291.4791 480.8709 287.4168 484.6527 284.1938 485.5624 282.2798 486.7284 282.1555 489.4619 283.2918 493.2459 282.9651 494.6308 283.2764 495.909 283.9606 496.7252 284.5051 497.5007 283.4788 498.7723 282.7473 500.1759 283.5723 502.8665 283.7901 503.9214 283.2918 505.0434 282.3106 506.2985 281.0973 507.4117 279.7113 510.0946 279.0271 513.0536 275.6798 518.0333 269.9818 519.2719 267.2582 520.5743 264.8767 522.7611 264.1452 525.7696 262.1212 528.1016 259.3041 527.9399 256.5805 528.073 256.751 530.493 261.5613 532.9152 262.5568 535.0327 263.4137 537.3603 264.176 538.2898 264.7678 539.3117 262.5568 542.9186 263.9428 543.8074 265.3277 544.5092 263.7866 546.696 260.9387 547.4055 252.4082 551.8693 247.7068 552.5073 242.7095 552.3434 238.9739 552.6404 235.7982 553.1706 227.5328 552.0453 219.7184 550.282 216.0444 549.9839 212.9468 547.6167 213.4913 546.0613 214.6441 544.98 213.6156 543.8591 213.7256 541.3731 215.4526 539.8529 215.204 537.8234 214.0512 533.8403 210.5653 531.2454 206.1906 529.8264 204.8838 525.4352 205.942 519.8021 204.9762 518.8132 204.1358 517.6571 204.9608 516.5318 206.1136 516.1402 208.1992 514.301 209.5225 512.1604 209.0242 512.0229 208.8218 511.5323 208.8988 508.5249 209.9889 506.1918 208.8988 504.302 206.6108 498.8273 208.3389 497.2345 213.554 496.3798 215.9201 493.8113 217.5701 493.7167 219.2047 493.3284 220.3872 491.4617 221.2441 489.4652 219.4841 487.2575 217.305 485.0839 217.2742 482.8597 217.6317 480.1537 215.8112 477.9284 211.9821 475.8065 210.705 474.9111 210.9547 471.9807 204.4482 466.2651 202.5947 461.6077 205.7088 461.9487 208.417 461.1523 208.1673 460.4461 208.043 459.4539 208.5567 458.5618 209.1947 457.7346 209.6776 454.6964 211.8413 454.692 214.1766 456.3651 216.7605 456.5609 216.9783 454.9835 216.7451 453.2884 218.955 452.0564 221.1187 452.4326 222.7379 451.656 221.8359 449.5913 220.6215 447.6641 222.3958 447.2054 224.202 446.3694 224.279 444.7986 225.1194 443.6524 225.4307 441.8154 225.0105 439.9168 224.2482 438.3152 223.3297 436.7961 221.8194 433.7491 222.1934 430.5415 224.3263 428.5912 224.8708 427.2877 224.84 425.9061 225.2756 424.112 225.3372 422.33 222.5828 419.6284 221.7424 414.9237 221.3057 409.8461 220.5434 408.7549 219.9989 408.3732 219.9516 405.7541 218.9242 403.146 217.4304 400.6325 216.3557 398.2686 215.2194 397.9496 213.8807 397.1961 213.4913 394.533 214.192 392.0503 217.3985 389.6743 222.4585 387.7999 225.1194 384.5703 227.5482 384.6649 229.3544 385.8628 231.5951 384.3041 232.716 382.4693 233.7588 381.7389 234.74 381.1614 234.6465 380.0845 234.3044 379.3772 236.2338 377.3818 237.6814 375.1774 237.6506 372.3482 238.491 369.9194 240.0013 369.9194 241.1376 370.2021 242.0088 369.5894 244.9359 366.5083 246.8972 364.7802 249.7616 363.3337"></polygon>
        <polyline id="Fill-18" fill="#FFFFFE" points="287.9778 406.3756 280.1788 407.7968 272.0993 407.2424 271.7561 409.9638 271.1038 412.6258 268.7993 411.1815 267.5068 409.3753 264.5027 412.1154 260.7198 413.6983 256.751 412.8271 255.2561 410.7019 255.5366 407.7374 253.4972 398.4996 254.5092 394.3251 258.8828 393.3472 259.1633 392.2472 259.677 391.1593 261.1246 385.0147 261.5448 381.542 263.0243 374.3403 267.5387 369.5971 265.3277 368.2694 262.9462 367.7821 261.2027 367.2794 259.3811 368.1473 259.3195 369.1142 258.3548 369.7357 257.0931 369.2671 256.2681 368.3717 256.3143 365.6998 254.2287 363.3337 252.9065 362.0489 249.7616 363.3337 246.8972 364.7802 244.9359 366.5083 242.0088 369.5894 241.1376 370.2021 240.0013 369.9194 238.491 369.9194 237.6506 372.3482 237.6814 375.1774 236.2338 377.3818 234.3044 379.3772 234.6465 380.0845 234.74 381.1614 233.7588 381.7389 232.716 382.4693 231.5951 384.3041 229.3544 385.8628 227.5482 384.6649 225.1194 384.5703 222.4585 387.7999 217.3985 389.6743 214.192 392.0503 210.3629 388.3664 210.9382 383.0864 210.1913 379.4916 208.7756 375.9672 208.3862 373.4207 207.1399 371.3263 204.7122 371.1492 202.6112 370.2659 202.3307 367.6215 202.5331 364.855 202.0964 361.6078 202.3615 359.6905 202.3153 357.7886 200.0427 355.9175 197.2091 356.0121 194.4844 354.3214 192.0259 351.8376 187.495 348.1504 182.4988 346.2199 179.7125 345.8074 177.4553 344.1805 174.5755 343.02 171.6022 342.2731 157.7169 335.8854 154.4642 334.0726 152.7823 331.8946 150.5559 330.1093 147.5056 330.2193 144.8128 328.1942 142.2751 329.3503 139.1456 329.3657 138.2117 326.6641 134.4607 311.3191 132.2497 307.0511 133.8997 303.2792 136.4374 302.1066 137.1227 300.7415 137.3251 299.6712 142.0265 295.8157 144.7655 289.989 143.9097 283.7014 145.1549 284.3185 146.6025 284.4879 146.9138 270.3716 145.7159 261.4429 152.4248 264.1841 159.819 264.2072 174.4666 260.3528 174.5282 265.3017 176.0704 269.5917 178.3584 270.3793 180.5837 271.399 181.5495 273.2756 182.1094 275.3425 183.7132 278.5688 186.8889 280.2694 188.4608 280.7094 189.9238 280.7963 192.2283 276.6284 194.9057 275.4602 197.7074 268.8954 203.6386 261.1679 208.23 259.0537 211.0163 260.5387 213.5694 262.3647 218.3643 262.3295 222.3804 259.255 226.1941 255.8142 229.4787 251.9631 231.2992 249.1603 233.4167 246.5654 236.9972 243.7219 235.7355 239.7762 232.9657 236.1847 229.042 234.8218 228.7626 231.4778 239.9694 231.0884 244.3441 228.0194 248.2986 226.8886 252.439 226.101 256.6883 224.3564 261.1092 224.4543 264.9548 226.6367 271.5075 231.2303 273.8274 233.7823 275.0418 235.4202 276.474 236.5114 274.7151 240.4659 272.162 244.2422 272.2555 250.7894 275.0418 256.9164 276.1935 260.0932 273.8582 265.5646 273.9825 268.6754 275.2596 270.1307 276.8623 271.6982 277.4849 275.3304 281.4713 281.277 283.5866 286.3337 284.9418 288.053 286.6853 289.4027 287.6973 291.7435 286.4521 293.9908 284.3038 295.3834 282.4514 297.216 281.8288 299.0541 281.4856 300.9692 278.2175 312.6644 280.4736 312.0033 282.2336 314.6147 284.6778 315.5585 286.9801 317.3757 287.6038 320.5459 289.487 322.4412 295.8384 321.8164 307.2487 324.6115 309.9415 324.6159 312.4484 326.0393 314.8761 327.9148 317.5381 329.2832 319.4367 329.138 320.5114 330.6593 320.7446 332.5942 320.6819 334.5566 321.211 337.4463 320.4014 339.3405 318.659 340.4416 319.2497 340.8662 319.9812 341.1137 323.7652 340.2524 325.897 335.2562 326.6604 333.8009 327.6097 329.8222 328.6525 328.9136 329.7888 328.06 330.7854 326.2439 332.1549 324.7655 334.0392 324.7688 336.3734 324.7534 337.1665 332.6877 335.9532 356.6798 337.0587 362.2799 339.5799 367.7744 340.8262 373.4405 339.4402 373.5461 333.9765 372.8234 329.6645 373.4251 326.2864 375.7076 325.1501 380.1241 323.8257 391.827 325.9597 403.5871 325.2744 407.007 325.7419 410.5963 324.9169 412.2265 323.9511 413.2396 323.2504 415.0183 322.8929 416.5847 319.9504 416.2316 316.4007 414.1977 309.1165 411.9306 304.6637 407.4503 299.1846 405.3372 296.4291 405.8256 290.8103 406.3668 287.9778 406.3756"></polyline>
        <polygon id="Stroke-19" stroke="#0C0E0F" stroke-width="0.55" stroke-linecap="round" stroke-linejoin="round" points="287.9778 406.3756 280.1788 407.7968 272.0993 407.2424 271.7561 409.9638 271.1038 412.6258 268.7993 411.1815 267.5068 409.3753 264.5027 412.1154 260.7198 413.6983 256.751 412.8271 255.2561 410.7019 255.5366 407.7374 253.4972 398.4996 254.5092 394.3251 258.8828 393.3472 259.1633 392.2472 259.677 391.1593 261.1246 385.0147 261.5448 381.542 263.0243 374.3403 267.5387 369.5971 265.3277 368.2694 262.9462 367.7821 261.2027 367.2794 259.3811 368.1473 259.3195 369.1142 258.3548 369.7357 257.0931 369.2671 256.2681 368.3717 256.3143 365.6998 254.2287 363.3337 252.9065 362.0489 249.7616 363.3337 246.8972 364.7802 244.9359 366.5083 242.0088 369.5894 241.1376 370.2021 240.0013 369.9194 238.491 369.9194 237.6506 372.3482 237.6814 375.1774 236.2338 377.3818 234.3044 379.3772 234.6465 380.0845 234.74 381.1614 233.7588 381.7389 232.716 382.4693 231.5951 384.3041 229.3544 385.8628 227.5482 384.6649 225.1194 384.5703 222.4585 387.7999 217.3985 389.6743 214.192 392.0503 210.3629 388.3664 210.9382 383.0864 210.1913 379.4916 208.7756 375.9672 208.3862 373.4207 207.1399 371.3263 204.7122 371.1492 202.6112 370.2659 202.3307 367.6215 202.5331 364.855 202.0964 361.6078 202.3615 359.6905 202.3153 357.7886 200.0427 355.9175 197.2091 356.0121 194.4844 354.3214 192.0259 351.8376 187.495 348.1504 182.4988 346.2199 179.7125 345.8074 177.4553 344.1805 174.5755 343.02 171.6022 342.2731 157.7169 335.8854 154.4642 334.0726 152.7823 331.8946 150.5559 330.1093 147.5056 330.2193 144.8128 328.1942 142.2751 329.3503 139.1456 329.3657 138.2117 326.6641 134.4607 311.3191 132.2497 307.0511 133.8997 303.2792 136.4374 302.1066 137.1227 300.7415 137.3251 299.6712 142.0265 295.8157 144.7655 289.989 143.9097 283.7014 145.1549 284.3185 146.6025 284.4879 146.9138 270.3716 145.7159 261.4429 152.4248 264.1841 159.819 264.2072 174.4666 260.3528 174.5282 265.3017 176.0704 269.5917 178.3584 270.3793 180.5837 271.399 181.5495 273.2756 182.1094 275.3425 183.7132 278.5688 186.8889 280.2694 188.4608 280.7094 189.9238 280.7963 192.2283 276.6284 194.9057 275.4602 197.7074 268.8954 203.6386 261.1679 208.23 259.0537 211.0163 260.5387 213.5694 262.3647 218.3643 262.3295 222.3804 259.255 226.1941 255.8142 229.4787 251.9631 231.2992 249.1603 233.4167 246.5654 236.9972 243.7219 235.7355 239.7762 232.9657 236.1847 229.042 234.8218 228.7626 231.4778 239.9694 231.0884 244.3441 228.0194 248.2986 226.8886 252.439 226.101 256.6883 224.3564 261.1092 224.4543 264.9548 226.6367 271.5075 231.2303 273.8274 233.7823 275.0418 235.4202 276.474 236.5114 274.7151 240.4659 272.162 244.2422 272.2555 250.7894 275.0418 256.9164 276.1935 260.0932 273.8582 265.5646 273.9825 268.6754 275.2596 270.1307 276.8623 271.6982 277.4849 275.3304 281.4713 281.277 283.5866 286.3337 284.9418 288.053 286.6853 289.4027 287.6973 291.7435 286.4521 293.9908 284.3038 295.3834 282.4514 297.216 281.8288 299.0541 281.4856 300.9692 278.2175 312.6644 280.4736 312.0033 282.2336 314.6147 284.6778 315.5585 286.9801 317.3757 287.6038 320.5459 289.487 322.4412 295.8384 321.8164 307.2487 324.6115 309.9415 324.6159 312.4484 326.0393 314.8761 327.9148 317.5381 329.2832 319.4367 329.138 320.5114 330.6593 320.7446 332.5942 320.6819 334.5566 321.211 337.4463 320.4014 339.3405 318.659 340.4416 319.2497 340.8662 319.9812 341.1137 323.7652 340.2524 325.897 335.2562 326.6604 333.8009 327.6097 329.8222 328.6525 328.9136 329.7888 328.06 330.7854 326.2439 332.1549 324.7655 334.0392 324.7688 336.3734 324.7534 337.1665 332.6877 335.9532 356.6798 337.0587 362.2799 339.5799 367.7744 340.8262 373.4405 339.4402 373.5461 333.9765 372.8234 329.6645 373.4251 326.2864 375.7076 325.1501 380.1241 323.8257 391.827 325.9597 403.5871 325.2744 407.007 325.7419 410.5963 324.9169 412.2265 323.9511 413.2396 323.2504 415.0183 322.8929 416.5847 319.9504 416.2316 316.4007 414.1977 309.1165 411.9306 304.6637 407.4503 299.1846 405.3372 296.4291 405.8256 290.8103 406.3668"></polygon>
        <g id="Location" transform="translate(383.900000, 382.400000)" filter="url(#filter-1)">
            <g transform="translate(3.300000, 1.100000)">
                <path d="M6.325,9.9 C6.325,7.925577 7.92561,6.325 9.9,6.325 C11.87439,6.325 13.475,7.925577 13.475,9.9 C13.475,11.87439 11.87439,13.475 9.9,13.475 C7.92561,13.475 6.325,11.87439 6.325,9.9 Z" id="Path" fill="#000000" fill-rule="nonzero"></path>
                <path d="M0.850894,8.665129 C1.228898,4.079295 5.061067,0.55 9.66251,0.55 L10.1376,0.55 C14.73901,0.55 18.57119,4.079295 18.94915,8.665129 C19.15265,11.1342 18.39002,13.58588 16.82175,15.50373 L11.54945,21.95171 C10.69695,22.99429 9.10316,22.99429 8.25066,21.95171 L2.978272,15.50373 C1.410057,13.58588 0.647372,11.1342 0.850894,8.665129 Z M9.9,4.675 C7.014315,4.675 4.675,7.014315 4.675,9.9 C4.675,12.78574 7.014315,15.125 9.9,15.125 C12.78574,15.125 15.125,12.78574 15.125,9.9 C15.125,7.014315 12.78574,4.675 9.9,4.675 Z" id="Shape" fill="#000000"></path>
            </g>
        </g>
        <g id="Location" transform="translate(365.200000, 369.200000)" filter="url(#filter-2)">
            <g transform="translate(3.300000, 1.100000)">
                <path d="M6.325,9.9 C6.325,7.925577 7.92561,6.325 9.9,6.325 C11.87439,6.325 13.475,7.925577 13.475,9.9 C13.475,11.87439 11.87439,13.475 9.9,13.475 C7.92561,13.475 6.325,11.87439 6.325,9.9 Z" id="Path" fill="#000000" fill-rule="nonzero"></path>
                <path d="M0.850894,8.665129 C1.228898,4.079295 5.061067,0.55 9.66251,0.55 L10.1376,0.55 C14.73901,0.55 18.57119,4.079295 18.94915,8.665129 C19.15265,11.1342 18.39002,13.58588 16.82175,15.50373 L11.54945,21.95171 C10.69695,22.99429 9.10316,22.99429 8.25066,21.95171 L2.978272,15.50373 C1.410057,13.58588 0.647372,11.1342 0.850894,8.665129 Z M9.9,4.675 C7.014315,4.675 4.675,7.014315 4.675,9.9 C4.675,12.78574 7.014315,15.125 9.9,15.125 C12.78574,15.125 15.125,12.78574 15.125,9.9 C15.125,7.014315 12.78574,4.675 9.9,4.675 Z" id="Shape" fill="#000000"></path>
            </g>
        </g>
        <g id="Location" transform="translate(358.600000, 348.300000)" filter="url(#filter-3)">
            <g transform="translate(3.300000, 1.100000)">
                <path d="M6.325,9.9 C6.325,7.925577 7.92561,6.325 9.9,6.325 C11.87439,6.325 13.475,7.925577 13.475,9.9 C13.475,11.87439 11.87439,13.475 9.9,13.475 C7.92561,13.475 6.325,11.87439 6.325,9.9 Z" id="Path" fill="#000000" fill-rule="nonzero"></path>
                <path d="M0.850894,8.665129 C1.228898,4.079295 5.061067,0.55 9.66251,0.55 L10.1376,0.55 C14.73901,0.55 18.57119,4.079295 18.94915,8.665129 C19.15265,11.1342 18.39002,13.58588 16.82175,15.50373 L11.54945,21.95171 C10.69695,22.99429 9.10316,22.99429 8.25066,21.95171 L2.978272,15.50373 C1.410057,13.58588 0.647372,11.1342 0.850894,8.665129 Z M9.9,4.675 C7.014315,4.675 4.675,7.014315 4.675,9.9 C4.675,12.78574 7.014315,15.125 9.9,15.125 C12.78574,15.125 15.125,12.78574 15.125,9.9 C15.125,7.014315 12.78574,4.675 9.9,4.675 Z" id="Shape" fill="#000000"></path>
            </g>
        </g>
        <g id="Location" transform="translate(404.800000, 471.500000)" filter="url(#filter-4)">
            <g transform="translate(3.300000, 1.100000)">
                <path d="M6.325,9.9 C6.325,7.925577 7.92561,6.325 9.9,6.325 C11.87439,6.325 13.475,7.925577 13.475,9.9 C13.475,11.87439 11.87439,13.475 9.9,13.475 C7.92561,13.475 6.325,11.87439 6.325,9.9 Z" id="Path" fill="#000000" fill-rule="nonzero"></path>
                <path d="M0.850894,8.665129 C1.228898,4.079295 5.061067,0.55 9.66251,0.55 L10.1376,0.55 C14.73901,0.55 18.57119,4.079295 18.94915,8.665129 C19.15265,11.1342 18.39002,13.58588 16.82175,15.50373 L11.54945,21.95171 C10.69695,22.99429 9.10316,22.99429 8.25066,21.95171 L2.978272,15.50373 C1.410057,13.58588 0.647372,11.1342 0.850894,8.665129 Z M9.9,4.675 C7.014315,4.675 4.675,7.014315 4.675,9.9 C4.675,12.78574 7.014315,15.125 9.9,15.125 C12.78574,15.125 15.125,12.78574 15.125,9.9 C15.125,7.014315 12.78574,4.675 9.9,4.675 Z" id="Shape" fill="#000000"></path>
            </g>
        </g>
        <g id="Location" transform="translate(404.800000, 437.400000)" filter="url(#filter-5)">
            <g transform="translate(3.300000, 1.100000)">
                <path d="M6.325,9.9 C6.325,7.925577 7.92561,6.325 9.9,6.325 C11.87439,6.325 13.475,7.925577 13.475,9.9 C13.475,11.87439 11.87439,13.475 9.9,13.475 C7.92561,13.475 6.325,11.87439 6.325,9.9 Z" id="Path" fill="#000000" fill-rule="nonzero"></path>
                <path d="M0.850894,8.665129 C1.228898,4.079295 5.061067,0.55 9.66251,0.55 L10.1376,0.55 C14.73901,0.55 18.57119,4.079295 18.94915,8.665129 C19.15265,11.1342 18.39002,13.58588 16.82175,15.50373 L11.54945,21.95171 C10.69695,22.99429 9.10316,22.99429 8.25066,21.95171 L2.978272,15.50373 C1.410057,13.58588 0.647372,11.1342 0.850894,8.665129 Z M9.9,4.675 C7.014315,4.675 4.675,7.014315 4.675,9.9 C4.675,12.78574 7.014315,15.125 9.9,15.125 C12.78574,15.125 15.125,12.78574 15.125,9.9 C15.125,7.014315 12.78574,4.675 9.9,4.675 Z" id="Shape" fill="#000000"></path>
            </g>
        </g>
        <text id="Jaffna" font-family="FiraSansCondensed-Bold, Fira Sans Condensed" font-size="19.8" font-style="condensed" font-weight="bold" letter-spacing="0.0436764721" fill="#191919">
            <tspan x="185.555571" y="109.3">Jaffna</tspan>
        </text>
        <text id="Eravur" font-family="FiraSansCondensed-Bold, Fira Sans Condensed" font-size="19.8" font-style="condensed" font-weight="bold" letter-spacing="0.0436764721" fill="#191919">
            <tspan x="406.502771" y="382.8">Eravur</tspan>
        </text>
        <text id="Trincomalee" font-family="FiraSansCondensed-Bold, Fira Sans Condensed" font-size="19.8" font-style="condensed" font-weight="bold" letter-spacing="0.0436764721" fill="#191919">
            <tspan x="339.858879" y="269.4">Trincomalee</tspan>
        </text>
        <text id="Kalmunai" font-family="FiraSansCondensed-Bold, Fira Sans Condensed" font-size="19.8" font-style="condensed" font-weight="bold" letter-spacing="0.0436764721" fill="#191919">
            <tspan x="436.474694" y="456.4">Kalmunai</tspan>
        </text>
        <text id="Akkaraipattu" font-family="FiraSansCondensed-Bold, Fira Sans Condensed" font-size="19.8" font-style="condensed" font-weight="bold" letter-spacing="0.0436764721" fill="#191919">
            <tspan x="434.767041" y="492.7">Akkaraipattu</tspan>
        </text>
        <text id="Valaichchenai" font-family="FiraSansCondensed-Bold, Fira Sans Condensed" font-size="19.8" font-style="condensed" font-weight="bold" letter-spacing="0.0436764721" fill="#191919">
            <tspan x="389.856403" y="364">Valaichchenai</tspan>
        </text>
        <text id="Batticaloa" font-family="FiraSansCondensed-Bold, Fira Sans Condensed" font-size="19.8" font-style="condensed" font-weight="bold" letter-spacing="0.0436764721" fill="#191919">
            <tspan x="415.573918" y="402.5">Batticaloa</tspan>
        </text>
        <ellipse id="Oval" fill="#C89497" cx="154" cy="108.5" rx="13" ry="12.5"></ellipse>
        <ellipse id="Oval" fill="#C89497" cx="321" cy="264.5" rx="13" ry="12.5"></ellipse>
        <ellipse id="Oval" fill="#C89497" cx="377" cy="381.5" rx="13" ry="12.5"></ellipse>
        <ellipse id="Oval" fill="#C89497" cx="371" cy="361.5" rx="13" ry="12.5"></ellipse>
        <ellipse id="Oval" fill="#C89497" cx="398" cy="394.5" rx="13" ry="12.5"></ellipse>
        <ellipse id="Oval" fill="#C89497" cx="417" cy="450.5" rx="13" ry="12.5"></ellipse>
        <ellipse id="Oval" fill="#C89497" cx="417" cy="484.5" rx="13" ry="12.5"></ellipse>
    </g>
</svg>