<?xml version="1.0" encoding="UTF-8"?>
<svg width="371px" height="419px" viewBox="0 0 371 419" version="1.1" xmlns="http://www.w3.org/2000/svg" xmlns:xlink="http://www.w3.org/1999/xlink">
    <title>lk-02</title>
    <g id="lk-02" stroke="none" stroke-width="1" fill="none" fill-rule="evenodd">
        <path d="M294.338835,240.438345 L294.16611,239.372595 L293.28999,237.529215 L292.962915,236.53329 L293.011425,235.480035 L293.323065,234.54585 L293.45463,233.55801 L292.962915,232.38054 L292.962915,232.368045 L294.256515,233.632245 L295.49352,236.561955 L296.40198,237.917295 L296.623215,238.50456 L297.5574,241.024875 L301.136115,246.722595 L302.839845,255.5742 L302.839845,255.58302 L302.773695,257.606475 L301.28385,258.84201 L299.86677,257.72187 L299.432385,257.263965 L299.228055,257.05302 L299.16264,256.549545 L299.08914,256.049745 L299.10531,255.8388 L299.52279,249.44871 L299.228055,247.242975 L298.12188,246.300705 L297.705135,245.39592 L294.338835,240.438345 Z M212.231985,105.318885 L212.25918,106.91898 L213.455025,107.764965 L213.446205,107.77305 L212.37384,108.771915 L211.423485,109.903815 L211.43157,109.90749 L213.012555,111.15552 L214.716285,111.02322 L216.108375,109.717125 L217.13958,107.901675 L217.81137,106.2222 L217.828275,106.23102 L221.46432,110.637345 L224.691705,116.19615 L226.010295,117.57207 L227.85294,118.110825 L229.326615,119.304465 L231.488985,124.562655 L232.037295,125.138895 L232.619415,125.756295 L232.6275,125.760705 L235.100775,126.88746 L236.33778,129.535665 L237.754125,134.85927 L238.008435,133.88172 L238.33551,133.500255 L238.88382,133.62447 L238.89264,133.628145 L239.86725,134.16249 L239.572515,135.140775 L242.372865,138.205725 L243.30705,139.72644 L243.298965,141.561 L242.56176,142.298205 L241.51365,142.78257 L240.55521,143.89683 L240.57138,143.888745 L241.3005,143.702055 L242.053875,143.508015 L242.24277,143.40438 L242.618355,143.20152 L242.627175,143.209605 L244.805715,147.963585 L245.12544,150.440535 L242.627175,150.846255 L242.618355,150.846255 L243.13506,149.20647 L242.464005,147.89376 L241.349745,147.70266 L240.55521,149.4549 L240.82569,150.81318 L241.537905,151.7775 L241.93113,152.808705 L241.18584,154.37793 L240.59637,153.92664 L239.49828,153.06963 L237.754125,151.98918 L235.9938,151.58346 L234.314325,152.295675 L233.011905,154.05159 L233.470545,154.97034 L235.02654,154.729995 L237.123495,152.995395 L238.56483,154.531545 L239.86725,156.37419 L241.439415,157.91034 L243.65103,158.547585 L248.27859,158.456445 L249.84267,157.462725 L248.81073,155.07765 L251.455995,153.8649 L252.50484,153.5415 L253.61763,153.62088 L253.62645,153.628965 L254.84655,154.33236 L255.96081,155.525265 L256.796505,156.915885 L257.507985,160.98999 L259.080885,166.23054 L259.129395,167.596905 L259.179375,168.96621 L257.90121,168.068775 L256.56645,165.369855 L255.39486,164.79876 L255.354435,165.53523 L255.838065,168.83832 L255.87849,169.090425 L256.427535,170.357565 L257.099325,170.67582 L257.713785,170.966145 L259.08897,170.966145 L260.170155,171.454185 L260.80887,175.34454 L261.578415,178.042725 L261.70998,178.489605 L261.922395,180.140415 L261.922395,180.1485 L264.330255,188.307735 L265.125525,192.936765 L263.298315,195.463695 L263.298315,195.47619 L262.282545,191.285955 L262.135545,190.69428 L260.603805,186.45039 L259.8666,186.45039 L259.743855,189.67263 L259.8666,190.686195 L259.793835,190.65312 L259.7196,190.94271 L259.7196,191.45574 L259.8666,192.067995 L260.202495,192.464895 L261.05436,192.72582 L261.062445,192.73023 L261.23517,193.048485 L262.05396,195.178515 L263.823105,196.47726 L263.83119,196.47726 L265.518015,196.336875 L266.107485,194.15319 L266.721945,194.15319 L267.361395,195.3189 L267.53265,195.63348 L268.36026,199.301865 L269.203305,200.71233 L270.32565,201.944925 L271.04595,203.144445 L272.291775,206.01462 L272.782755,205.51776 L273.429555,205.02972 L273.72429,204.562995 L274.16676,205.509675 L273.72429,206.01462 L273.94626,206.37771 L274.14177,206.618055 L274.174845,206.68053 L274.289505,206.882655 L274.35492,207.33762 L274.363005,207.329535 L274.862805,206.91573 L275.894745,206.419605 L276.4188,206.01462 L276.4188,206.022705 L276.656205,206.593065 L276.94359,207.28764 L276.73044,208.11084 L276.37764,208.92963 L276.394545,209.56173 L276.4188,210.173985 L277.123665,211.538145 L278.36802,212.493645 L279.17946,213.11766 L279.916665,214.33776 L279.449205,214.366425 L279.2118,214.528125 L278.908245,214.73466 L278.72082,214.854465 L278.531925,214.96986 L278.236455,216.07824 L277.942455,217.185885 L279.12213,220.650675 L279.760845,221.38641 L281.20218,223.048245 L281.21835,223.048245 L283.347645,222.65943 L284.035605,222.65943 L284.73165,224.779905 L285.526185,226.089675 L285.771675,226.495395 L290.112585,231.04137 L291.51276,233.260335 L291.758985,235.22352 L289.5312,235.89678 L289.523115,235.90119 L288.491175,235.19853 L286.017165,232.046115 L284.723565,230.92524 L283.05291,230.30931 L283.03674,230.30931 L282.864015,230.326215 L281.67699,230.42985 L280.628145,231.503685 L279.916665,233.75646 L281.11986,234.30624 L282.28263,234.471615 L283.28223,234.099705 L284.035605,233.06262 L285.22263,233.508765 L286.312635,234.054135 L286.688955,234.50028 L286.94253,234.809715 L286.787445,235.90119 L288.12294,237.15363 L289.456965,238.405335 L290.50581,239.612205 L291.603165,241.446765 L291.594345,241.45044 L291.07911,242.049465 L290.947545,242.63232 L291.12027,243.329835 L291.603165,244.28901 L292.22571,243.52461 L291.848655,242.14428 L291.848655,242.136195 L293.036415,242.558085 L295.370775,244.28901 L295.927905,245.09898 L297.7779,249.828705 L297.66324,250.03083 L297.090675,252.601125 L297.17226,252.88116 L297.189165,252.923055 L297.66324,253.90575 L297.7779,254.30265 L297.38541,255.000165 L296.664375,255.55803 L296.230725,256.177635 L296.746695,257.07801 L297.237675,257.72628 L297.409665,258.2349 L297.434655,258.300315 L297.72939,258.879495 L298.466595,259.535115 L297.38541,260.31642 L297.483165,260.7045 L297.581655,261.096255 L298.39236,261.26604 L299.2038,260.22528 L299.82561,260.22528 L299.833695,260.228955 L300.603975,264.32217 L300.57972,265.829655 L301.28385,265.829655 L301.28385,265.79217 L301.365435,264.371415 L301.610925,262.967565 L302.037225,261.769515 L302.65977,260.91912 L302.65977,260.228955 L302.60244,260.068725 L302.381205,259.432215 L302.56128,259.114695 L303.11841,259.349895 L304.01952,260.22528 L304.32969,261.02643 L304.559745,263.177775 L306.10692,265.6437 L308.621355,274.277745 L308.14728,298.1307 L308.39277,299.73594 L309.42471,303.32127 L309.588615,305.43366 L309.01458,309.465135 L304.37967,325.555755 L304.117275,327.213915 L304.01952,329.408625 L303.674805,331.238775 L302.225385,334.064115 L301.906395,335.325375 L301.33236,337.057035 L299.383875,340.11243 L298.466595,341.54715 L299.15382,344.01234 L298.04838,346.93911 L291.648,357.084315 L290.753505,356.785905 L288.30963,356.0193 L286.634565,354.10536 L285.34464,353.92749 L284.19069,353.851785 L281.18454,350.142975 L283.80555,312.96006 L283.306485,310.955715 L282.099615,309.22185 L282.089325,307.26234 L281.39181,305.312385 L281.86074,303.31098 L282.058455,301.406595 L279.08391,299.611725 L275.494905,298.684155 L274.97526,298.222575 L274.35051,297.850665 L273.60228,297.850665 L272.79084,297.49419 L272.011005,296.102835 L271.605285,294.529935 L270.304335,292.161765 L271.480335,289.014495 L273.580965,286.521375 L275.214135,285.23145 L273.029715,282.20178 L272.738655,280.0203 L271.334805,277.56246 L269.10849,275.624265 L268.703505,273.669165 L268.8483,271.246605 L267.652455,265.90242 L267.85017,264.538995 L267.18426,264.421395 L266.549955,264.03552 L268.03686,261.722475 L266.06118,261.184455 L263.543805,262.535385 L262.32738,262.960215 L261.213855,263.458545 L260.839005,264.40743 L260.15325,265.49376 L258.758955,265.85538 L257.729955,265.93329 L257.750535,267.2607 L258.301785,268.456545 L258.416445,269.64945 L257.95854,270.648315 L257.261025,271.49283 L256.793565,272.205045 L254.754675,273.33768 L252.258615,273.225225 L252.268905,277.12146 L252.799575,280.90671 L250.92753,282.27822 L248.88864,282.987495 L248.004435,281.33889 L247.213575,279.375705 L246.860775,277.55658 L245.955255,275.72643 L245.258475,274.549695 L244.842465,273.647115 L243.604725,273.411915 L242.731545,273.62433 L241.22259,272.13228 L240.1098,269.75676 L239.454915,265.291635 L239.049195,264.027435 L238.747845,262.776465 L239.028615,261.863595 L239.58942,260.81769 L240.65076,255.88437 L240.26562,250.809195 L235.793145,249.836055 L230.85321,252.61068 L228.710685,254.59371 L227.49279,255.063375 L226.48437,255.297105 L224.653485,255.9417 L222.17874,251.80071 L221.37759,249.36639 L221.241615,247.71117 L220.58673,246.265425 L219.06822,245.329035 L218.78745,245.061495 L219.75471,240.25533 L219.536415,238.300965 L218.80803,236.012175 L218.88153,234.31506 L220.774155,234.30918 L224.528535,233.94756 L226.36971,233.62122 L230.030745,235.033155 L233.006025,238.02681 L237.873195,239.541645 L240.24504,240.90066 L242.211165,241.136595 L242.45004,240.089955 L242.918235,238.90146 L243.563565,238.224525 L244.114815,237.135255 L243.80244,234.73695 L244.260345,232.451835 L242.834445,224.59395 L243.719385,216.774285 L244.47864,213.82326 L246.735825,212.298135 L249.617025,211.89609 L253.26777,212.378985 L254.19387,212.308425 L253.361115,208.52244 L251.676495,204.851115 L250.93782,201.10923 L251.748525,185.078145 L251.21859,179.77659 L249.65892,179.78688 L248.399865,179.784675 L247.48479,180.772515 L246.81888,181.986 L246.059625,182.55636 L245.362845,183.16347 L244.72854,185.821965 L244.21845,186.79437 L242.79402,190.13274 L240.26562,190.708245 L239.776845,190.54287 L239.38215,190.25916 L240.54639,189.523425 L241.08735,188.257755 L240.733815,186.32691 L240.77571,185.01567 L240.61989,183.722805 L239.901795,182.7063 L238.633185,182.80332 L236.854485,181.88898 L235.23234,180.635805 L233.557275,179.684715 L231.757995,179.681775 L224.13384,177.81414 L219.88995,178.23162 L218.63163,176.965215 L218.214885,174.846945 L216.67653,173.632725 L215.04336,173.002095 L213.86736,171.257205 L212.359875,171.69894 L214.54356,163.88442 L214.77288,162.604785 L215.18889,161.3766 L216.42663,160.15209 L217.862085,159.22158 L218.694105,157.719975 L218.017905,156.155895 L216.85293,155.25405 L215.94741,154.105245 L214.534005,150.72645 L211.870365,146.75304 L211.454355,144.32607 L210.38346,143.278695 L209.530125,142.30629 L209.44707,140.22771 L211.007475,136.57182 L210.23793,134.44914 L208.376175,130.35519 L208.3137,125.98047 L210.019635,123.457215 L211.1949,120.81489 L210.23793,120.08577 L209.42649,118.991355 L207.876375,117.286155 L203.49798,114.216795 L200.92842,112.758555 L197.974455,112.69314 L195.13515,113.85885 L195.58203,112.07721 L196.414785,110.62632 L200.36688,108.77853 L205.02678,108.173625 L206.95101,107.615025 L208.698105,106.57794 L210.632625,106.02522 L212.224635,105.32256 L212.231985,105.318885 L212.231985,105.318885 Z" id="Fill-1" fill="#FFFFFE"></path>
        <path d="M294.338835,240.438345 L294.16611,239.372595 L293.28999,237.529215 L292.962915,236.53329 L293.011425,235.480035 L293.323065,234.54585 L293.45463,233.55801 L292.962915,232.38054 L292.962915,232.368045 L294.256515,233.632245 L295.49352,236.561955 L296.40198,237.917295 L296.623215,238.50456 L297.5574,241.024875 L301.136115,246.722595 L302.839845,255.5742 L302.839845,255.58302 L302.773695,257.606475 L301.28385,258.84201 L299.86677,257.72187 L299.432385,257.263965 L299.228055,257.05302 L299.16264,256.549545 L299.08914,256.049745 L299.10531,255.8388 L299.52279,249.44871 L299.228055,247.242975 L298.12188,246.300705 L297.705135,245.39592 L294.338835,240.438345 Z M212.231985,105.318885 L212.25918,106.91898 L213.455025,107.764965 L213.446205,107.77305 L212.37384,108.771915 L211.423485,109.903815 L211.43157,109.90749 L213.012555,111.15552 L214.716285,111.02322 L216.108375,109.717125 L217.13958,107.901675 L217.81137,106.2222 L217.828275,106.23102 L221.46432,110.637345 L224.691705,116.19615 L226.010295,117.57207 L227.85294,118.110825 L229.326615,119.304465 L231.488985,124.562655 L232.037295,125.138895 L232.619415,125.756295 L232.6275,125.760705 L235.100775,126.88746 L236.33778,129.535665 L237.754125,134.85927 L238.008435,133.88172 L238.33551,133.500255 L238.88382,133.62447 L238.89264,133.628145 L239.86725,134.16249 L239.572515,135.140775 L242.372865,138.205725 L243.30705,139.72644 L243.298965,141.561 L242.56176,142.298205 L241.51365,142.78257 L240.55521,143.89683 L240.57138,143.888745 L241.3005,143.702055 L242.053875,143.508015 L242.24277,143.40438 L242.618355,143.20152 L242.627175,143.209605 L244.805715,147.963585 L245.12544,150.440535 L242.627175,150.846255 L242.618355,150.846255 L243.13506,149.20647 L242.464005,147.89376 L241.349745,147.70266 L240.55521,149.4549 L240.82569,150.81318 L241.537905,151.7775 L241.93113,152.808705 L241.18584,154.37793 L240.59637,153.92664 L239.49828,153.06963 L237.754125,151.98918 L235.9938,151.58346 L234.314325,152.295675 L233.011905,154.05159 L233.470545,154.97034 L235.02654,154.729995 L237.123495,152.995395 L238.56483,154.531545 L239.86725,156.37419 L241.439415,157.91034 L243.65103,158.547585 L248.27859,158.456445 L249.84267,157.462725 L248.81073,155.07765 L251.455995,153.8649 L252.50484,153.5415 L253.61763,153.62088 L253.62645,153.628965 L254.84655,154.33236 L255.96081,155.525265 L256.796505,156.915885 L257.507985,160.98999 L259.080885,166.23054 L259.129395,167.596905 L259.179375,168.96621 L257.90121,168.068775 L256.56645,165.369855 L255.39486,164.79876 L255.354435,165.53523 L255.838065,168.83832 L255.87849,169.090425 L256.427535,170.357565 L257.099325,170.67582 L257.713785,170.966145 L259.08897,170.966145 L260.170155,171.454185 L260.80887,175.34454 L261.578415,178.042725 L261.70998,178.489605 L261.922395,180.140415 L261.922395,180.1485 L264.330255,188.307735 L265.125525,192.936765 L263.298315,195.463695 L263.298315,195.47619 L262.282545,191.285955 L262.135545,190.69428 L260.603805,186.45039 L259.8666,186.45039 L259.743855,189.67263 L259.8666,190.686195 L259.793835,190.65312 L259.7196,190.94271 L259.7196,191.45574 L259.8666,192.067995 L260.202495,192.464895 L261.05436,192.72582 L261.062445,192.73023 L261.23517,193.048485 L262.05396,195.178515 L263.823105,196.47726 L263.83119,196.47726 L265.518015,196.336875 L266.107485,194.15319 L266.721945,194.15319 L267.361395,195.3189 L267.53265,195.63348 L268.36026,199.301865 L269.203305,200.71233 L270.32565,201.944925 L271.04595,203.144445 L272.291775,206.01462 L272.782755,205.51776 L273.429555,205.02972 L273.72429,204.562995 L274.16676,205.509675 L273.72429,206.01462 L273.94626,206.37771 L274.14177,206.618055 L274.174845,206.68053 L274.289505,206.882655 L274.35492,207.33762 L274.363005,207.329535 L274.862805,206.91573 L275.894745,206.419605 L276.4188,206.01462 L276.4188,206.022705 L276.656205,206.593065 L276.94359,207.28764 L276.73044,208.11084 L276.37764,208.92963 L276.394545,209.56173 L276.4188,210.173985 L277.123665,211.538145 L278.36802,212.493645 L279.17946,213.11766 L279.916665,214.33776 L279.449205,214.366425 L279.2118,214.528125 L278.908245,214.73466 L278.72082,214.854465 L278.531925,214.96986 L278.236455,216.07824 L277.942455,217.185885 L279.12213,220.650675 L279.760845,221.38641 L281.20218,223.048245 L281.21835,223.048245 L283.347645,222.65943 L284.035605,222.65943 L284.73165,224.779905 L285.526185,226.089675 L285.771675,226.495395 L290.112585,231.04137 L291.51276,233.260335 L291.758985,235.22352 L289.5312,235.89678 L289.523115,235.90119 L288.491175,235.19853 L286.017165,232.046115 L284.723565,230.92524 L283.05291,230.30931 L283.03674,230.30931 L282.864015,230.326215 L281.67699,230.42985 L280.628145,231.503685 L279.916665,233.75646 L281.11986,234.30624 L282.28263,234.471615 L283.28223,234.099705 L284.035605,233.06262 L285.22263,233.508765 L286.312635,234.054135 L286.688955,234.50028 L286.94253,234.809715 L286.787445,235.90119 L288.12294,237.15363 L289.456965,238.405335 L290.50581,239.612205 L291.603165,241.446765 L291.594345,241.45044 L291.07911,242.049465 L290.947545,242.63232 L291.12027,243.329835 L291.603165,244.28901 L292.22571,243.52461 L291.848655,242.14428 L291.848655,242.136195 L293.036415,242.558085 L295.370775,244.28901 L295.927905,245.09898 L297.7779,249.828705 L297.66324,250.03083 L297.090675,252.601125 L297.17226,252.88116 L297.189165,252.923055 L297.66324,253.90575 L297.7779,254.30265 L297.38541,255.000165 L296.664375,255.55803 L296.230725,256.177635 L296.746695,257.07801 L297.237675,257.72628 L297.409665,258.2349 L297.434655,258.300315 L297.72939,258.879495 L298.466595,259.535115 L297.38541,260.31642 L297.483165,260.7045 L297.581655,261.096255 L298.39236,261.26604 L299.2038,260.22528 L299.82561,260.22528 L299.833695,260.228955 L300.603975,264.32217 L300.57972,265.829655 L301.28385,265.829655 L301.28385,265.79217 L301.365435,264.371415 L301.610925,262.967565 L302.037225,261.769515 L302.65977,260.91912 L302.65977,260.228955 L302.60244,260.068725 L302.381205,259.432215 L302.56128,259.114695 L303.11841,259.349895 L304.01952,260.22528 L304.32969,261.02643 L304.559745,263.177775 L306.10692,265.6437 L308.621355,274.277745 L308.14728,298.1307 L308.39277,299.73594 L309.42471,303.32127 L309.588615,305.43366 L309.01458,309.465135 L304.37967,325.555755 L304.117275,327.213915 L304.01952,329.408625 L303.674805,331.238775 L302.225385,334.064115 L301.906395,335.325375 L301.33236,337.057035 L299.383875,340.11243 L298.466595,341.54715 L299.15382,344.01234 L298.04838,346.93911 L291.648,357.084315 L290.753505,356.785905 L288.30963,356.0193 L286.634565,354.10536 L285.34464,353.92749 L284.19069,353.851785 L281.18454,350.142975 L283.80555,312.96006 L283.306485,310.955715 L282.099615,309.22185 L282.089325,307.26234 L281.39181,305.312385 L281.86074,303.31098 L282.058455,301.406595 L279.08391,299.611725 L275.494905,298.684155 L274.97526,298.222575 L274.35051,297.850665 L273.60228,297.850665 L272.79084,297.49419 L272.011005,296.102835 L271.605285,294.529935 L270.304335,292.161765 L271.480335,289.014495 L273.580965,286.521375 L275.214135,285.23145 L273.029715,282.20178 L272.738655,280.0203 L271.334805,277.56246 L269.10849,275.624265 L268.703505,273.669165 L268.8483,271.246605 L267.652455,265.90242 L267.85017,264.538995 L267.18426,264.421395 L266.549955,264.03552 L268.03686,261.722475 L266.06118,261.184455 L263.543805,262.535385 L262.32738,262.960215 L261.213855,263.458545 L260.839005,264.40743 L260.15325,265.49376 L258.758955,265.85538 L257.729955,265.93329 L257.750535,267.2607 L258.301785,268.456545 L258.416445,269.64945 L257.95854,270.648315 L257.261025,271.49283 L256.793565,272.205045 L254.754675,273.33768 L252.258615,273.225225 L252.268905,277.12146 L252.799575,280.90671 L250.92753,282.27822 L248.88864,282.987495 L248.004435,281.33889 L247.213575,279.375705 L246.860775,277.55658 L245.955255,275.72643 L245.258475,274.549695 L244.842465,273.647115 L243.604725,273.411915 L242.731545,273.62433 L241.22259,272.13228 L240.1098,269.75676 L239.454915,265.291635 L239.049195,264.027435 L238.747845,262.776465 L239.028615,261.863595 L239.58942,260.81769 L240.65076,255.88437 L240.26562,250.809195 L235.793145,249.836055 L230.85321,252.61068 L228.710685,254.59371 L227.49279,255.063375 L226.48437,255.297105 L224.653485,255.9417 L222.17874,251.80071 L221.37759,249.36639 L221.241615,247.71117 L220.58673,246.265425 L219.06822,245.329035 L218.78745,245.061495 L219.75471,240.25533 L219.536415,238.300965 L218.80803,236.012175 L218.88153,234.31506 L220.774155,234.30918 L224.528535,233.94756 L226.36971,233.62122 L230.030745,235.033155 L233.006025,238.02681 L237.873195,239.541645 L240.24504,240.90066 L242.211165,241.136595 L242.45004,240.089955 L242.918235,238.90146 L243.563565,238.224525 L244.114815,237.135255 L243.80244,234.73695 L244.260345,232.451835 L242.834445,224.59395 L243.719385,216.774285 L244.47864,213.82326 L246.735825,212.298135 L249.617025,211.89609 L253.26777,212.378985 L254.19387,212.308425 L253.361115,208.52244 L251.676495,204.851115 L250.93782,201.10923 L251.748525,185.078145 L251.21859,179.77659 L249.65892,179.78688 L248.399865,179.784675 L247.48479,180.772515 L246.81888,181.986 L246.059625,182.55636 L245.362845,183.16347 L244.72854,185.821965 L244.21845,186.79437 L242.79402,190.13274 L240.26562,190.708245 L239.776845,190.54287 L239.38215,190.25916 L240.54639,189.523425 L241.08735,188.257755 L240.733815,186.32691 L240.77571,185.01567 L240.61989,183.722805 L239.901795,182.7063 L238.633185,182.80332 L236.854485,181.88898 L235.23234,180.635805 L233.557275,179.684715 L231.757995,179.681775 L224.13384,177.81414 L219.88995,178.23162 L218.63163,176.965215 L218.214885,174.846945 L216.67653,173.632725 L215.04336,173.002095 L213.86736,171.257205 L212.359875,171.69894 L214.54356,163.88442 L214.77288,162.604785 L215.18889,161.3766 L216.42663,160.15209 L217.862085,159.22158 L218.694105,157.719975 L218.017905,156.155895 L216.85293,155.25405 L215.94741,154.105245 L214.534005,150.72645 L211.870365,146.75304 L211.454355,144.32607 L210.38346,143.278695 L209.530125,142.30629 L209.44707,140.22771 L211.007475,136.57182 L210.23793,134.44914 L208.376175,130.35519 L208.3137,125.98047 L210.019635,123.457215 L211.1949,120.81489 L210.23793,120.08577 L209.42649,118.991355 L207.876375,117.286155 L203.49798,114.216795 L200.92842,112.758555 L197.974455,112.69314 L195.13515,113.85885 L195.58203,112.07721 L196.414785,110.62632 L200.36688,108.77853 L205.02678,108.173625 L206.95101,107.615025 L208.698105,106.57794 L210.632625,106.02522 L212.224635,105.32256 L212.231985,105.318885 Z" id="Stroke-2" stroke="#0C0E0F" stroke-width="0.5" fill-opacity="0.0478310752" fill="#1A1A1A" stroke-linecap="round" stroke-linejoin="round"></path>
        <path d="M90.580665,96.482715 L89.459055,96.038775 L88.959255,95.06049 L89.278245,94.08147 L90.580665,93.633855 L95.077395,93.633855 L97.06704,94.148355 L99.122835,94.679025 L103.4145,96.321015 L107.50992,98.709765 L110.948985,102.05181 L110.9409,102.0474 L109.2945,101.70342 L106.39566,100.260615 L104.69193,99.962205 L107.304855,102.94704 L109.36065,105.30198 L110.261025,106.91898 L107.8539,106.612485 L106.281,105.39312 L105.199815,104.066445 L104.38911,103.43655 L103.349085,102.90588 L99.205155,99.199275 L97.14936,98.27832 L95.093565,97.3581 L93.586815,96.947235 L92.78346,96.72747 L90.580665,96.482715 Z M108.868935,41.21586 L107.31294,40.08249 L105.756945,37.74372 L103.316745,32.8545 L104.43027,31.1052 L104.683845,28.86639 L105.314475,27.050205 L107.50992,26.57613 L108.67269,26.929665 L108.68886,26.934075 L108.786615,27.794025 L108.394125,28.99428 L108.123645,30.382695 L108.164805,31.78287 L108.311805,32.90007 L108.320625,32.96622 L108.410295,33.19113 L108.754275,34.0011 L109.212915,34.52883 L109.573065,34.944105 L109.999365,35.05215 L111.948585,34.944105 L112.276395,35.246925 L112.423395,36.780135 L112.668885,37.41591 L113.815485,38.142825 L115.37148,38.811675 L116.6739,39.55476 L116.780475,39.787755 L117.124455,40.518345 L116.42841,41.24085 L115.101735,41.248935 L113.67657,40.804995 L112.668885,40.16922 L111.95667,39.995025 L110.1471,41.066655 L108.87702,41.21586 L108.868935,41.21586 Z M92.26014,53.188275 L91.456785,53.960025 L90.637995,54.73251 L88.099305,54.88245 L85.74069,54.09747 L84.70875,52.810485 L84.70875,48.62907 L85.003485,47.55744 L85.66719,47.694885 L86.35515,48.5541 L86.77263,49.638225 L88.5087,50.186535 L90.580665,50.343825 L91.096635,50.72235 L92.26014,53.188275 Z M182.348355,57.82392 L194.265645,67.522245 L194.37222,67.704525 L195.07635,68.89155 L196.20678,70.302015 L198.368415,72.343845 L199.744335,74.132835 L198.524235,74.77596 L198.51615,74.779635 L197.82819,74.46873 L197.746605,74.431245 L197.7297,74.42757 L196.673505,73.05753 L196.09212,72.75912 L196.0833,72.751035 L194.265645,72.45189 L193.47111,72.69297 L193.864335,73.50588 L193.995165,73.76313 L199.221015,78.65088 L201.259905,79.77543 L201.26799,79.779105 L200.457285,78.51417 L199.96557,77.360955 L200.21988,76.50174 L201.61197,76.17393 L202.266855,76.61787 L203.33187,79.779105 L204.30648,81.725385 L208.13142,89.3907 L207.36114,89.109195 L205.231845,88.316865 L203.897085,88.291875 L203.33187,89.7435 L204.11832,90.11247 L205.7559,90.382215 L207.21414,91.30317 L207.23031,91.427385 L207.44346,93.633855 L208.13142,93.633855 L208.467315,93.048795 L208.770135,92.795955 L209.11338,92.63058 L209.572755,92.306445 L209.572755,92.31453 L210.088725,94.33872 L210.146055,94.59156 L211.570485,97.85496 L213.47928,100.782465 L215.420415,102.05181 L215.56815,102.17235 L215.796735,102.367125 L215.789385,103.080075 L215.321925,103.7967 L214.388475,104.13333 L214.117995,103.834185 L213.012555,102.05181 L211.808625,101.413095 L209.0487,100.700145 L207.44346,99.962205 L208.180665,100.99047 L208.59006,101.5623 L212.226105,104.97858 L212.231985,105.318885 L212.224635,105.32256 L210.632625,106.02522 L208.698105,106.57794 L206.95101,107.615025 L205.02678,108.173625 L200.36688,108.77853 L196.414785,110.62632 L195.58203,112.07721 L195.13515,113.85885 L192.36861,114.38511 L189.726285,115.14069 L186.80319,117.19134 L179.31501,117.45153 L179.5017,119.68593 L182.123445,120.596595 L183.974175,122.99637 L184.81722,125.632815 L182.424795,127.53279 L181.00992,129.266655 L179.793495,131.139435 L177.598785,133.71267 L175.05054,136.01175 L172.367055,138.066075 L169.16319,138.089595 L167.457255,136.869495 L165.5955,135.877245 L162.52761,137.289915 L158.56449,142.45329 L156.692445,146.83977 L154.903455,147.62034 L153.36363,150.405255 L152.38608,150.34719 L151.335765,150.05319 L149.21382,148.91688 L148.14219,146.761125 L147.768075,145.38006 L147.122745,144.12615 L145.63584,143.444805 L144.10704,142.918545 L143.07657,140.052045 L143.03541,136.74528 L133.24815,139.32072 L128.30748,139.305285 L123.824715,137.473665 L124.62513,143.43966 L124.417125,152.871915 L123.449865,152.758725 L122.617845,152.34639 L119.93436,150.831555 L117.35451,149.734935 L114.379965,149.458575 L111.728085,148.444275 L110.574135,147.773955 L110.948985,147.3675 L111.11289,146.866965 L112.11249,143.752035 L112.251405,143.619735 L112.324905,143.549175 L112.54614,142.637775 L113.480325,140.600355 L114.372615,130.691085 L111.948585,124.368615 L112.14483,123.270525 L112.324905,116.05944 L112.324905,115.96389 L112.079415,113.55162 L111.78468,112.366065 L111.260625,111.470835 L110.85123,110.45139 L111.78468,109.944975 L113.13561,109.692135 L114.028635,109.418715 L119.86821,104.13333 L122.914785,102.62805 L124.18413,101.513055 L124.85592,99.033165 L126.05985,96.482715 L126.74781,92.937075 L129.982545,84.53382 L130.097205,84.0693 L130.40076,82.841115 L131.02257,80.35608 L131.02257,74.431245 L131.243805,73.563945 L131.04756,72.978885 L129.867885,72.751035 L127.09179,71.298675 L126.010605,70.285845 L125.33073,68.36823 L125.21607,68.01984 L124.733175,65.628885 L124.68393,64.272075 L125.88786,62.997585 L128.115645,61.88112 L130.58892,61.08879 L132.619725,60.785235 L133.52892,60.316305 L135.7398,57.368955 L135.99411,57.177855 L136.37925,56.879445 L137.11572,56.43918 L138.02565,56.098875 L139.180335,55.91586 L138.221895,54.139365 L137.648595,53.35806 L137.06721,52.57749 L135.584715,51.108225 L133.62741,49.638225 L126.182595,45.244395 L124.68393,43.371615 L127.92675,43.47525 L130.998315,44.71299 L137.059125,48.25128 L142.84137,49.713195 L144.36429,50.69295 L146.74716,52.785495 L147.337365,53.8902 L146.108445,54.52083 L146.378925,55.218345 L146.739075,55.91586 L146.108445,56.604555 L146.11653,56.608965 L148.22157,58.033395 L153.19311,56.81256 L162.284325,53.188275 L164.73261,53.424945 L170.097375,54.911115 L176.42793,57.77541 L181.20249,58.6971 L181.21866,58.6971 L174.372135,53.98134 L172.01352,52.88472 L169.916565,52.428285 L169.60566,52.282755 L169.302105,52.13796 L167.48445,50.751015 L166.79649,50.343825 L166.10853,50.23578 L165.281655,50.277675 L164.036565,50.343825 L163.250115,50.64738 L163.135455,50.821575 L162.914955,51.19128 L162.520995,51.394875 L161.186235,50.402625 L160.654095,50.31075 L157.386285,50.398215 L156.452835,50.12406 L149.29467,43.894935 L146.22384,41.897205 L146.21502,41.897205 L145.11693,41.41137 L139.941795,39.135075 L138.07416,38.05095 L136.82172,38.03478 L137.059125,40.518345 L137.75517,41.248935 L138.836355,42.07581 L139.47507,43.084965 L138.836355,44.388855 L138.07416,44.62185 L137.33769,44.222745 L136.6659,43.658265 L134.73285,42.64911 L130.973325,39.355575 L128.81169,38.425065 L128.819775,38.43315 L129.91713,39.6459 L131.899425,41.3658 L132.99678,42.611625 L130.555845,42.138285 L128.147985,41.12913 L123.30801,38.425065 L119.45073,35.376285 L117.15753,34.561905 L116.92821,34.420785 L116.05944,33.85557 L115.248735,33.52776 L115.12599,34.250265 L114.02055,33.490275 L113.60307,32.505375 L113.40609,31.33011 L113.0136,30.000495 L112.349895,28.86639 L111.95667,28.351155 L110.92473,26.99655 L110.261025,25.82055 L112.439565,24.723195 L116.404155,21.03717 L118.18947,20.239695 L118.197555,20.239695 L126.05985,20.937945 L130.16262,20.476365 L131.66202,20.65056 L132.25149,22.013985 L132.153,24.154305 L132.447735,24.898125 L133.307685,25.180365 L134.14338,25.300905 L136.55124,25.924185 L137.059125,26.19834 L137.50968,27.09651 L138.59013,27.05829 L139.441995,26.79663 L139.769805,26.697405 L140.260785,26.62611 L140.604765,26.57613 L140.613585,26.58054 L141.391215,27.03771 L141.72711,27.23322 L144.544365,30.31581 L153.42243,40.020015 L156.55059,41.997165 L163.80651,45.360525 L164.036565,45.460485 L164.036565,44.704905 L160.383615,42.848295 L151.538625,35.57547 L144.29079,27.170745 L140.604765,25.184775 L134.83134,23.808855 L133.307685,22.712235 L133.11144,21.16212 L135.224565,20.239695 L135.912525,20.12283 L138.008745,19.77003 L142.177665,19.562025 L144.184215,19.94055 L145.576305,20.924715 L146.50167,24.266025 L147.427035,25.662525 L160.60485,41.21586 L162.545985,42.64911 L166.4775,44.90409 L182.348355,57.82392 L182.348355,57.82392 Z" id="Fill-3" fill="#FFFFFE"></path>
        <path d="M90.580665,96.482715 L89.459055,96.038775 L88.959255,95.06049 L89.278245,94.08147 L90.580665,93.633855 L95.077395,93.633855 L97.06704,94.148355 L99.122835,94.679025 L103.4145,96.321015 L107.50992,98.709765 L110.948985,102.05181 L110.9409,102.0474 L109.2945,101.70342 L106.39566,100.260615 L104.69193,99.962205 L107.304855,102.94704 L109.36065,105.30198 L110.261025,106.91898 L107.8539,106.612485 L106.281,105.39312 L105.199815,104.066445 L104.38911,103.43655 L103.349085,102.90588 L99.205155,99.199275 L97.14936,98.27832 L95.093565,97.3581 L93.586815,96.947235 L92.78346,96.72747 L90.580665,96.482715 Z M108.868935,41.21586 L107.31294,40.08249 L105.756945,37.74372 L103.316745,32.8545 L104.43027,31.1052 L104.683845,28.86639 L105.314475,27.050205 L107.50992,26.57613 L108.67269,26.929665 L108.68886,26.934075 L108.786615,27.794025 L108.394125,28.99428 L108.123645,30.382695 L108.164805,31.78287 L108.311805,32.90007 L108.320625,32.96622 L108.410295,33.19113 L108.754275,34.0011 L109.212915,34.52883 L109.573065,34.944105 L109.999365,35.05215 L111.948585,34.944105 L112.276395,35.246925 L112.423395,36.780135 L112.668885,37.41591 L113.815485,38.142825 L115.37148,38.811675 L116.6739,39.55476 L116.780475,39.787755 L117.124455,40.518345 L116.42841,41.24085 L115.101735,41.248935 L113.67657,40.804995 L112.668885,40.16922 L111.95667,39.995025 L110.1471,41.066655 L108.87702,41.21586 L108.868935,41.21586 Z M92.26014,53.188275 L91.456785,53.960025 L90.637995,54.73251 L88.099305,54.88245 L85.74069,54.09747 L84.70875,52.810485 L84.70875,48.62907 L85.003485,47.55744 L85.66719,47.694885 L86.35515,48.5541 L86.77263,49.638225 L88.5087,50.186535 L90.580665,50.343825 L91.096635,50.72235 L92.26014,53.188275 Z M182.348355,57.82392 L194.265645,67.522245 L194.37222,67.704525 L195.07635,68.89155 L196.20678,70.302015 L198.368415,72.343845 L199.744335,74.132835 L198.524235,74.77596 L198.51615,74.779635 L197.82819,74.46873 L197.746605,74.431245 L197.7297,74.42757 L196.673505,73.05753 L196.09212,72.75912 L196.0833,72.751035 L194.265645,72.45189 L193.47111,72.69297 L193.864335,73.50588 L193.995165,73.76313 L199.221015,78.65088 L201.259905,79.77543 L201.26799,79.779105 L200.457285,78.51417 L199.96557,77.360955 L200.21988,76.50174 L201.61197,76.17393 L202.266855,76.61787 L203.33187,79.779105 L204.30648,81.725385 L208.13142,89.3907 L207.36114,89.109195 L205.231845,88.316865 L203.897085,88.291875 L203.33187,89.7435 L204.11832,90.11247 L205.7559,90.382215 L207.21414,91.30317 L207.23031,91.427385 L207.44346,93.633855 L208.13142,93.633855 L208.467315,93.048795 L208.770135,92.795955 L209.11338,92.63058 L209.572755,92.306445 L209.572755,92.31453 L210.088725,94.33872 L210.146055,94.59156 L211.570485,97.85496 L213.47928,100.782465 L215.420415,102.05181 L215.56815,102.17235 L215.796735,102.367125 L215.789385,103.080075 L215.321925,103.7967 L214.388475,104.13333 L214.117995,103.834185 L213.012555,102.05181 L211.808625,101.413095 L209.0487,100.700145 L207.44346,99.962205 L208.180665,100.99047 L208.59006,101.5623 L212.226105,104.97858 L212.231985,105.318885 L212.224635,105.32256 L210.632625,106.02522 L208.698105,106.57794 L206.95101,107.615025 L205.02678,108.173625 L200.36688,108.77853 L196.414785,110.62632 L195.58203,112.07721 L195.13515,113.85885 L192.36861,114.38511 L189.726285,115.14069 L186.80319,117.19134 L179.31501,117.45153 L179.5017,119.68593 L182.123445,120.596595 L183.974175,122.99637 L184.81722,125.632815 L182.424795,127.53279 L181.00992,129.266655 L179.793495,131.139435 L177.598785,133.71267 L175.05054,136.01175 L172.367055,138.066075 L169.16319,138.089595 L167.457255,136.869495 L165.5955,135.877245 L162.52761,137.289915 L158.56449,142.45329 L156.692445,146.83977 L154.903455,147.62034 L153.36363,150.405255 L152.38608,150.34719 L151.335765,150.05319 L149.21382,148.91688 L148.14219,146.761125 L147.768075,145.38006 L147.122745,144.12615 L145.63584,143.444805 L144.10704,142.918545 L143.07657,140.052045 L143.03541,136.74528 L133.24815,139.32072 L128.30748,139.305285 L123.824715,137.473665 L124.62513,143.43966 L124.417125,152.871915 L123.449865,152.758725 L122.617845,152.34639 L119.93436,150.831555 L117.35451,149.734935 L114.379965,149.458575 L111.728085,148.444275 L110.574135,147.773955 L110.948985,147.3675 L111.11289,146.866965 L112.11249,143.752035 L112.251405,143.619735 L112.324905,143.549175 L112.54614,142.637775 L113.480325,140.600355 L114.372615,130.691085 L111.948585,124.368615 L112.14483,123.270525 L112.324905,116.05944 L112.324905,115.96389 L112.079415,113.55162 L111.78468,112.366065 L111.260625,111.470835 L110.85123,110.45139 L111.78468,109.944975 L113.13561,109.692135 L114.028635,109.418715 L119.86821,104.13333 L122.914785,102.62805 L124.18413,101.513055 L124.85592,99.033165 L126.05985,96.482715 L126.74781,92.937075 L129.982545,84.53382 L130.097205,84.0693 L130.40076,82.841115 L131.02257,80.35608 L131.02257,74.431245 L131.243805,73.563945 L131.04756,72.978885 L129.867885,72.751035 L127.09179,71.298675 L126.010605,70.285845 L125.33073,68.36823 L125.21607,68.01984 L124.733175,65.628885 L124.68393,64.272075 L125.88786,62.997585 L128.115645,61.88112 L130.58892,61.08879 L132.619725,60.785235 L133.52892,60.316305 L135.7398,57.368955 L135.99411,57.177855 L136.37925,56.879445 L137.11572,56.43918 L138.02565,56.098875 L139.180335,55.91586 L138.221895,54.139365 L137.648595,53.35806 L137.06721,52.57749 L135.584715,51.108225 L133.62741,49.638225 L126.182595,45.244395 L124.68393,43.371615 L127.92675,43.47525 L130.998315,44.71299 L137.059125,48.25128 L142.84137,49.713195 L144.36429,50.69295 L146.74716,52.785495 L147.337365,53.8902 L146.108445,54.52083 L146.378925,55.218345 L146.739075,55.91586 L146.108445,56.604555 L146.11653,56.608965 L148.22157,58.033395 L153.19311,56.81256 L162.284325,53.188275 L164.73261,53.424945 L170.097375,54.911115 L176.42793,57.77541 L181.20249,58.6971 L181.21866,58.6971 L174.372135,53.98134 L172.01352,52.88472 L169.916565,52.428285 L169.60566,52.282755 L169.302105,52.13796 L167.48445,50.751015 L166.79649,50.343825 L166.10853,50.23578 L165.281655,50.277675 L164.036565,50.343825 L163.250115,50.64738 L163.135455,50.821575 L162.914955,51.19128 L162.520995,51.394875 L161.186235,50.402625 L160.654095,50.31075 L157.386285,50.398215 L156.452835,50.12406 L149.29467,43.894935 L146.22384,41.897205 L146.21502,41.897205 L145.11693,41.41137 L139.941795,39.135075 L138.07416,38.05095 L136.82172,38.03478 L137.059125,40.518345 L137.75517,41.248935 L138.836355,42.07581 L139.47507,43.084965 L138.836355,44.388855 L138.07416,44.62185 L137.33769,44.222745 L136.6659,43.658265 L134.73285,42.64911 L130.973325,39.355575 L128.81169,38.425065 L128.819775,38.43315 L129.91713,39.6459 L131.899425,41.3658 L132.99678,42.611625 L130.555845,42.138285 L128.147985,41.12913 L123.30801,38.425065 L119.45073,35.376285 L117.15753,34.561905 L116.92821,34.420785 L116.05944,33.85557 L115.248735,33.52776 L115.12599,34.250265 L114.02055,33.490275 L113.60307,32.505375 L113.40609,31.33011 L113.0136,30.000495 L112.349895,28.86639 L111.95667,28.351155 L110.92473,26.99655 L110.261025,25.82055 L112.439565,24.723195 L116.404155,21.03717 L118.18947,20.239695 L118.197555,20.239695 L126.05985,20.937945 L130.16262,20.476365 L131.66202,20.65056 L132.25149,22.013985 L132.153,24.154305 L132.447735,24.898125 L133.307685,25.180365 L134.14338,25.300905 L136.55124,25.924185 L137.059125,26.19834 L137.50968,27.09651 L138.59013,27.05829 L139.441995,26.79663 L139.769805,26.697405 L140.260785,26.62611 L140.604765,26.57613 L140.613585,26.58054 L141.391215,27.03771 L141.72711,27.23322 L144.544365,30.31581 L153.42243,40.020015 L156.55059,41.997165 L163.80651,45.360525 L164.036565,45.460485 L164.036565,44.704905 L160.383615,42.848295 L151.538625,35.57547 L144.29079,27.170745 L140.604765,25.184775 L134.83134,23.808855 L133.307685,22.712235 L133.11144,21.16212 L135.224565,20.239695 L135.912525,20.12283 L138.008745,19.77003 L142.177665,19.562025 L144.184215,19.94055 L145.576305,20.924715 L146.50167,24.266025 L147.427035,25.662525 L160.60485,41.21586 L162.545985,42.64911 L166.4775,44.90409 L182.348355,57.82392 Z" id="Stroke-4" stroke="#0C0E0F" stroke-width="0.5" fill="#F4F4F3" stroke-linecap="round" stroke-linejoin="round"></path>
        <polyline id="Fill-6" fill="#FFFFFE" points="102.02976 279.4617 97.6815 247.61415 97.06704 246.300705 97.485255 245.85456 97.79616 245.80899 98.517195 246.300705 98.6811 244.545525 99.180165 242.508105 99.42639 240.55374 98.861175 239.02494 98.09898 237.624765 97.804245 235.76448 97.81233 232.021125 95.494875 220.63377 95.224395 219.318855 94.02855 216.81765 93.013515 211.563135 91.367115 207.416265 88.83651 195.956145 88.83651 192.70083 89.245905 192.886785 89.270895 192.91545 89.303235 192.94485 89.303235 193.048485 89.52447 193.39614 89.88462 191.50572 89.35248 185.498565 88.83651 183.67797 90.490995 182.58576 92.055075 180.562305 93.185505 178.25808 93.63606 176.32062 94.0947 175.05495 97.06704 170.357565 97.0347 170.43621 95.536035 173.982585 93.63606 177.363585 94.05354 178.18752 94.160115 178.389645 94.905405 179.134935 95.880015 179.52375 97.06704 179.515665 96.09243 182.279265 95.077395 184.30713 94.634925 184.65846 94.1682 184.70844 93.79923 184.99362 93.63606 186.073335 93.72573 188.476785 93.63606 189.22575 91.93233 194.674305 92.128575 197.70177 94.389435 200.394075 92.374065 204.61224 95.58528 206.948805 100.253265 207.31704 102.628785 205.63389 102.177495 203.82285 101.416035 202.4043 101.1213 201.86187 100.76115 201.415725 99.868125 200.291175 98.861175 199.645845 98.56644 198.54555 101.95626 192.067995 101.82543 190.893465 101.39178 190.024695 100.89198 189.29631 100.581075 188.535585 100.498755 187.31034 100.613415 185.200155 100.581075 184.331385 100.581075 184.30713 100.523745 184.14102 100.253265 183.41778 100.08936 183.268575 99.893115 183.08262 99.696135 182.668815 99.893115 181.531035 100.367925 180.566715 101.686515 178.83726 101.95626 177.71124 102.170145 175.58415 103.11168 171.32556 104.07012 161.3913 104.683845 160.261605 105.34755 159.70227 105.855435 159.02754 106.06785 157.54137 106.06785 153.305565 106.649235 151.226985 108.01707 149.889285 109.639215 148.783845 110.574135 147.773955 111.728085 148.444275 114.379965 149.458575 117.35451 149.734935 119.93436 150.831555 122.617845 152.34639 123.189675 156.54765 121.359525 160.440945 118.218135 163.01712 118.082895 163.732275 117.62499 164.64441 115.929345 165.42792 114.826845 167.948235 116.304195 170.800035 118.810545 181.053285 119.43456 182.858445 121.525635 182.848155 123.22128 182.07567 125.02056 183.428805 127.058715 183.355305 128.546355 184.54821 129.67017 186.00351 131.843565 187.21479 141.12147 191.482935 143.108175 191.982 145.032405 192.757425 146.540625 193.84449 148.40238 194.120115 151.74075 195.41004 154.768215 197.87376 156.41094 199.53339 158.231535 200.663085 160.124895 200.599875 161.643405 201.85011 161.674275 203.120925 161.49714 204.40203 161.788935 206.57175 161.653695 208.420275 161.84112 210.187215 163.24497 210.77742 164.867115 210.895755 165.69987 212.295195 165.96006 213.99672 166.906005 216.35166 167.40507 218.75364 167.020665 222.28164 169.5792 224.743155 169.111005 226.40205 169.371195 228.181485 170.26569 228.68496 171.024945 228.89811 171.74304 230.477625 172.74117 232.1571 173.42766 233.899785 173.459265 235.64982 173.82309 235.904865 174.332445 236.633985 174.62424 240.026745 175.18578 243.17034 177.02622 244.9755 176.98506 246.1662 176.694 247.364985 176.71458 248.288145 176.350755 249.15912 174.92559 250.462275 174.67569 252.605535 175.684845 254.641485 176.29857 255.65652 176.807925 256.72668 177.088695 257.99529 176.88069 259.22274 176.31915 259.98861 176.2677 261.03819 175.06083 261.59679 173.875275 261.903285 174.686715 263.191005 175.289415 264.5706 174.207495 265.08951 172.76175 264.83814 171.285135 265.66134 171.440955 266.793975 171.295425 267.847965 169.56891 267.717135 168.008505 266.5992 166.56276 266.60214 166.240095 268.63221 165.813795 269.18493 165.47055 269.781015 165.553605 270.443985 165.72045 270.915855 163.91088 271.447995 161.830095 271.220145 160.90473 269.263575 159.438405 267.74286 157.03569 267.415785 154.819665 268.30146 154.46613 270.226425 154.58079 272.307945 154.247835 273.505995 153.51945 274.486485 152.448555 274.530585 147.528465 275.630145 145.167645 276.73338 142.962645 278.31951 140.88186 280.178325 138.833415 281.370495 137.075295 280.08057 134.568945 277.22142 133.98609 276.38499 133.70532 275.51916 132.790245 274.512945 129.9921 275.01348 127.527645 276.75984 124.61484 277.62714 121.837275 275.663955 119.425005 275.76612 115.586835 278.77815 113.443575 279.619725 111.68619 278.93838 110.20884 279.8586 109.023285 279.713805 108.24345 278.84136 106.297905 279.090525 104.42586 279.582975 102.02976 279.4617"></polyline>
        <polygon id="Stroke-7" stroke="#0C0E0F" stroke-width="0.5" stroke-linecap="round" stroke-linejoin="round" points="102.02976 279.4617 97.6815 247.61415 97.06704 246.300705 97.485255 245.85456 97.79616 245.80899 98.517195 246.300705 98.6811 244.545525 99.180165 242.508105 99.42639 240.55374 98.861175 239.02494 98.09898 237.624765 97.804245 235.76448 97.81233 232.021125 95.494875 220.63377 95.224395 219.318855 94.02855 216.81765 93.013515 211.563135 91.367115 207.416265 88.83651 195.956145 88.83651 192.70083 89.245905 192.886785 89.270895 192.91545 89.303235 192.94485 89.303235 193.048485 89.52447 193.39614 89.88462 191.50572 89.35248 185.498565 88.83651 183.67797 90.490995 182.58576 92.055075 180.562305 93.185505 178.25808 93.63606 176.32062 94.0947 175.05495 97.06704 170.357565 97.0347 170.43621 95.536035 173.982585 93.63606 177.363585 94.05354 178.18752 94.160115 178.389645 94.905405 179.134935 95.880015 179.52375 97.06704 179.515665 96.09243 182.279265 95.077395 184.30713 94.634925 184.65846 94.1682 184.70844 93.79923 184.99362 93.63606 186.073335 93.72573 188.476785 93.63606 189.22575 91.93233 194.674305 92.128575 197.70177 94.389435 200.394075 92.374065 204.61224 95.58528 206.948805 100.253265 207.31704 102.628785 205.63389 102.177495 203.82285 101.416035 202.4043 101.1213 201.86187 100.76115 201.415725 99.868125 200.291175 98.861175 199.645845 98.56644 198.54555 101.95626 192.067995 101.82543 190.893465 101.39178 190.024695 100.89198 189.29631 100.581075 188.535585 100.498755 187.31034 100.613415 185.200155 100.581075 184.331385 100.581075 184.30713 100.523745 184.14102 100.253265 183.41778 100.08936 183.268575 99.893115 183.08262 99.696135 182.668815 99.893115 181.531035 100.367925 180.566715 101.686515 178.83726 101.95626 177.71124 102.170145 175.58415 103.11168 171.32556 104.07012 161.3913 104.683845 160.261605 105.34755 159.70227 105.855435 159.02754 106.06785 157.54137 106.06785 153.305565 106.649235 151.226985 108.01707 149.889285 109.639215 148.783845 110.574135 147.773955 111.728085 148.444275 114.379965 149.458575 117.35451 149.734935 119.93436 150.831555 122.617845 152.34639 123.189675 156.54765 121.359525 160.440945 118.218135 163.01712 118.082895 163.732275 117.62499 164.64441 115.929345 165.42792 114.826845 167.948235 116.304195 170.800035 118.810545 181.053285 119.43456 182.858445 121.525635 182.848155 123.22128 182.07567 125.02056 183.428805 127.058715 183.355305 128.546355 184.54821 129.67017 186.00351 131.843565 187.21479 141.12147 191.482935 143.108175 191.982 145.032405 192.757425 146.540625 193.84449 148.40238 194.120115 151.74075 195.41004 154.768215 197.87376 156.41094 199.53339 158.231535 200.663085 160.124895 200.599875 161.643405 201.85011 161.674275 203.120925 161.49714 204.40203 161.788935 206.57175 161.653695 208.420275 161.84112 210.187215 163.24497 210.77742 164.867115 210.895755 165.69987 212.295195 165.96006 213.99672 166.906005 216.35166 167.40507 218.75364 167.020665 222.28164 169.5792 224.743155 169.111005 226.40205 169.371195 228.181485 170.26569 228.68496 171.024945 228.89811 171.74304 230.477625 172.74117 232.1571 173.42766 233.899785 173.459265 235.64982 173.82309 235.904865 174.332445 236.633985 174.62424 240.026745 175.18578 243.17034 177.02622 244.9755 176.98506 246.1662 176.694 247.364985 176.71458 248.288145 176.350755 249.15912 174.92559 250.462275 174.67569 252.605535 175.684845 254.641485 176.29857 255.65652 176.807925 256.72668 177.088695 257.99529 176.88069 259.22274 176.31915 259.98861 176.2677 261.03819 175.06083 261.59679 173.875275 261.903285 174.686715 263.191005 175.289415 264.5706 174.207495 265.08951 172.76175 264.83814 171.285135 265.66134 171.440955 266.793975 171.295425 267.847965 169.56891 267.717135 168.008505 266.5992 166.56276 266.60214 166.240095 268.63221 165.813795 269.18493 165.47055 269.781015 165.553605 270.443985 165.72045 270.915855 163.91088 271.447995 161.830095 271.220145 160.90473 269.263575 159.438405 267.74286 157.03569 267.415785 154.819665 268.30146 154.46613 270.226425 154.58079 272.307945 154.247835 273.505995 153.51945 274.486485 152.448555 274.530585 147.528465 275.630145 145.167645 276.73338 142.962645 278.31951 140.88186 280.178325 138.833415 281.370495 137.075295 280.08057 134.568945 277.22142 133.98609 276.38499 133.70532 275.51916 132.790245 274.512945 129.9921 275.01348 127.527645 276.75984 124.61484 277.62714 121.837275 275.663955 119.425005 275.76612 115.586835 278.77815 113.443575 279.619725 111.68619 278.93838 110.20884 279.8586 109.023285 279.713805 108.24345 278.84136 106.297905 279.090525 104.42586 279.582975"></polygon>
        <polyline id="Fill-8" fill="#FFFFFE" points="104.18478 311.0079 105.183645 308.60298 105.44604 307.44756 105.42105 306.27156 105.42105 306.25098 100.60533 289.126215 101.269035 286.612515 101.23596 288.15969 101.613015 289.1343 102.15324 289.88547 102.628785 290.772615 103.594575 294.16905 104.07012 294.98637 104.69193 294.98637 104.839665 294.01617 105.126315 293.608245 105.37989 293.542095 105.387975 293.542095 105.44604 293.59575 105.42105 290.496255 105.42105 290.475675 105.199815 289.117395 104.69193 287.99946 104.21712 287.672385 102.890445 287.384265 102.300975 286.9881 102.234825 286.84698 101.874675 286.117125 102.03858 285.311565 102.42372 284.56113 102.628785 283.8423 102.02976 279.4617 104.42586 279.582975 106.297905 279.090525 108.24345 278.84136 109.023285 279.713805 110.20884 279.8586 111.68619 278.93838 113.443575 279.619725 115.586835 278.77815 119.425005 275.76612 121.837275 275.663955 124.61484 277.62714 127.527645 276.75984 129.9921 275.01348 132.790245 274.512945 133.70532 275.51916 133.98609 276.38499 134.568945 277.22142 137.075295 280.08057 138.833415 281.370495 138.999525 282.71775 138.011685 283.5042 137.741205 286.99104 136.4307 288.22437 134.839425 289.05051 134.41239 291.92289 135.63984 294.465255 138.09474 293.88093 140.216685 294.50127 139.45743 296.223375 138.001395 297.231795 136.72176 300.18576 136.20138 303.13752 137.69931 307.951035 137.720625 308.875665 137.41854 309.709155 139.60296 309.85542 141.339765 310.741095 141.65214 312.58521 140.31003 313.842795 140.44527 314.82255 140.497455 315.81039 139.20753 317.38917 138.11532 319.123035 137.68902 320.53497 137.169375 321.736695 139.64412 324.36873 137.42883 326.356905 137.761785 328.44357 139.519905 333.09465 139.374375 334.712385 140.01897 336.618975 140.99652 338.64537 144.065145 341.627265 144.65829 344.580495 145.77108 345.62493 147.17493 346.16883 149.421825 348.22389 150.87786 351.011745 149.35935 351.595335 149.889285 353.315235 154.143465 359.305485 157.784655 365.63898 154.19565 366.46071 150.680145 368.635575 148.81839 369.45657 148.81839 371.625555 149.577645 373.82835 149.37993 375.859155 147.809235 374.600835 146.259855 373.104375 143.28531 370.81485 140.226975 371.07651 137.481015 372.62001 133.1232 371.79093 131.448135 370.66491 129.82599 369.236805 127.828995 368.363625 125.98782 367.988775 122.29518 366.27255 121.78509 365.405985 121.04715 364.69671 120.027705 365.10243 119.37282 365.55519 118.789965 365.013495 118.24974 364.252035 117.55002 364.097685 117.124455 362.35941 116.911305 362.189625 116.477655 361.926495 116.0271 361.531065 115.748535 360.973935 115.863195 360.38079 116.35491 360.23673 116.870145 360.29406 116.878965 360.29406 117.124455 360.281565 116.35491 354.968985 116.28876 354.54489 114.19254 349.15293 105.568785 326.999295 104.20095 319.34427 104.07012 318.58575 104.07012 311.292345 104.18478 311.0079"></polyline>
        <polygon id="Stroke-9" stroke="#0C0E0F" stroke-width="0.5" stroke-linecap="round" stroke-linejoin="round" points="104.18478 311.0079 105.183645 308.60298 105.44604 307.44756 105.42105 306.27156 105.42105 306.25098 100.60533 289.126215 101.269035 286.612515 101.23596 288.15969 101.613015 289.1343 102.15324 289.88547 102.628785 290.772615 103.594575 294.16905 104.07012 294.98637 104.69193 294.98637 104.839665 294.01617 105.126315 293.608245 105.37989 293.542095 105.387975 293.542095 105.44604 293.59575 105.42105 290.496255 105.42105 290.475675 105.199815 289.117395 104.69193 287.99946 104.21712 287.672385 102.890445 287.384265 102.300975 286.9881 102.234825 286.84698 101.874675 286.117125 102.03858 285.311565 102.42372 284.56113 102.628785 283.8423 102.02976 279.4617 104.42586 279.582975 106.297905 279.090525 108.24345 278.84136 109.023285 279.713805 110.20884 279.8586 111.68619 278.93838 113.443575 279.619725 115.586835 278.77815 119.425005 275.76612 121.837275 275.663955 124.61484 277.62714 127.527645 276.75984 129.9921 275.01348 132.790245 274.512945 133.70532 275.51916 133.98609 276.38499 134.568945 277.22142 137.075295 280.08057 138.833415 281.370495 138.999525 282.71775 138.011685 283.5042 137.741205 286.99104 136.4307 288.22437 134.839425 289.05051 134.41239 291.92289 135.63984 294.465255 138.09474 293.88093 140.216685 294.50127 139.45743 296.223375 138.001395 297.231795 136.72176 300.18576 136.20138 303.13752 137.69931 307.951035 137.720625 308.875665 137.41854 309.709155 139.60296 309.85542 141.339765 310.741095 141.65214 312.58521 140.31003 313.842795 140.44527 314.82255 140.497455 315.81039 139.20753 317.38917 138.11532 319.123035 137.68902 320.53497 137.169375 321.736695 139.64412 324.36873 137.42883 326.356905 137.761785 328.44357 139.519905 333.09465 139.374375 334.712385 140.01897 336.618975 140.99652 338.64537 144.065145 341.627265 144.65829 344.580495 145.77108 345.62493 147.17493 346.16883 149.421825 348.22389 150.87786 351.011745 149.35935 351.595335 149.889285 353.315235 154.143465 359.305485 157.784655 365.63898 154.19565 366.46071 150.680145 368.635575 148.81839 369.45657 148.81839 371.625555 149.577645 373.82835 149.37993 375.859155 147.809235 374.600835 146.259855 373.104375 143.28531 370.81485 140.226975 371.07651 137.481015 372.62001 133.1232 371.79093 131.448135 370.66491 129.82599 369.236805 127.828995 368.363625 125.98782 367.988775 122.29518 366.27255 121.78509 365.405985 121.04715 364.69671 120.027705 365.10243 119.37282 365.55519 118.789965 365.013495 118.24974 364.252035 117.55002 364.097685 117.124455 362.35941 116.911305 362.189625 116.477655 361.926495 116.0271 361.531065 115.748535 360.973935 115.863195 360.38079 116.35491 360.23673 116.870145 360.29406 116.878965 360.29406 117.124455 360.281565 116.35491 354.968985 116.28876 354.54489 114.19254 349.15293 105.568785 326.999295 104.20095 319.34427 104.07012 318.58575 104.07012 311.292345"></polygon>
        <polyline id="Fill-10" fill="#FFFFFE" points="158.09556 412.40556 157.4517 412.312215 156.968805 412.09833 156.63291 411.619845 156.207345 411.14724 155.420895 410.928945 154.95417 411.09285 154.5852 411.422865 154.191975 411.702165 153.66792 411.685995 153.487845 411.53826 153.32394 411.393465 152.685225 410.483535 152.37432 410.293905 152.292 410.245395 152.292 410.236575 151.579785 409.985205 147.280035 408.441705 145.518975 408.07935 144.2658 407.815485 142.079175 406.057365 141.58746 405.819225 140.62167 405.34956 140.604765 405.34074 139.868295 406.09485 137.992575 404.57928 129.794385 395.877615 129.122595 395.349885 129.11451 395.34621 129.04101 395.25213 128.81169 394.97577 128.688945 394.547265 128.72202 393.69099 128.46771 393.24558 128.12373 392.79723 127.214535 391.60653 122.570805 381.786195 122.37456 380.846865 122.37456 380.83878 122.423805 379.157835 122.423805 379.14975 122.25108 378.638925 121.41612 376.89624 120.564255 372.17019 118.713525 368.84946 117.55002 364.097685 118.24974 364.252035 118.789965 365.013495 119.37282 365.55519 120.027705 365.10243 121.04715 364.69671 121.78509 365.405985 122.29518 366.27255 125.98782 367.988775 127.828995 368.363625 129.82599 369.236805 131.448135 370.66491 133.1232 371.79093 137.481015 372.62001 140.226975 371.07651 143.28531 370.81485 146.259855 373.104375 147.809235 374.600835 149.37993 375.859155 149.577645 373.82835 148.81839 371.625555 148.81839 369.45657 150.680145 368.635575 154.19565 366.46071 157.784655 365.63898 159.01137 366.91053 160.38435 368.072565 162.079995 368.763465 163.577925 368.79948 166.70829 370.343715 168.33117 370.29153 169.19406 371.5425 171.160185 371.259525 173.1366 370.80162 173.83338 369.1611 175.549605 369.14787 179.969895 368.56428 181.426665 371.2485 180.760755 373.04925 182.570325 373.37118 184.98333 372.96546 186.107145 374.35755 186.023355 375.30717 187.31328 376.26708 186.78261 376.808775 186.78261 377.77383 192.53472 378.87486 199.92 381.56496 201.85452 381.86337 203.767725 381.405465 205.691955 381.21951 207.22149 382.422705 208.396755 383.785395 212.08866 384.53436 214.200315 385.23261 214.710405 383.453175 213.774015 380.877 211.92255 378.809445 214.39803 377.18583 216.935985 375.81138 219.77529 374.886015 221.95971 373.23006 220.99245 370.961115 221.48196 368.66424 222.749835 368.673795 224.11326 368.569425 224.94528 367.394895 224.923965 366.05205 226.161705 366.939195 227.11941 365.848455 229.64634 365.8242 232.143135 366.146865 233.858625 366.764265 234.62817 368.61132 235.627035 368.750235 236.70822 368.70246 237.624765 368.049045 238.89264 367.91013 240.77571 370.377525 242.3148 372.991185 244.832175 374.040765 247.588425 372.53034 248.577 371.534415 250.11609 370.890555 253.049475 370.118805 259.03017 367.79253 260.13267 366.999465 260.381835 367.290525 261.266775 367.41768 263.949525 366.434985 266.75796 367.078845 268.068465 364.9275 268.068465 364.0455 268.00599 363.21642 268.463895 362.5902 268.900485 361.87578 268.380105 360.515295 268.338945 358.80348 270.32565 357.218085 272.718075 356.1369 274.548225 354.36996 276.68046 352.74708 279.38526 352.242135 281.18454 350.142975 284.19069 353.851785 285.34464 353.92749 286.634565 354.10536 288.30963 356.0193 290.753505 356.785905 291.648 357.084315 288.57276 361.95957 285.411525 365.128155 279.57195 369.277965 277.66389 369.85053 275.10903 371.222775 256.427535 385.930125 252.693 387.957255 240.56403 392.27391 240.55521 392.27391 240.391305 390.811995 240.382485 390.72453 239.662185 390.156375 239.64675 390.160785 239.48211 390.20121 238.87647 390.366585 238.49133 391.178025 238.295085 392.883225 237.74604 393.525615 236.8611 393.76449 235.690245 394.2834 233.50362 395.605665 231.316995 396.569985 220.84251 398.822025 215.76366 400.568385 210.194565 401.581215 207.655875 402.561705 206.132955 404.710845 203.40537 404.175765 201.72663 404.82183 200.77701 405.193005 196.902825 408.062445 193.02864 410.928945 192.786825 411.209715 191.24406 413.00385 187.124385 412.760565 187.115565 412.75689 185.395665 413.00385 184.05282 413.51394 182.668815 414.304065 180.219795 416.14083 179.515665 416.30547 178.8108 416.462025 177.14088 415.81596 175.371 414.90162 174.355965 414.59292 173.6511 414.38271 167.82843 415.074345 166.16586 414.749475 165.32208 413.91378 164.781855 412.81422 164.355555 412.17183 164.036565 411.690405 162.332835 412.68192 160.809915 412.79805 158.09556 412.40556"></polyline>
        <polygon id="Stroke-11" stroke="#0C0E0F" stroke-width="0.5" stroke-linecap="round" stroke-linejoin="round" points="158.09556 412.40556 157.4517 412.312215 156.968805 412.09833 156.63291 411.619845 156.207345 411.14724 155.420895 410.928945 154.95417 411.09285 154.5852 411.422865 154.191975 411.702165 153.66792 411.685995 153.487845 411.53826 153.32394 411.393465 152.685225 410.483535 152.37432 410.293905 152.292 410.245395 152.292 410.236575 151.579785 409.985205 147.280035 408.441705 145.518975 408.07935 144.2658 407.815485 142.079175 406.057365 141.58746 405.819225 140.62167 405.34956 140.604765 405.34074 139.868295 406.09485 137.992575 404.57928 129.794385 395.877615 129.122595 395.349885 129.11451 395.34621 129.04101 395.25213 128.81169 394.97577 128.688945 394.547265 128.72202 393.69099 128.46771 393.24558 128.12373 392.79723 127.214535 391.60653 122.570805 381.786195 122.37456 380.846865 122.37456 380.83878 122.423805 379.157835 122.423805 379.14975 122.25108 378.638925 121.41612 376.89624 120.564255 372.17019 118.713525 368.84946 117.55002 364.097685 118.24974 364.252035 118.789965 365.013495 119.37282 365.55519 120.027705 365.10243 121.04715 364.69671 121.78509 365.405985 122.29518 366.27255 125.98782 367.988775 127.828995 368.363625 129.82599 369.236805 131.448135 370.66491 133.1232 371.79093 137.481015 372.62001 140.226975 371.07651 143.28531 370.81485 146.259855 373.104375 147.809235 374.600835 149.37993 375.859155 149.577645 373.82835 148.81839 371.625555 148.81839 369.45657 150.680145 368.635575 154.19565 366.46071 157.784655 365.63898 159.01137 366.91053 160.38435 368.072565 162.079995 368.763465 163.577925 368.79948 166.70829 370.343715 168.33117 370.29153 169.19406 371.5425 171.160185 371.259525 173.1366 370.80162 173.83338 369.1611 175.549605 369.14787 179.969895 368.56428 181.426665 371.2485 180.760755 373.04925 182.570325 373.37118 184.98333 372.96546 186.107145 374.35755 186.023355 375.30717 187.31328 376.26708 186.78261 376.808775 186.78261 377.77383 192.53472 378.87486 199.92 381.56496 201.85452 381.86337 203.767725 381.405465 205.691955 381.21951 207.22149 382.422705 208.396755 383.785395 212.08866 384.53436 214.200315 385.23261 214.710405 383.453175 213.774015 380.877 211.92255 378.809445 214.39803 377.18583 216.935985 375.81138 219.77529 374.886015 221.95971 373.23006 220.99245 370.961115 221.48196 368.66424 222.749835 368.673795 224.11326 368.569425 224.94528 367.394895 224.923965 366.05205 226.161705 366.939195 227.11941 365.848455 229.64634 365.8242 232.143135 366.146865 233.858625 366.764265 234.62817 368.61132 235.627035 368.750235 236.70822 368.70246 237.624765 368.049045 238.89264 367.91013 240.77571 370.377525 242.3148 372.991185 244.832175 374.040765 247.588425 372.53034 248.577 371.534415 250.11609 370.890555 253.049475 370.118805 259.03017 367.79253 260.13267 366.999465 260.381835 367.290525 261.266775 367.41768 263.949525 366.434985 266.75796 367.078845 268.068465 364.9275 268.068465 364.0455 268.00599 363.21642 268.463895 362.5902 268.900485 361.87578 268.380105 360.515295 268.338945 358.80348 270.32565 357.218085 272.718075 356.1369 274.548225 354.36996 276.68046 352.74708 279.38526 352.242135 281.18454 350.142975 284.19069 353.851785 285.34464 353.92749 286.634565 354.10536 288.30963 356.0193 290.753505 356.785905 291.648 357.084315 288.57276 361.95957 285.411525 365.128155 279.57195 369.277965 277.66389 369.85053 275.10903 371.222775 256.427535 385.930125 252.693 387.957255 240.56403 392.27391 240.55521 392.27391 240.391305 390.811995 240.382485 390.72453 239.662185 390.156375 239.64675 390.160785 239.48211 390.20121 238.87647 390.366585 238.49133 391.178025 238.295085 392.883225 237.74604 393.525615 236.8611 393.76449 235.690245 394.2834 233.50362 395.605665 231.316995 396.569985 220.84251 398.822025 215.76366 400.568385 210.194565 401.581215 207.655875 402.561705 206.132955 404.710845 203.40537 404.175765 201.72663 404.82183 200.77701 405.193005 196.902825 408.062445 193.02864 410.928945 192.786825 411.209715 191.24406 413.00385 187.124385 412.760565 187.115565 412.75689 185.395665 413.00385 184.05282 413.51394 182.668815 414.304065 180.219795 416.14083 179.515665 416.30547 178.8108 416.462025 177.14088 415.81596 175.371 414.90162 174.355965 414.59292 173.6511 414.38271 167.82843 415.074345 166.16586 414.749475 165.32208 413.91378 164.781855 412.81422 164.355555 412.17183 164.036565 411.690405 162.332835 412.68192 160.809915 412.79805"></polygon>
        <polyline id="Fill-12" fill="#FFFFFE" points="212.74428 339.126795 211.09053 341.634615 210.050505 344.245335 208.20933 346.45989 207.25236 348.708255 206.26452 353.097675 204.36087 355.80762 202.84236 358.683675 203.14371 360.34992 203.77875 361.94634 203.861805 368.206335 204.984885 370.37238 206.41005 372.27456 208.33428 373.313115 210.16443 374.60304 211.132425 376.4523 211.92255 378.809445 213.774015 380.877 214.710405 383.453175 214.200315 385.23261 212.08866 384.53436 208.396755 383.785395 207.22149 382.422705 205.691955 381.21951 203.767725 381.405465 201.85452 381.86337 199.92 381.56496 192.53472 378.87486 186.78261 377.77383 186.78261 376.808775 187.31328 376.26708 186.023355 375.30717 186.107145 374.35755 184.98333 372.96546 182.570325 373.37118 180.760755 373.04925 181.426665 371.2485 179.969895 368.56428 175.549605 369.14787 173.83338 369.1611 173.1366 370.80162 171.160185 371.259525 169.19406 371.5425 168.33117 370.29153 166.70829 370.343715 163.577925 368.79948 162.079995 368.763465 160.38435 368.072565 159.01137 366.91053 157.784655 365.63898 154.143465 359.305485 149.889285 353.315235 149.35935 351.595335 150.87786 351.011745 149.421825 348.22389 147.17493 346.16883 145.77108 345.62493 144.65829 344.580495 144.065145 341.627265 140.99652 338.64537 140.01897 336.618975 139.374375 334.712385 139.519905 333.09465 137.761785 328.44357 137.42883 326.356905 139.64412 324.36873 137.169375 321.736695 137.68902 320.53497 138.11532 319.123035 139.20753 317.38917 140.497455 315.81039 140.44527 314.82255 140.31003 313.842795 141.65214 312.58521 141.339765 310.741095 139.60296 309.85542 137.41854 309.709155 137.720625 308.875665 137.69931 307.951035 136.20138 303.13752 136.72176 300.18576 138.001395 297.231795 139.45743 296.223375 140.216685 294.50127 138.09474 293.88093 135.63984 294.465255 134.41239 291.92289 134.839425 289.05051 136.4307 288.22437 137.741205 286.99104 138.011685 283.5042 138.999525 282.71775 138.833415 281.370495 140.88186 280.178325 142.962645 278.31951 145.167645 276.73338 147.528465 275.630145 152.448555 274.530585 153.51945 274.486485 154.247835 273.505995 154.58079 272.307945 154.46613 270.226425 154.819665 268.30146 157.03569 267.415785 159.438405 267.74286 160.90473 269.263575 161.830095 271.220145 163.06857 274.332135 167.416095 278.151195 167.24925 280.109235 168.102585 280.707525 170.66112 282.12534 171.877545 283.612245 171.63867 285.420345 171.65925 286.906515 173.115285 288.358875 174.291285 289.83402 173.71872 291.168045 172.928595 292.41534 171.836385 292.674795 170.733885 292.738005 169.1529 294.45423 165.668265 295.025325 164.51358 296.089605 166.04238 299.7477 166.770765 301.01043 166.04238 302.569365 165.99093 304.578855 166.12617 304.906665 166.459125 304.99854 165.57492 306.42885 164.18136 307.65777 163.41108 307.91943 162.85983 308.671335 163.42137 309.44382 164.0667 310.104585 163.35963 313.86852 164.23281 316.80264 167.155905 317.75079 169.48512 319.484655 170.2554 322.14609 170.42151 323.502165 169.26756 324.517935 169.19406 326.179035 169.881285 326.928 169.111005 327.650505 168.74718 328.689795 170.81694 330.271515 173.27184 330.4707 178.49328 331.648905 184.01607 332.40081 186.138015 332.04654 188.634075 331.84809 191.97318 331.957605 195.11457 331.531305 200.814495 328.548675 201.084975 332.275125 201.833205 331.90542 202.57188 331.61583 203.94486 333.12846 205.6824 333.665745 205.44279 334.61316 205.120125 335.398875 204.734985 335.794305 202.009605 337.03719 201.531855 338.36754 202.59246 340.04334 204.132285 341.2899 206.43063 341.72649 208.85466 340.73718 210.903105 339.223815 212.74428 339.126795"></polyline>
        <polygon id="Stroke-13" stroke="#0C0E0F" stroke-width="0.5" stroke-linecap="round" stroke-linejoin="round" points="212.74428 339.126795 211.09053 341.634615 210.050505 344.245335 208.20933 346.45989 207.25236 348.708255 206.26452 353.097675 204.36087 355.80762 202.84236 358.683675 203.14371 360.34992 203.77875 361.94634 203.861805 368.206335 204.984885 370.37238 206.41005 372.27456 208.33428 373.313115 210.16443 374.60304 211.132425 376.4523 211.92255 378.809445 213.774015 380.877 214.710405 383.453175 214.200315 385.23261 212.08866 384.53436 208.396755 383.785395 207.22149 382.422705 205.691955 381.21951 203.767725 381.405465 201.85452 381.86337 199.92 381.56496 192.53472 378.87486 186.78261 377.77383 186.78261 376.808775 187.31328 376.26708 186.023355 375.30717 186.107145 374.35755 184.98333 372.96546 182.570325 373.37118 180.760755 373.04925 181.426665 371.2485 179.969895 368.56428 175.549605 369.14787 173.83338 369.1611 173.1366 370.80162 171.160185 371.259525 169.19406 371.5425 168.33117 370.29153 166.70829 370.343715 163.577925 368.79948 162.079995 368.763465 160.38435 368.072565 159.01137 366.91053 157.784655 365.63898 154.143465 359.305485 149.889285 353.315235 149.35935 351.595335 150.87786 351.011745 149.421825 348.22389 147.17493 346.16883 145.77108 345.62493 144.65829 344.580495 144.065145 341.627265 140.99652 338.64537 140.01897 336.618975 139.374375 334.712385 139.519905 333.09465 137.761785 328.44357 137.42883 326.356905 139.64412 324.36873 137.169375 321.736695 137.68902 320.53497 138.11532 319.123035 139.20753 317.38917 140.497455 315.81039 140.44527 314.82255 140.31003 313.842795 141.65214 312.58521 141.339765 310.741095 139.60296 309.85542 137.41854 309.709155 137.720625 308.875665 137.69931 307.951035 136.20138 303.13752 136.72176 300.18576 138.001395 297.231795 139.45743 296.223375 140.216685 294.50127 138.09474 293.88093 135.63984 294.465255 134.41239 291.92289 134.839425 289.05051 136.4307 288.22437 137.741205 286.99104 138.011685 283.5042 138.999525 282.71775 138.833415 281.370495 140.88186 280.178325 142.962645 278.31951 145.167645 276.73338 147.528465 275.630145 152.448555 274.530585 153.51945 274.486485 154.247835 273.505995 154.58079 272.307945 154.46613 270.226425 154.819665 268.30146 157.03569 267.415785 159.438405 267.74286 160.90473 269.263575 161.830095 271.220145 163.06857 274.332135 167.416095 278.151195 167.24925 280.109235 168.102585 280.707525 170.66112 282.12534 171.877545 283.612245 171.63867 285.420345 171.65925 286.906515 173.115285 288.358875 174.291285 289.83402 173.71872 291.168045 172.928595 292.41534 171.836385 292.674795 170.733885 292.738005 169.1529 294.45423 165.668265 295.025325 164.51358 296.089605 166.04238 299.7477 166.770765 301.01043 166.04238 302.569365 165.99093 304.578855 166.12617 304.906665 166.459125 304.99854 165.57492 306.42885 164.18136 307.65777 163.41108 307.91943 162.85983 308.671335 163.42137 309.44382 164.0667 310.104585 163.35963 313.86852 164.23281 316.80264 167.155905 317.75079 169.48512 319.484655 170.2554 322.14609 170.42151 323.502165 169.26756 324.517935 169.19406 326.179035 169.881285 326.928 169.111005 327.650505 168.74718 328.689795 170.81694 330.271515 173.27184 330.4707 178.49328 331.648905 184.01607 332.40081 186.138015 332.04654 188.634075 331.84809 191.97318 331.957605 195.11457 331.531305 200.814495 328.548675 201.084975 332.275125 201.833205 331.90542 202.57188 331.61583 203.94486 333.12846 205.6824 333.665745 205.44279 334.61316 205.120125 335.398875 204.734985 335.794305 202.009605 337.03719 201.531855 338.36754 202.59246 340.04334 204.132285 341.2899 206.43063 341.72649 208.85466 340.73718 210.903105 339.223815"></polygon>
        <polyline id="Fill-14" fill="#FFFFFE" points="211.92255 378.809445 211.132425 376.4523 210.16443 374.60304 208.33428 373.313115 206.41005 372.27456 204.984885 370.37238 203.861805 368.206335 203.77875 361.94634 203.14371 360.34992 202.84236 358.683675 204.36087 355.80762 206.26452 353.097675 207.25236 348.708255 208.20933 346.45989 210.050505 344.245335 211.09053 341.634615 212.74428 339.126795 210.903105 339.223815 208.85466 340.73718 206.43063 341.72649 204.132285 341.2899 202.59246 340.04334 201.531855 338.36754 202.009605 337.03719 204.734985 335.794305 205.120125 335.398875 205.44279 334.61316 205.6824 333.665745 203.94486 333.12846 202.57188 331.61583 201.833205 331.90542 201.084975 332.275125 200.814495 328.548675 202.71741 328.0746 203.747145 326.61342 202.82178 326.14449 201.89568 325.55061 203.37303 323.140545 202.9776 322.45773 202.468245 321.836655 201.89568 320.281395 201.230505 318.86652 198.01635 317.24805 197.902425 315.63105 199.722285 315.542115 201.60462 315.65016 202.95702 314.09196 203.445795 312.081735 205.03707 310.620555 206.85693 309.750315 210.66423 308.922705 212.900835 305.59536 213.358005 303.61821 214.284105 301.825545 215.09481 301.081725 215.75043 300.24309 216.083385 299.49339 215.937855 298.788525 215.386605 296.990715 215.87538 296.052855 216.561135 295.203195 216.19731 294.68502 215.74014 294.13965 215.532135 293.28558 215.75043 292.360215 214.991175 289.831815 215.07423 288.00534 216.35313 287.22624 218.50668 286.618395 221.221035 284.091465 221.39817 280.80234 219.19317 273.458955 218.308965 258.137145 217.82019 249.833115 218.78745 245.061495 219.06822 245.329035 220.58673 246.265425 221.241615 247.71117 221.37759 249.36639 222.17874 251.80071 224.653485 255.9417 226.48437 255.297105 227.49279 255.063375 228.710685 254.59371 230.85321 252.61068 235.793145 249.836055 240.26562 250.809195 240.65076 255.88437 239.58942 260.81769 239.028615 261.863595 238.747845 262.776465 239.049195 264.027435 239.454915 265.291635 240.1098 269.75676 241.22259 272.13228 242.731545 273.62433 243.604725 273.411915 244.842465 273.647115 245.258475 274.549695 245.955255 275.72643 246.860775 277.55658 247.213575 279.375705 248.004435 281.33889 248.88864 282.987495 250.92753 282.27822 252.799575 280.90671 252.268905 277.12146 252.258615 273.225225 254.754675 273.33768 256.793565 272.205045 257.261025 271.49283 257.95854 270.648315 258.416445 269.64945 258.301785 268.456545 257.750535 267.2607 257.729955 265.93329 258.758955 265.85538 260.15325 265.49376 260.839005 264.40743 261.213855 263.458545 262.32738 262.960215 263.543805 262.535385 266.06118 261.184455 268.03686 261.722475 266.549955 264.03552 267.18426 264.421395 267.85017 264.538995 267.652455 265.90242 268.8483 271.246605 268.703505 273.669165 269.10849 275.624265 271.334805 277.56246 272.738655 280.0203 273.029715 282.20178 275.214135 285.23145 273.580965 286.521375 271.480335 289.014495 270.304335 292.161765 271.605285 294.529935 272.011005 296.102835 272.79084 297.49419 273.60228 297.850665 274.35051 297.850665 274.97526 298.222575 275.494905 298.684155 279.08391 299.611725 282.058455 301.406595 281.86074 303.31098 281.39181 305.312385 282.089325 307.26234 282.099615 309.22185 283.306485 310.955715 283.80555 312.96006 281.18454 350.142975 279.38526 352.242135 276.68046 352.74708 274.548225 354.36996 272.718075 356.1369 270.32565 357.218085 268.338945 358.80348 268.380105 360.515295 268.900485 361.87578 268.463895 362.5902 268.00599 363.21642 268.068465 364.0455 268.068465 364.9275 266.75796 367.078845 263.949525 366.434985 261.266775 367.41768 260.381835 367.290525 260.13267 366.999465 259.03017 367.79253 253.049475 370.118805 250.11609 370.890555 248.577 371.534415 247.588425 372.53034 244.832175 374.040765 242.3148 372.991185 240.77571 370.377525 238.89264 367.91013 237.624765 368.049045 236.70822 368.70246 235.627035 368.750235 234.62817 368.61132 233.858625 366.764265 232.143135 366.146865 229.64634 365.8242 227.11941 365.848455 226.161705 366.939195 224.923965 366.05205 224.94528 367.394895 224.11326 368.569425 222.749835 368.673795 221.48196 368.66424 220.99245 370.961115 221.95971 373.23006 219.77529 374.886015 216.935985 375.81138 214.39803 377.18583 211.92255 378.809445"></polyline>
        <polygon id="Stroke-15" stroke="#0C0E0F" stroke-width="0.5" stroke-linecap="round" stroke-linejoin="round" points="211.92255 378.809445 211.132425 376.4523 210.16443 374.60304 208.33428 373.313115 206.41005 372.27456 204.984885 370.37238 203.861805 368.206335 203.77875 361.94634 203.14371 360.34992 202.84236 358.683675 204.36087 355.80762 206.26452 353.097675 207.25236 348.708255 208.20933 346.45989 210.050505 344.245335 211.09053 341.634615 212.74428 339.126795 210.903105 339.223815 208.85466 340.73718 206.43063 341.72649 204.132285 341.2899 202.59246 340.04334 201.531855 338.36754 202.009605 337.03719 204.734985 335.794305 205.120125 335.398875 205.44279 334.61316 205.6824 333.665745 203.94486 333.12846 202.57188 331.61583 201.833205 331.90542 201.084975 332.275125 200.814495 328.548675 202.71741 328.0746 203.747145 326.61342 202.82178 326.14449 201.89568 325.55061 203.37303 323.140545 202.9776 322.45773 202.468245 321.836655 201.89568 320.281395 201.230505 318.86652 198.01635 317.24805 197.902425 315.63105 199.722285 315.542115 201.60462 315.65016 202.95702 314.09196 203.445795 312.081735 205.03707 310.620555 206.85693 309.750315 210.66423 308.922705 212.900835 305.59536 213.358005 303.61821 214.284105 301.825545 215.09481 301.081725 215.75043 300.24309 216.083385 299.49339 215.937855 298.788525 215.386605 296.990715 215.87538 296.052855 216.561135 295.203195 216.19731 294.68502 215.74014 294.13965 215.532135 293.28558 215.75043 292.360215 214.991175 289.831815 215.07423 288.00534 216.35313 287.22624 218.50668 286.618395 221.221035 284.091465 221.39817 280.80234 219.19317 273.458955 218.308965 258.137145 217.82019 249.833115 218.78745 245.061495 219.06822 245.329035 220.58673 246.265425 221.241615 247.71117 221.37759 249.36639 222.17874 251.80071 224.653485 255.9417 226.48437 255.297105 227.49279 255.063375 228.710685 254.59371 230.85321 252.61068 235.793145 249.836055 240.26562 250.809195 240.65076 255.88437 239.58942 260.81769 239.028615 261.863595 238.747845 262.776465 239.049195 264.027435 239.454915 265.291635 240.1098 269.75676 241.22259 272.13228 242.731545 273.62433 243.604725 273.411915 244.842465 273.647115 245.258475 274.549695 245.955255 275.72643 246.860775 277.55658 247.213575 279.375705 248.004435 281.33889 248.88864 282.987495 250.92753 282.27822 252.799575 280.90671 252.268905 277.12146 252.258615 273.225225 254.754675 273.33768 256.793565 272.205045 257.261025 271.49283 257.95854 270.648315 258.416445 269.64945 258.301785 268.456545 257.750535 267.2607 257.729955 265.93329 258.758955 265.85538 260.15325 265.49376 260.839005 264.40743 261.213855 263.458545 262.32738 262.960215 263.543805 262.535385 266.06118 261.184455 268.03686 261.722475 266.549955 264.03552 267.18426 264.421395 267.85017 264.538995 267.652455 265.90242 268.8483 271.246605 268.703505 273.669165 269.10849 275.624265 271.334805 277.56246 272.738655 280.0203 273.029715 282.20178 275.214135 285.23145 273.580965 286.521375 271.480335 289.014495 270.304335 292.161765 271.605285 294.529935 272.011005 296.102835 272.79084 297.49419 273.60228 297.850665 274.35051 297.850665 274.97526 298.222575 275.494905 298.684155 279.08391 299.611725 282.058455 301.406595 281.86074 303.31098 281.39181 305.312385 282.089325 307.26234 282.099615 309.22185 283.306485 310.955715 283.80555 312.96006 281.18454 350.142975 279.38526 352.242135 276.68046 352.74708 274.548225 354.36996 272.718075 356.1369 270.32565 357.218085 268.338945 358.80348 268.380105 360.515295 268.900485 361.87578 268.463895 362.5902 268.00599 363.21642 268.068465 364.0455 268.068465 364.9275 266.75796 367.078845 263.949525 366.434985 261.266775 367.41768 260.381835 367.290525 260.13267 366.999465 259.03017 367.79253 253.049475 370.118805 250.11609 370.890555 248.577 371.534415 247.588425 372.53034 244.832175 374.040765 242.3148 372.991185 240.77571 370.377525 238.89264 367.91013 237.624765 368.049045 236.70822 368.70246 235.627035 368.750235 234.62817 368.61132 233.858625 366.764265 232.143135 366.146865 229.64634 365.8242 227.11941 365.848455 226.161705 366.939195 224.923965 366.05205 224.94528 367.394895 224.11326 368.569425 222.749835 368.673795 221.48196 368.66424 220.99245 370.961115 221.95971 373.23006 219.77529 374.886015 216.935985 375.81138 214.39803 377.18583"></polygon>
        <polyline id="Fill-16" fill="#FFFFFE" points="195.447525 204.696765 196.330995 205.555245 197.724555 207.13623 197.693685 208.921545 198.244935 209.519835 199.08798 209.832945 199.732575 209.41767 199.773735 208.771605 200.990895 208.19169 202.15587 208.527585 203.747145 208.85319 205.224495 209.740335 202.208055 212.909655 201.21948 217.7217 200.93871 220.042095 199.97145 224.147805 199.628205 224.87472 199.44078 225.60972 196.51842 226.263135 195.84222 229.05246 197.20491 235.22499 197.017485 237.205815 198.01635 238.625835 200.66823 239.207955 203.195895 238.15029 205.20318 236.319405 206.066805 237.526275 207.60663 238.49133 208.042485 236.71263 208.271805 234.89424 213.67038 235.26468 218.88153 234.31506 218.80803 236.012175 219.536415 238.300965 219.75471 240.25533 218.78745 245.061495 217.82019 249.833115 218.308965 258.137145 219.19317 273.458955 221.39817 280.80234 221.221035 284.091465 218.50668 286.618395 216.35313 287.22624 215.07423 288.00534 214.991175 289.831815 215.75043 292.360215 215.532135 293.28558 215.74014 294.13965 216.19731 294.68502 216.561135 295.203195 215.87538 296.052855 215.386605 296.990715 215.937855 298.788525 216.083385 299.49339 215.75043 300.24309 215.09481 301.081725 214.284105 301.825545 213.358005 303.61821 212.900835 305.59536 210.66423 308.922705 206.85693 309.750315 205.03707 310.620555 203.445795 312.081735 202.95702 314.09196 201.60462 315.65016 199.722285 315.542115 197.902425 315.63105 198.01635 317.24805 201.230505 318.86652 201.89568 320.281395 202.468245 321.836655 202.9776 322.45773 203.37303 323.140545 201.89568 325.55061 202.82178 326.14449 203.747145 326.61342 202.71741 328.0746 200.814495 328.548675 195.11457 331.531305 191.97318 331.957605 188.634075 331.84809 186.138015 332.04654 184.01607 332.40081 178.49328 331.648905 173.27184 330.4707 170.81694 330.271515 168.74718 328.689795 169.111005 327.650505 169.881285 326.928 169.19406 326.179035 169.26756 324.517935 170.42151 323.502165 170.2554 322.14609 169.48512 319.484655 167.155905 317.75079 164.23281 316.80264 163.35963 313.86852 164.0667 310.104585 163.42137 309.44382 162.85983 308.671335 163.41108 307.91943 164.18136 307.65777 165.57492 306.42885 166.459125 304.99854 166.12617 304.906665 165.99093 304.578855 166.04238 302.569365 166.770765 301.01043 166.04238 299.7477 164.51358 296.089605 165.668265 295.025325 169.1529 294.45423 170.733885 292.738005 171.836385 292.674795 172.928595 292.41534 173.71872 291.168045 174.291285 289.83402 173.115285 288.358875 171.65925 286.906515 171.63867 285.420345 171.877545 283.612245 170.66112 282.12534 168.102585 280.707525 167.24925 280.109235 167.416095 278.151195 163.06857 274.332135 161.830095 271.220145 163.91088 271.447995 165.72045 270.915855 165.553605 270.443985 165.47055 269.781015 165.813795 269.18493 166.240095 268.63221 166.56276 266.60214 168.008505 266.5992 169.56891 267.717135 171.295425 267.847965 171.440955 266.793975 171.285135 265.66134 172.76175 264.83814 174.207495 265.08951 175.289415 264.5706 174.686715 263.191005 173.875275 261.903285 175.06083 261.59679 176.2677 261.03819 176.31915 259.98861 176.88069 259.22274 177.088695 257.99529 176.807925 256.72668 176.29857 255.65652 175.684845 254.641485 174.67569 252.605535 174.92559 250.462275 176.350755 249.15912 176.71458 248.288145 176.694 247.364985 176.98506 246.1662 177.02622 244.9755 175.18578 243.17034 174.62424 240.026745 174.332445 236.633985 173.82309 235.904865 173.459265 235.64982 173.42766 233.899785 172.74117 232.1571 171.74304 230.477625 171.024945 228.89811 170.26569 228.68496 169.371195 228.181485 169.111005 226.40205 169.5792 224.743155 171.721725 223.155555 175.102725 221.903115 176.88069 219.745155 178.50357 219.808365 179.71044 220.60878 181.207635 219.567285 181.9566 218.341305 182.65338 217.853265 183.309 217.46739 183.246525 216.747825 183.01794 216.27522 184.30713 214.94193 185.27439 213.46899 185.25381 211.57857 185.81535 209.95569 186.824505 209.95569 187.58376 210.144585 188.16588 209.73519 190.121715 207.676455 191.43222 206.52177 193.34616 205.555245 195.447525 204.696765"></polyline>
        <polygon id="Stroke-17" stroke="#0C0E0F" stroke-width="0.5" stroke-linecap="round" stroke-linejoin="round" points="195.447525 204.696765 196.330995 205.555245 197.724555 207.13623 197.693685 208.921545 198.244935 209.519835 199.08798 209.832945 199.732575 209.41767 199.773735 208.771605 200.990895 208.19169 202.15587 208.527585 203.747145 208.85319 205.224495 209.740335 202.208055 212.909655 201.21948 217.7217 200.93871 220.042095 199.97145 224.147805 199.628205 224.87472 199.44078 225.60972 196.51842 226.263135 195.84222 229.05246 197.20491 235.22499 197.017485 237.205815 198.01635 238.625835 200.66823 239.207955 203.195895 238.15029 205.20318 236.319405 206.066805 237.526275 207.60663 238.49133 208.042485 236.71263 208.271805 234.89424 213.67038 235.26468 218.88153 234.31506 218.80803 236.012175 219.536415 238.300965 219.75471 240.25533 218.78745 245.061495 217.82019 249.833115 218.308965 258.137145 219.19317 273.458955 221.39817 280.80234 221.221035 284.091465 218.50668 286.618395 216.35313 287.22624 215.07423 288.00534 214.991175 289.831815 215.75043 292.360215 215.532135 293.28558 215.74014 294.13965 216.19731 294.68502 216.561135 295.203195 215.87538 296.052855 215.386605 296.990715 215.937855 298.788525 216.083385 299.49339 215.75043 300.24309 215.09481 301.081725 214.284105 301.825545 213.358005 303.61821 212.900835 305.59536 210.66423 308.922705 206.85693 309.750315 205.03707 310.620555 203.445795 312.081735 202.95702 314.09196 201.60462 315.65016 199.722285 315.542115 197.902425 315.63105 198.01635 317.24805 201.230505 318.86652 201.89568 320.281395 202.468245 321.836655 202.9776 322.45773 203.37303 323.140545 201.89568 325.55061 202.82178 326.14449 203.747145 326.61342 202.71741 328.0746 200.814495 328.548675 195.11457 331.531305 191.97318 331.957605 188.634075 331.84809 186.138015 332.04654 184.01607 332.40081 178.49328 331.648905 173.27184 330.4707 170.81694 330.271515 168.74718 328.689795 169.111005 327.650505 169.881285 326.928 169.19406 326.179035 169.26756 324.517935 170.42151 323.502165 170.2554 322.14609 169.48512 319.484655 167.155905 317.75079 164.23281 316.80264 163.35963 313.86852 164.0667 310.104585 163.42137 309.44382 162.85983 308.671335 163.41108 307.91943 164.18136 307.65777 165.57492 306.42885 166.459125 304.99854 166.12617 304.906665 165.99093 304.578855 166.04238 302.569365 166.770765 301.01043 166.04238 299.7477 164.51358 296.089605 165.668265 295.025325 169.1529 294.45423 170.733885 292.738005 171.836385 292.674795 172.928595 292.41534 173.71872 291.168045 174.291285 289.83402 173.115285 288.358875 171.65925 286.906515 171.63867 285.420345 171.877545 283.612245 170.66112 282.12534 168.102585 280.707525 167.24925 280.109235 167.416095 278.151195 163.06857 274.332135 161.830095 271.220145 163.91088 271.447995 165.72045 270.915855 165.553605 270.443985 165.47055 269.781015 165.813795 269.18493 166.240095 268.63221 166.56276 266.60214 168.008505 266.5992 169.56891 267.717135 171.295425 267.847965 171.440955 266.793975 171.285135 265.66134 172.76175 264.83814 174.207495 265.08951 175.289415 264.5706 174.686715 263.191005 173.875275 261.903285 175.06083 261.59679 176.2677 261.03819 176.31915 259.98861 176.88069 259.22274 177.088695 257.99529 176.807925 256.72668 176.29857 255.65652 175.684845 254.641485 174.67569 252.605535 174.92559 250.462275 176.350755 249.15912 176.71458 248.288145 176.694 247.364985 176.98506 246.1662 177.02622 244.9755 175.18578 243.17034 174.62424 240.026745 174.332445 236.633985 173.82309 235.904865 173.459265 235.64982 173.42766 233.899785 172.74117 232.1571 171.74304 230.477625 171.024945 228.89811 170.26569 228.68496 169.371195 228.181485 169.111005 226.40205 169.5792 224.743155 171.721725 223.155555 175.102725 221.903115 176.88069 219.745155 178.50357 219.808365 179.71044 220.60878 181.207635 219.567285 181.9566 218.341305 182.65338 217.853265 183.309 217.46739 183.246525 216.747825 183.01794 216.27522 184.30713 214.94193 185.27439 213.46899 185.25381 211.57857 185.81535 209.95569 186.824505 209.95569 187.58376 210.144585 188.16588 209.73519 190.121715 207.676455 191.43222 206.52177 193.34616 205.555245"></polygon>
        <polygon id="Fill-18" fill="#FFFFFE" points="213.67038 235.26468 208.271805 234.89424 208.042485 236.71263 207.60663 238.49133 206.066805 237.526275 205.20318 236.319405 203.195895 238.15029 200.66823 239.207955 198.01635 238.625835 197.017485 237.205815 197.20491 235.22499 195.84222 229.05246 196.51842 226.263135 199.44078 225.60972 199.628205 224.87472 199.97145 224.147805 200.93871 220.042095 201.21948 217.7217 202.208055 212.909655 205.224495 209.740335 203.747145 208.85319 202.15587 208.527585 200.990895 208.19169 199.773735 208.771605 199.732575 209.41767 199.08798 209.832945 198.244935 209.519835 197.693685 208.921545 197.724555 207.13623 196.330995 205.555245 195.447525 204.696765 193.34616 205.555245 191.43222 206.52177 190.121715 207.676455 188.16588 209.73519 187.58376 210.144585 186.824505 209.95569 185.81535 209.95569 185.25381 211.57857 185.27439 213.46899 184.30713 214.94193 183.01794 216.27522 183.246525 216.747825 183.309 217.46739 182.65338 217.853265 181.9566 218.341305 181.207635 219.567285 179.71044 220.60878 178.50357 219.808365 176.88069 219.745155 175.102725 221.903115 171.721725 223.155555 169.5792 224.743155 167.020665 222.28164 167.40507 218.75364 166.906005 216.35166 165.96006 213.99672 165.69987 212.295195 164.867115 210.895755 163.24497 210.77742 161.84112 210.187215 161.653695 208.420275 161.788935 206.57175 161.49714 204.40203 161.674275 203.120925 161.643405 201.85011 160.124895 200.599875 158.231535 200.663085 156.41094 199.53339 154.768215 197.87376 151.74075 195.41004 148.40238 194.120115 146.540625 193.84449 145.032405 192.757425 143.108175 191.982 141.12147 191.482935 131.843565 187.21479 129.67017 186.00351 128.546355 184.54821 127.058715 183.355305 125.02056 183.428805 123.22128 182.07567 121.525635 182.848155 119.43456 182.858445 118.810545 181.053285 116.304195 170.800035 114.826845 167.948235 115.929345 165.42792 117.62499 164.64441 118.082895 163.732275 118.218135 163.01712 121.359525 160.440945 123.189675 156.54765 122.617845 152.34639 123.449865 152.758725 124.417125 152.871915 124.62513 143.43966 123.824715 137.473665 128.30748 139.305285 133.24815 139.32072 143.03541 136.74528 143.07657 140.052045 144.10704 142.918545 145.63584 143.444805 147.122745 144.12615 147.768075 145.38006 148.14219 146.761125 149.21382 148.91688 151.335765 150.05319 152.38608 150.34719 153.36363 150.405255 154.903455 147.62034 156.692445 146.83977 158.56449 142.45329 162.52761 137.289915 165.5955 135.877245 167.457255 136.869495 169.16319 138.089595 172.367055 138.066075 175.05054 136.01175 177.598785 133.71267 179.793495 131.139435 181.00992 129.266655 182.424795 127.53279 184.81722 125.632815 183.974175 122.99637 182.123445 120.596595 179.5017 119.68593 179.31501 117.45153 186.80319 117.19134 189.726285 115.14069 192.36861 114.38511 195.13515 113.85885 197.974455 112.69314 200.92842 112.758555 203.49798 114.216795 207.876375 117.286155 209.42649 118.991355 210.23793 120.08577 211.1949 120.81489 210.019635 123.457215 208.3137 125.98047 208.376175 130.35519 210.23793 134.44914 211.007475 136.57182 209.44707 140.22771 209.530125 142.30629 210.38346 143.278695 211.454355 144.32607 211.870365 146.75304 214.534005 150.72645 215.94741 154.105245 216.85293 155.25405 218.017905 156.155895 218.694105 157.719975 217.862085 159.22158 216.42663 160.15209 215.18889 161.3766 214.77288 162.604785 214.54356 163.88442 212.359875 171.69894 213.86736 171.257205 215.04336 173.002095 216.67653 173.632725 218.214885 174.846945 218.63163 176.965215 219.88995 178.23162 224.13384 177.81414 231.757995 179.681775 233.557275 179.684715 235.23234 180.635805 236.854485 181.88898 238.633185 182.80332 239.901795 182.7063 240.61989 183.722805 240.77571 185.01567 240.733815 186.32691 241.08735 188.257755 240.54639 189.523425 239.38215 190.25916 239.776845 190.54287 240.26562 190.708245 242.79402 190.13274 244.21845 186.79437 244.72854 185.821965 245.362845 183.16347 246.059625 182.55636 246.81888 181.986 247.48479 180.772515 248.399865 179.784675 249.65892 179.78688 251.21859 179.77659 251.748525 185.078145 250.93782 201.10923 251.676495 204.851115 253.361115 208.52244 254.19387 212.308425 253.26777 212.378985 249.617025 211.89609 246.735825 212.298135 244.47864 213.82326 243.719385 216.774285 242.834445 224.59395 244.260345 232.451835 243.80244 234.73695 244.114815 237.135255 243.563565 238.224525 242.918235 238.90146 242.45004 240.089955 242.211165 241.136595 240.24504 240.90066 237.873195 239.541645 233.006025 238.02681 230.030745 235.033155 226.36971 233.62122 224.528535 233.94756 220.774155 234.30918 218.88153 234.31506"></polygon>
        <polygon id="Stroke-19" stroke="#0C0E0F" stroke-width="0.5" stroke-linecap="round" stroke-linejoin="round" points="218.88153 234.31506 213.67038 235.26468 208.271805 234.89424 208.042485 236.71263 207.60663 238.49133 206.066805 237.526275 205.20318 236.319405 203.195895 238.15029 200.66823 239.207955 198.01635 238.625835 197.017485 237.205815 197.20491 235.22499 195.84222 229.05246 196.51842 226.263135 199.44078 225.60972 199.628205 224.87472 199.97145 224.147805 200.93871 220.042095 201.21948 217.7217 202.208055 212.909655 205.224495 209.740335 203.747145 208.85319 202.15587 208.527585 200.990895 208.19169 199.773735 208.771605 199.732575 209.41767 199.08798 209.832945 198.244935 209.519835 197.693685 208.921545 197.724555 207.13623 196.330995 205.555245 195.447525 204.696765 193.34616 205.555245 191.43222 206.52177 190.121715 207.676455 188.16588 209.73519 187.58376 210.144585 186.824505 209.95569 185.81535 209.95569 185.25381 211.57857 185.27439 213.46899 184.30713 214.94193 183.01794 216.27522 183.246525 216.747825 183.309 217.46739 182.65338 217.853265 181.9566 218.341305 181.207635 219.567285 179.71044 220.60878 178.50357 219.808365 176.88069 219.745155 175.102725 221.903115 171.721725 223.155555 169.5792 224.743155 167.020665 222.28164 167.40507 218.75364 166.906005 216.35166 165.96006 213.99672 165.69987 212.295195 164.867115 210.895755 163.24497 210.77742 161.84112 210.187215 161.653695 208.420275 161.788935 206.57175 161.49714 204.40203 161.674275 203.120925 161.643405 201.85011 160.124895 200.599875 158.231535 200.663085 156.41094 199.53339 154.768215 197.87376 151.74075 195.41004 148.40238 194.120115 146.540625 193.84449 145.032405 192.757425 143.108175 191.982 141.12147 191.482935 131.843565 187.21479 129.67017 186.00351 128.546355 184.54821 127.058715 183.355305 125.02056 183.428805 123.22128 182.07567 121.525635 182.848155 119.43456 182.858445 118.810545 181.053285 116.304195 170.800035 114.826845 167.948235 115.929345 165.42792 117.62499 164.64441 118.082895 163.732275 118.218135 163.01712 121.359525 160.440945 123.189675 156.54765 122.617845 152.34639 123.449865 152.758725 124.417125 152.871915 124.62513 143.43966 123.824715 137.473665 128.30748 139.305285 133.24815 139.32072 143.03541 136.74528 143.07657 140.052045 144.10704 142.918545 145.63584 143.444805 147.122745 144.12615 147.768075 145.38006 148.14219 146.761125 149.21382 148.91688 151.335765 150.05319 152.38608 150.34719 153.36363 150.405255 154.903455 147.62034 156.692445 146.83977 158.56449 142.45329 162.52761 137.289915 165.5955 135.877245 167.457255 136.869495 169.16319 138.089595 172.367055 138.066075 175.05054 136.01175 177.598785 133.71267 179.793495 131.139435 181.00992 129.266655 182.424795 127.53279 184.81722 125.632815 183.974175 122.99637 182.123445 120.596595 179.5017 119.68593 179.31501 117.45153 186.80319 117.19134 189.726285 115.14069 192.36861 114.38511 195.13515 113.85885 197.974455 112.69314 200.92842 112.758555 203.49798 114.216795 207.876375 117.286155 209.42649 118.991355 210.23793 120.08577 211.1949 120.81489 210.019635 123.457215 208.3137 125.98047 208.376175 130.35519 210.23793 134.44914 211.007475 136.57182 209.44707 140.22771 209.530125 142.30629 210.38346 143.278695 211.454355 144.32607 211.870365 146.75304 214.534005 150.72645 215.94741 154.105245 216.85293 155.25405 218.017905 156.155895 218.694105 157.719975 217.862085 159.22158 216.42663 160.15209 215.18889 161.3766 214.77288 162.604785 214.54356 163.88442 212.359875 171.69894 213.86736 171.257205 215.04336 173.002095 216.67653 173.632725 218.214885 174.846945 218.63163 176.965215 219.88995 178.23162 224.13384 177.81414 231.757995 179.681775 233.557275 179.684715 235.23234 180.635805 236.854485 181.88898 238.633185 182.80332 239.901795 182.7063 240.61989 183.722805 240.77571 185.01567 240.733815 186.32691 241.08735 188.257755 240.54639 189.523425 239.38215 190.25916 239.776845 190.54287 240.26562 190.708245 242.79402 190.13274 244.21845 186.79437 244.72854 185.821965 245.362845 183.16347 246.059625 182.55636 246.81888 181.986 247.48479 180.772515 248.399865 179.784675 249.65892 179.78688 251.21859 179.77659 251.748525 185.078145 250.93782 201.10923 251.676495 204.851115 253.361115 208.52244 254.19387 212.308425 253.26777 212.378985 249.617025 211.89609 246.735825 212.298135 244.47864 213.82326 243.719385 216.774285 242.834445 224.59395 244.260345 232.451835 243.80244 234.73695 244.114815 237.135255 243.563565 238.224525 242.918235 238.90146 242.45004 240.089955 242.211165 241.136595 240.24504 240.90066 237.873195 239.541645 233.006025 238.02681 230.030745 235.033155 226.36971 233.62122 224.528535 233.94756 220.774155 234.30918"></polygon>
        <circle id="Oval" fill="#BD7391" cx="133.28" cy="45.08" r="11.76"></circle>
        <circle id="Oval" fill="#BD7391" cx="241.08" cy="136.22" r="11.76"></circle>
        <circle id="Oval" fill="#BD7391" cx="284.2" cy="224.42" r="11.76"></circle>
        <circle id="Oval" fill="#BD7391" cx="303.8" cy="274.4" r="11.76"></circle>
    </g>
</svg>