<?xml version="1.0" encoding="UTF-8"?>
<svg width="37px" height="32px" viewBox="0 0 37 32" version="1.1" xmlns="http://www.w3.org/2000/svg" xmlns:xlink="http://www.w3.org/1999/xlink">
    <title>Desktop</title>
    <g id="Site" stroke="none" stroke-width="1" fill="none" fill-rule="evenodd">
        <g id="Sri-Lanka-Portuguese" transform="translate(-56.000000, -804.000000)" fill="#000000">
            <g id="Group" transform="translate(53.000000, 798.000000)">
                <g id="Shape" transform="translate(2.787037, 6.370370)">
                    <path d="M18.712963,0.34794963 L31.7448296,0.71640588 C34.0474796,0.781515046 35.9522005,2.52955463 36.213963,4.81822963 C36.7935671,9.88436421 36.7935671,15.0000921 36.213963,20.0662088 C35.9522005,22.3548838 34.0474796,24.103013 31.7448296,24.1680505 L20.9525463,24.4731713 L20.9525463,28.1193921 L27.6712963,28.1193921 C28.4134046,28.1193921 29.0150463,28.7208546 29.0150463,29.4631421 C29.0150463,30.2052505 28.4134046,30.8068921 27.6712963,30.8068921 L9.75462963,30.8068921 C9.01250338,30.8068921 8.41087963,30.2052505 8.41087963,29.4631421 C8.41087963,28.7208546 9.01250338,28.1193921 9.75462963,28.1193921 L16.4733796,28.1193921 L16.4733796,24.4731713 L5.68102463,24.1680505 C3.3783388,24.103013 1.4737613,22.3548838 1.2118913,20.0662088 C0.632251296,15.0000921 0.632251296,9.88436421 1.2118913,4.81822963 C1.4737613,2.52955463 3.3783388,0.781515046 5.68102463,0.71640588 L18.712963,0.34794963 Z M6.1712963,18.2652255 C5.42917005,18.2652255 4.8275463,18.866688 4.8275463,19.6089755 C4.8275463,20.3510838 5.42917005,20.9527255 6.1712963,20.9527255 L31.2546296,20.9527255 C31.996738,20.9527255 32.5983796,20.3510838 32.5983796,19.6089755 C32.5983796,18.866688 31.996738,18.2652255 31.2546296,18.2652255 L6.1712963,18.2652255 Z"></path>
                </g>
            </g>
        </g>
    </g>
</svg>