<?xml version="1.0" encoding="UTF-8"?>
<svg width="16px" height="17px" viewBox="0 0 16 17" version="1.1" xmlns="http://www.w3.org/2000/svg" xmlns:xlink="http://www.w3.org/1999/xlink">
    <title>Download</title>
    <defs>
        <filter id="filter-1">
            <feColorMatrix in="SourceGraphic" type="matrix" values="0 0 0 0 0.741176 0 0 0 0 0.450980 0 0 0 0 0.568627 0 0 0 1.000000 0"></feColorMatrix>
        </filter>
    </defs>
    <g id="Site" stroke="none" stroke-width="1" fill="none" fill-rule="evenodd">
        <g id="Research" transform="translate(-620.000000, -434.000000)">
            <g id="Download" transform="translate(617.000000, 431.000000)" filter="url(#filter-1)">
                <g transform="translate(3.666667, 2.750000)" fill="#000000" id="Path">
                    <path d="M0.916666667,12.1458333 C1.29635917,12.1458333 1.60416667,12.45365 1.60416667,12.8333333 L1.60416667,14.6666667 C1.60416667,14.7932583 1.70676917,14.8958333 1.83333333,14.8958333 L12.8333333,14.8958333 C12.959925,14.8958333 13.0625,14.7932583 13.0625,14.6666667 L13.0625,12.8333333 C13.0625,12.45365 13.3703167,12.1458333 13.75,12.1458333 C14.1296833,12.1458333 14.4375,12.45365 14.4375,12.8333333 L14.4375,14.6666667 C14.4375,15.552625 13.7192917,16.2708333 12.8333333,16.2708333 L1.83333333,16.2708333 C0.947375,16.2708333 0.229166667,15.552625 0.229166667,14.6666667 L0.229166667,12.8333333 C0.229166667,12.45365 0.536974167,12.1458333 0.916666667,12.1458333 Z"></path>
                    <path d="M6.17640833,0.6875 C5.70496667,0.6875 5.3115975,1.04786 5.27042083,1.5175875 C5.12958417,3.12423833 5.1047425,4.73879083 5.196015,6.34868667 C4.9696075,6.36119917 4.74329167,6.37570083 4.51708583,6.39219167 L3.15170167,6.49174167 C2.62526,6.53005833 2.33097333,7.11709167 2.61518583,7.56185833 C3.5887225,9.08545 4.84314417,10.4099417 6.31161667,11.4648417 L6.85859167,11.8578167 C7.1423,12.0615917 7.52445833,12.0615917 7.80816667,11.8578167 L8.35514167,11.4648417 C9.82364167,10.4099417 11.0780083,9.08545 12.0516,7.56185833 C12.3357667,7.11709167 12.0415167,6.53005833 11.515075,6.49174167 L10.1497,6.39219167 C9.92346667,6.37570083 9.69714167,6.36119917 9.470725,6.34868667 C9.562025,4.73879083 9.53718333,3.12423833 9.39638333,1.51757833 C9.35513333,1.04786 8.96179167,0.6875 8.49035,0.6875 L6.17640833,0.6875 Z" fill-rule="nonzero"></path>
                </g>
            </g>
        </g>
    </g>
</svg>