<?xml version="1.0" encoding="UTF-8"?>
<svg width="41px" height="29px" viewBox="0 0 41 29" version="1.1" xmlns="http://www.w3.org/2000/svg" xmlns:xlink="http://www.w3.org/1999/xlink">
    <title>Folder-open</title>
    <g id="Site" stroke="none" stroke-width="1" fill="none" fill-rule="evenodd">
        <g id="Sri-Lanka-Portuguese" transform="translate(-56.000000, -621.000000)" fill="#000000">
            <g id="Group" transform="translate(52.000000, 612.000000)">
                <g id="Shape" transform="translate(3.750000, 9.375000)">
                    <path d="M36.5398125,9.84375 C36.49425,9.5041875 36.4441875,9.16501875 36.3901875,8.82635625 L36.27,8.07365625 C35.84775,5.427375 33.565125,3.480225 30.885375,3.480225 L15.666,3.480225 C15.101625,1.472175 13.2569625,0 11.0685,0 L6.771825,0 C3.99151875,0 1.6496625,2.0774625 1.31818125,4.83793125 L0.8072625,9.09253125 C0.25854375,13.662 0.4001625,18.2878125 1.22735625,22.8151875 C1.66989375,25.2373125 3.69553125,27.0526875 6.15136875,27.228375 L8.9901375,27.431625 C15.4884375,27.8964375 22.0115625,27.8964375 28.50975,27.431625 L31.5808125,27.211875 C33.09675,27.1033125 34.43925,26.33325 35.304,25.17375 C36.4545,24.070125 37.360125,22.722 37.945875,21.215625 L40.2885,15.1914375 C41.2891875,12.618375 39.391125,9.84375 36.630375,9.84375 L36.5398125,9.84375 Z M6.771825,2.8125 C5.41513125,2.8125 4.272375,3.8262375 4.11061875,5.17325625 L3.5997,9.427875 C3.0846,13.7173125 3.2175375,18.0598125 3.99405,22.3096875 C4.20598125,23.4695625 5.1760125,24.339 6.35206875,24.4231875 L6.5133375,24.434625 L10.8859875,13.1386875 C11.6547188,11.1526875 13.5651,9.84375 15.6945,9.84375 L33.700125,9.84375 C33.6725625,9.6523125 33.6433125,9.460875 33.6129375,9.26964375 L33.49275,8.5169625 C33.2881875,7.23556875 32.182875,6.292725 30.885375,6.292725 L14.548725,6.292725 C13.7106188,6.292725 13.0311938,5.61328125 13.0311938,4.77519375 C13.0311938,3.69121875 12.152475,2.8125 11.0685,2.8125 L6.771825,2.8125 Z"></path>
                </g>
            </g>
        </g>
    </g>
</svg>