<?xml version="1.0" encoding="UTF-8"?>
<svg width="10px" height="18px" viewBox="0 0 10 18" version="1.1" xmlns="http://www.w3.org/2000/svg" xmlns:xlink="http://www.w3.org/1999/xlink">
    <title>Tumblr</title>
    <g id="Site" stroke="none" stroke-width="1" fill="none" fill-rule="evenodd">
        <g id="Home" transform="translate(-130.000000, -417.000000)" fill="#000000" fill-rule="nonzero">
            <g id="Group" transform="translate(123.000000, 414.000000)">
                <g id="Tumblr" transform="translate(7.000000, 3.000000)">
                    <path d="M9.2565,14.1541 C9.2201,14.0436 9.0977,13.9878 8.988,14.0264 C8.5986,14.1636 8.1902,14.2407 7.7768,14.2546 C7.5447,14.2799 7.3098,14.2515 7.0904,14.1717 C6.8709,14.092 6.6727,13.9629 6.511,13.7944 C6.3493,13.626 6.2284,13.4227 6.1576,13.2001 C6.0884,12.9824 6.069,12.7519 6.1007,12.5257 C6.1021,12.5158 6.1029,12.5059 6.1029,12.4959 L6.1029,7.0793 L9.3902,7.0793 C9.5007,7.0793 9.5902,6.98979 9.5902,6.87934 L9.5902,4.66382 C9.5902,4.55336 9.5007,4.46382 9.3902,4.46382 L6.1029,4.46382 L6.1029,0.2 C6.1029,0.08954 6.0133,0 5.9029,0 L3.5571,0 C3.524,0.00221 3.4929,0.01696 3.4702,0.04125 C3.4475,0.06554 3.435,0.09755 3.435,0.13078 C3.3801,1.16286 3.0261,2.15666 2.41613,2.99106 C1.83342,3.78822 1.04117,4.40698 0.12862,4.77943 C0.05162,4.81086 0,4.88501 0,4.96818 L0,6.87934 C0,6.98979 0.08954,7.0793 0.2,7.0793 L1.74368,7.0793 L1.74368,12.7812 C1.74368,14.7254 3.1822,17.4978 6.9747,17.4368 C8.1864,17.4368 9.5305,16.9381 9.9388,16.4932 C9.9808,16.4475 9.9887,16.3822 9.9693,16.3233 L9.2565,14.1541 Z" id="Path"></path>
                </g>
            </g>
        </g>
    </g>
</svg>