<?xml version="1.0" encoding="UTF-8"?>
<svg width="20px" height="17px" viewBox="0 0 20 17" version="1.1" xmlns="http://www.w3.org/2000/svg" xmlns:xlink="http://www.w3.org/1999/xlink">
    <!-- Generator: Sketch 64 (93537) - https://sketch.com -->
    <title>Twitter</title>
    <desc>Created with Sketch.</desc>
    <g id="Icons" stroke="none" stroke-width="1" fill="none" fill-rule="evenodd">
        <g id="Solid" transform="translate(-188.000000, -1160.000000)" fill="#000000">
            <g id="Solid-/-Brands-/Twitter" transform="translate(186.000000, 1156.000000)">
                <g id="Twitter" transform="translate(2.000000, 4.000000)">
                    <path d="M19.8097,2.22724 C19.8677,2.14647 19.7821,2.04218 19.6894,2.07811 C19.0307,2.33344 18.3422,2.50571 17.64,2.5906 C18.4219,2.12348 19.0253,1.4124 19.3599,0.57053 C19.3939,0.48477 19.3003,0.40819 19.2195,0.4528 C18.4928,0.85414 17.709,1.14313 16.8949,1.30957 C16.8608,1.31654 16.8257,1.30494 16.8018,1.27969 C16.1908,0.63502 15.3865,0.20578 14.5098,0.05745 C13.6146,-0.09399 12.6945,0.05596 11.8938,0.48379 C11.093,0.91162 10.4569,1.59313 10.0852,2.42144 C9.7318,3.209 9.6365,4.08691 9.8108,4.93003 C9.8243,4.99545 9.7731,5.05721 9.7064,5.05307 C8.1224,4.95469 6.57466,4.53336 5.15865,3.81446 C3.74624,3.09739 2.49551,2.09983 1.48264,0.8833 C1.43769,0.82931 1.35249,0.83629 1.31973,0.89845 C1.00457,1.49651 0.83955,2.16311 0.84,2.8406 C0.83872,3.51498 1.00421,4.17922 1.32175,4.77416 C1.63929,5.36911 2.09902,5.87631 2.66,6.2506 C2.06507,6.2344 1.48175,6.0873 0.95125,5.82067 C0.88288,5.78631 0.80087,5.83524 0.80443,5.91167 C0.8458,6.8009 1.17225,7.6936 1.73731,8.3786 C2.33863,9.1074 3.17325,9.6062 4.1,9.7906 C3.74325,9.8992 3.37287,9.9564 3,9.9606 C2.79706,9.9582 2.59451,9.9433 2.39353,9.9158 C2.31901,9.9056 2.25817,9.9764 2.28425,10.0469 C2.56067,10.7944 3.04899,11.4467 3.69107,11.9228 C4.37752,12.4318 5.20557,12.7142 6.06,12.7306 C4.6172,13.8659 2.83588,14.4855 1,14.4906 C0.81135,14.4912 0.62279,14.4851 0.43468,14.4723 C0.32867,14.4651 0.27992,14.6063 0.37129,14.6605 C2.16006,15.7221 4.20459,16.2831 6.29,16.2806 C7.82969,16.2966 9.3571,16.0056 10.7831,15.4247 C12.2091,14.8437 13.505,13.9845 14.5952,12.8971 C15.6854,11.8097 16.548,10.516 17.1326,9.0915 C17.7171,7.667 18.012,6.1403 18,4.6006 L18,4.12077 C18,4.0892 18.0149,4.05951 18.0401,4.04048 C18.7184,3.52834 19.3149,2.91691 19.8097,2.22724 Z" id="Path" fill-rule="nonzero"></path>
                </g>
            </g>
        </g>
    </g>
</svg>