<?xml version="1.0" encoding="UTF-8"?>
<svg width="16px" height="20px" viewBox="0 0 16 20" version="1.1" xmlns="http://www.w3.org/2000/svg" xmlns:xlink="http://www.w3.org/1999/xlink">
    <title>Unlock</title>
    <g id="Icons" stroke="none" stroke-width="1" fill="none" fill-rule="evenodd">
        <g id="Solid" transform="translate(-88.000000, -206.000000)" fill="#000000">
            <g id="Group" transform="translate(84.000000, 204.000000)">
                <g id="Unlock" transform="translate(4.000000, 2.000000)">
                    <path d="M6.5328,1.81144 C6.2853,1.8475 6.0429,1.91246 5.8105,2.00497 C4.42728,2.55569 3.60668,3.98768 3.83084,5.45953 L3.86188,5.66334 C3.90035,5.91587 3.96666,6.16337 4.05962,6.4013 L4.97451,8.743 C7.1637,8.5942 9.3611,8.6071 11.5489,8.7817 L13.045,8.9011 C14.0131,8.9784 14.8036,9.7062 14.9605,10.6646 C15.3222,12.8735 15.3222,15.1265 14.9605,17.3354 C14.8036,18.2938 14.0131,19.0215 13.045,19.0988 L11.5489,19.2183 C9.1867,19.4068 6.8133,19.4068 4.45118,19.2183 L2.95505,19.0988 C1.98695,19.0215 1.19645,18.2938 1.03952,17.3354 C0.67783,15.1265 0.67783,12.8735 1.03952,10.6646 C1.19645,9.7062 1.98695,8.9784 2.95505,8.9011 L3.41163,8.8647 L2.66247,6.94716 C2.5292,6.60605 2.43413,6.25123 2.37898,5.88919 L2.34794,5.68538 C2.01869,3.52354 3.22399,1.42026 5.25565,0.61137 C5.59693,0.47548 5.95297,0.38008 6.3165,0.32712 C8.4804,0.01182 10.5758,1.23066 11.3716,3.26749 L11.4466,3.45951 C11.5799,3.80062 11.675,4.15544 11.7301,4.51749 L11.8715,5.4455 C11.913,5.71849 11.7254,5.9735 11.4524,6.01508 L10.9581,6.09037 C10.6852,6.13194 10.4301,5.94434 10.3886,5.67135 L10.2472,4.74334 C10.2088,4.4908 10.1424,4.2433 10.0495,4.00537 L9.9745,3.81335 C9.4327,2.42661 8.006,1.59678 6.5328,1.81144 Z M8,12.5 C7.1716,12.5 6.5,13.1716 6.5,14 C6.5,14.8284 7.1716,15.5 8,15.5 C8.8284,15.5 9.5,14.8284 9.5,14 C9.5,13.1716 8.8284,12.5 8,12.5 Z" id="Shape"></path>
                </g>
            </g>
        </g>
    </g>
</svg>